<svg xmlns="http://www.w3.org/2000/svg" viewBox="200 0 3750 2305"><path d="M4266.67 2666.67H0V0h4266.67v2666.67" fill="#fff"/><path d="M3902.91 2092.4c-6.21 76.45-37.06 150.75-71.89 218.24-.19.17-322.46.03-322.7.03l-298.63-.1c-.03.02-.03.02-.03 0h-22.33l-29.65-.02-70.06-.02-126.68-.04-129.31-.04-84.34-.02h-.03l-108.63-.04h-1.97l-90.6-.03h-24.1l-22.53-.01-137.8-.06-107.94-.02-487.3-.15-1297.42-.4c-36.62-36.61-124.64-163.56-173.53-297-25.2-68.72-44.45-146.76-49.55-231.21-18.73-309.67 203.86-626 431.2-768.06 253.12-157.68 512.19-102.9 717.36 34.62 79.02 52.96 255.38 40.9 450.87-107.22 40.16-30.45 81.13-66.61 122.25-109.15a1322.33 1322.33 0 0076.91-87.16c38.88-48.1 77.5-102.27 115.3-163.04C2446.16 121 3233 184.7 3576.43 616.67a765 765 0 0173.72 111.22c88.03 162.18 119.19 363.31 59.3 597.75a663.56 663.56 0 00-15.65 80.8c-10.7 83.99-.86 152.45 19.26 212.2a503.8 503.8 0 0012.88 33.95c9.8 23.25 21 45.28 32.9 66.53 31.63 56.39 68.28 107.37 96.9 161.8 35.28 67.32 54.16 132.45 47.18 211.48" fill="#dceaff"/><path d="M1766.39 2310.12l-1297.4-.39s-107.35-116.38-173.55-297.01c75.65-16.65 180.84-29.72 279.54-7.33 182.13 41.32 445.46 222.77 643.81 199.68 197.65-23.02 507.84 5.44 547.6 105.05" fill="#adc8fe"/><path d="M2837.1 1872.52s-62.8-65.24-158.73-35.47c-95.94 29.76-60.9 112.45-108.05 129.3-47.15 16.85-175.9-7.9-212.26 112.18-36.33 120.08 39.5 172.22-7.89 165.9-47.4-6.33-61.63 61.57-61.63 61.57s543 0 543 10.44 5.55-443.92 5.55-443.92" fill="#82b378"/><path d="M3480.48 1652.59v657.96l-120.19-.06-307.67-.08-85.97-.04V1652.6h513.83" fill="#f9ddbf"/><path d="M3855.72 1880.92c8.85 16.88 16.97 34.07 23.9 51.88v377.87l-48.6-.03-350.55-.1v-657.95h245.46c9.78 23.25 20.97 45.28 32.87 66.53 31.63 56.39 68.29 107.38 96.92 161.8" fill="#fff3e9"/><path d="M3611.1 1353.28l-168.37 346.6h-511.45l266.65-345.34 413.17-1.26" fill="#ed9f4a"/><path d="M3631.27 1353.28l-168.35 346.6h-511.45l266.64-345.33 413.16-1.27" fill="#f9ddbf"/><path d="M3222.7 1526.59h-10.74a66.07 66.07 0 00-66.08 66.06v167.91h140.74v-170.05a63.93 63.93 0 00-63.91-63.92" fill="#efcdaf"/><path d="M3713.07 1618.64c-20.13-59.75-29.95-128.22-19.25-212.2l-41-53.1H3605.48l-15.07-.01h-1.84l-237.52-.03-154.48-.04 1.15 1.54 9.94 13.26 213.42 284.52 27.1 36.14 8.37 11.17 14.41 19.23H3758.82c-11.9-21.26-23.08-43.28-32.86-66.54l-12.89-33.94" fill="#ed9f4a"/><path d="M3713.07 1618.64l-155.37-113.88-14.9-10.91-190.62-139.73-.1-.06-1.04-.76 237.52.03 19.2.01h45.06l40.98 53.1c-10.68 83.98-.86 152.45 19.27 212.2" fill="#e58638"/><path d="M3162.35 1796.7l-119.86 246.75h-364.13l189.84-245.86 294.15-.9" fill="#ed9f4a"/><path d="M3173.26 1796.7l-119.84 246.75h-364.15l189.85-245.86 294.14-.9M3052.62 2043.45v264.27h-120.57c-4.03-.59-6.07-.99-6.07-.99s-1.23 1.36-3.55 3.63l-130.76-.04-102.4-.03v-266.84h363.35" fill="#f9ddbf"/><path d="M3360.28 2043.45v267.04l-307.66-.08v-266.96h307.66" fill="#fff3e9"/><path d="M3394.1 2058.05h-330.52L2868.2 1797.6h98.45l226.38.06 201.06 260.4" fill="#ed9f4a"/><path d="M2944.74 2098.24v209.48l-.94 2.66-21.4-.02-130.74-.04v-209.54a77.6 77.6 0 0125.19-57.32 77.46 77.46 0 0152.6-20.48 74.95 74.95 0 0151.62 20.48 75 75 0 0123.67 54.78M2851.02 1934.59a17.19 17.19 0 1134.37 0 17.19 17.19 0 01-34.37 0" fill="#efcdaf"/><path d="M3394.1 2058.05h-62.72l-364.73-260.45 226.38.05 201.06 260.4" fill="#e58638"/><path d="M2764.47 1692.8s36-6.45 42.94-16.82c6.95-10.36 9.14-19.82 9.14-19.82l-52.08 12.94v23.7" fill="#ffb27d"/><path d="M2535.87 2305.93a11.58 11.58 0 002.07 5.12h100.94c-4.14-11.92-25.1-18.82-25.1-18.82-34.9-10.4-45.7-37.04-45.7-37.04l-32.71-4.39s-1.78 33.3-.73 44.56c.37 4.03.8 7.57 1.23 10.57" fill="#233862"/><path d="M2646.25 1822s-15.47 91.44-31.06 206.24a3853.43 3853.43 0 00-4.6 35.68c-8.8 71.59-15.32 144.85-20.14 214.7 0 0-42.24 19.11-64.89-4.73 0 0-12.76-75.41-16.1-147.82-1.06-23.52-.23-45.95 3.83-64.03 7.17-31.84 7.13-70.63 6.17-111.4-1.25-53.83-4.06-111.1 6.1-160.35l120.7 31.71" fill="#2b478b"/><path d="M2646.25 1822s-15.47 91.44-31.06 206.24a3853.43 3853.43 0 00-4.6 35.68l-91.13-113.28c-1.25-53.83-4.06-111.1 6.1-160.35l120.7 31.71M2805.62 2234.93s19.08 21.5 55.45 19.67c0 0 29.15-.64 32.4 14.5 0 0-47.17 12.94-59.17 16.66-9.07 2.8-19.03 8.12-26.15 12.35a11.43 11.43 0 01-15.95-4.58c-1.4-2.69-3-5.89-4.69-9.56-4.76-10.28-14.18-42.25-14.18-42.25l32.29-6.79" fill="#233862"/><path d="M2816.25 2238.36s-20.22 28.84-50.7 16.52c0 0-53.71-66.64-86.68-131.19-10.7-20.97-19.23-41.72-23-59.88-15.46-74.1-140.32-177.56-130.32-273.52h152.01s23.78 89.64 57.09 200.59c24.01 79.94 52.99 170.96 81.6 247.48" fill="#2b478b"/><path d="M2572.86 1529.52c-30.32 17.11-92.39 1.32-92.39 1.32s16.35-18.66 16.73-50.16c.1-7.6-.74-16-2.96-25.05l37.18 18.9 12.19 6.18s1.14 5.7 2.2 16.2c.51 5.28 1.02 11.76 1.33 19.36 15.55 4.7 25.72 13.25 25.72 13.25" fill="#ffb27d"/><path d="M2684.02 1793.52c0 5.32-6.12 7.87-7.46 8.12-12.21 2.25-46.33 15.52-77.1 18.57-25.91 2.72-49.93.14-76.36-5.16-3.5-.7-11.71-2.92-12.29-6.28-.72-3.65-101.86-206.2-23.23-293.2 1.84-2.04 17.37 1.63 31.55 5 13.1 3.11 25.13 1.4 35.86-2.93l13.3 7c16.37 9.1 47.3 41.47 50.94 66.88l.03.27c1.88 12.77 9.19 22.28 11.31 33.57.8 4.2 1.62 8.3 2.42 12.3 1.62 7.85 3.28 15.3 5 22.4a632 632 0 0011.96 42.94 539.7 539.7 0 0016.9 45.44c5.81 13.67 10.7 23.9 13.76 31.74.43 1.14.86 2.25 1.24 3.3 1.4 3.99 2.17 7.27 2.17 10.04" fill="#739af0"/><path d="M2545.82 1496.9c-42.81 1.71-48.6-16.22-48.6-16.22 13-5.56 24.67-7.02 34.23-6.16l12.17 6.18s1.15 5.71 2.2 16.2" fill="#ed975d"/><path d="M2559.1 1473s-45.17 32.42-64.93 4c-19.74-28.45-38.87-43.42-10.88-65.31 28.02-21.91 41.22-15 50.12-7.1 8.9 7.9 36.93 59.26 25.68 68.41" fill="#ffb27d"/><path d="M2535.73 1394.48a63.7 63.7 0 00-4.88-16.62s-2.63 10.48-22.54 9.04c-19.9-1.46-51.46 1.88-61.98 23.7a46.28 46.28 0 00-1.79 4.28c-1.9-4.84-2.35-12.1-2.35-12.1-3.8 9.4 0 21.17 0 21.17-.08.35-.1.68-.17 1.03-4.39 3.57-8.08 14.69-8.08 14.69 1.32-3.1 4.56-5.12 7.44-6.38-.1 17 7.07 33.6 19.65 38.54 18.35 7.24 18.2 1.72 36.68 13.52 0 0 4.97-5.92 1.58-9.9-3.38-3.98-16.15-9.76-9.02-15.54 7.15-5.79 9.78.72 12.41-3.25 2.63-3.98-10.52-15.55 6.38-26.4 16.9-10.84 28.18-26.02 26.67-35.78" fill="#233862"/><path d="M2681.85 1783.48c-152.39-5.13-160.34-162.12-160.34-162.12s65.62 31.99 124.16 67.58a541.31 541.31 0 006.61 21.16 547.38 547.38 0 0014.56 38.34c5.83 13.67 10.72 23.9 13.78 31.74.42 1.14.85 2.25 1.23 3.3" fill="#4a75cb"/><path d="M2649.97 1703a56.55 56.55 0 01-21.46-.59c-48.22-10.43-82.69-123.61-82.69-123.61.54-.92 36.76.9 73.45 12.98 1.89 12.78 9.19 22.28 11.32 33.58a682.54 682.54 0 007.41 34.7 613.27 613.27 0 0011.97 42.94" fill="#4a75cb"/><path d="M2755.7 1581.15s-18.33-3.3-26.4-12.75c-4.7-5.5-4.83-9.34-2.58-11.84 1.36-1.5 3.55-2.53 6.14-3.14.5-.14 1.05-.23 1.59-.32 7.83-1.31 20 26.69 21.25 28.05" fill="#e58638"/><path d="M2732.46 1542.13c-3.07-.97-3.25 8.14-1.98 12.05-.03 0-.06.02-.11.04-2.33-3.5-18.2-26.64-27.67-25.82-10.09.88 14.34 17.27 27.43 25.92l-.03.01c-2.94-1.76-16.93-9.32-24.52-.29 0 0-.6 3.44 5.12 1.9 5.5-1.5 11.8-3.4 19.08-1.47a9.05 9.05 0 00-3.05 2.1s5.16-.36 6.14-3.15c-.67.15-1.3.34-1.9.55 1-2.49 4.21-10.96 1.5-11.84" fill="#82b378"/><path d="M2816.56 1571.34s16.83-7.98 22.14-19.18c3.1-6.53 2.24-10.3-.59-12.1-1.69-1.11-4.08-1.52-6.73-1.44-.54 0-1.06.04-1.62.09-7.9.79-12.36 31-13.2 32.63" fill="#e58638"/><path d="M2828.81 1527.62c2.7-1.75 5.26 7 5.05 11.1l.14.02c1.35-3.99 10.6-30.46 19.97-32.14 9.98-1.77-9.34 20.42-19.73 32.18h.04c2.39-2.46 13.91-13.4 23.6-6.67 0 0 1.49 3.16-4.45 3.16-5.71-.01-12.28-.21-18.8 3.56a8.9 8.9 0 013.48 1.23s-5.08 1.01-6.73-1.44c.68-.03 1.33-.02 1.97.04-1.62-2.15-6.93-9.48-4.54-11.04" fill="#82b378"/><path d="M2774.15 1589.96s26.61-16.18 33.5-35.71c4.01-11.4 1.93-17.5-3.1-20.03-3-1.53-7.03-1.81-11.45-1.21-.88.1-1.76.27-2.67.44-12.97 2.67-15.15 53.65-16.28 56.5" fill="#e58638"/><path d="M2786.95 1515.19c4.18-3.38 9.94 10.7 10.29 17.57h.22c1.55-6.85 12.36-52.47 27.63-56.87 16.28-4.69-11.97 35.54-27.2 56.88h.06c3.54-4.49 20.8-24.69 38.05-15.17 0 0 3.02 4.99-6.85 6.01-9.46 1-20.41 1.8-30.62 9.19 2.24.12 4.3.55 6 1.43 0 0-8.25 2.57-11.44-1.22 1.13-.16 2.23-.24 3.3-.28-3.08-3.28-13.17-14.54-9.44-17.54" fill="#82b378"/><path d="M2714.22 1583.65s89.83-64.1 134.77-23.52c0 0 18.9 55.27-39.16 78.1-58.03 22.82-125.3 1.85-95.61-54.58" fill="#ffb64d"/><path d="M2652.44 1577.15s-28.37 19.17-2.59 59.25c25.79 40.1 67.2 49.98 104.18 28.5 36.96-21.47-30.52-155.62-101.6-87.75" fill="#82b378"/><path d="M2747.73 1668.22c.9.42-116.02-2.21-97.59-78.42 0 0 5.99-12.07 11.2.94 5.17 13.03-8.96 33.87 86.39 77.48M2666.88 1568.8s14.7-15.13 47.07-.52c25.12 11.34 46.34 62.73 44.03 75.84 0 0-30.36-68.26-54.76-70.5-24.4-2.24-40.92 4.15-36.34-4.82" fill="#67935d"/><path d="M2710.62 1633.47c-1.48-2.24-45.76-27.15-47.09-50.18-1.3-23.04 47.1 50.18 47.1 50.18M2651.87 1580.11s5.22.3 9.55-5.16c0 0-5.62 2.27-6-5.12-.37-7.39 3.45-11.16 3.45-11.16l-1.48.75s-7.2 7.7-5.52 20.69" fill="#67935d"/><path d="M2909.08 1550.1c-1.52 31.47-58.66 80.95-101.78 96.47-16.09 5.78-30.22 6.86-38.8.51a18.12 18.12 0 01-3.35-3.2c-26.49-32.63-1.35-54.8 24.4-59.65 14.48-2.75 32-7.3 46.34-15.9 11.16-6.64 20.39-15.73 24.76-28.26 10.05-28.68 31-28.07 31-28.07s1.33.04 3.24.75c.78.3 1.73.73 2.7 1.33 2.94 1.83 6.37 5.25 8.74 11.73 2.04 5.56 3.29 13.36 2.75 24.28" fill="#e58638"/><path d="M2887.27 1516.05s5.51 4.15 10.44 2.61c0 0-1.35-.89-.7-2.88.62-2 3.18-8.54 3.18-8.54s1.4-1.4-3.5.7c0 0 1 6.54-9.42 8.1" fill="#82b378"/><path d="M2909.08 1550.1c-1.52 31.47-58.66 80.95-101.78 96.47a458.7 458.7 0 01-38.8.51 18.12 18.12 0 01-3.35-3.2c-26.49-32.63-1.35-54.8 24.4-59.65 14.48-2.75 32-7.3 46.34-15.9 29.13-6.56 46.29-26.9 53.77-37.16 6.07-8.28 12.4-7.48 16.67-5.36 2.04 5.56 3.29 13.36 2.75 24.28" fill="#c66b28"/><path d="M2807.41 1609.33s-8.4 1.04-13 11.08a25.54 25.54 0 00-3.76-11.1s-5.54 4.38-5.54 13.5a24.78 24.78 0 00-17.52-2.1s3.82 10.51 19.05 10.8a40.83 40.83 0 002.7 6.25c.07.13 1.6-1.75 3-4.96 3.17-1.27 15.1-7.96 15.07-23.47M2858.32 1615.24c1.1-1.61 9.22-38.8 36.14-44.57 26.91-5.79 29.59 20.85 23.83 27.99-5.78 7.12-59.97 16.58-59.97 16.58" fill="#82b378"/><path d="M2926.03 1573.07l-294.04 73.04a6.84 6.84 0 01-8.25-4.98l-5.88-23.73a6.8 6.8 0 014.96-8.24l294.03-73.03a6.8 6.8 0 018.24 4.96l5.9 23.74a6.82 6.82 0 01-4.96 8.24" fill="#ffcf83"/><path d="M2667.17 1691.33l-21.35-85.94a1.88 1.88 0 011.36-2.28l6.05-1.5c1-.25 2.02.36 2.28 1.37l21.33 85.94a1.88 1.88 0 01-1.36 2.28l-6.04 1.5c-1 .25-2.02-.37-2.27-1.37M2925.39 1627.2l-21.34-85.95a1.88 1.88 0 011.36-2.28l6.04-1.5c.99-.24 2.01.37 2.28 1.37l21.34 85.94a1.88 1.88 0 01-1.37 2.28l-6.03 1.51a1.9 1.9 0 01-2.28-1.37" fill="#ffcf83"/><path d="M2939.1 1625.72l-294.02 73.04a6.81 6.81 0 01-8.24-4.96l-5.91-23.75a6.81 6.81 0 014.97-8.24l294.04-73.02a6.83 6.83 0 018.24 4.96l5.9 23.73a6.81 6.81 0 01-4.98 8.24" fill="#ffcf83"/><path d="M2628.57 1618.51a3.52 3.52 0 116.84-1.7 3.52 3.52 0 01-6.84 1.7M2632.8 1635.47a3.5 3.5 0 012.57-4.25 3.51 3.51 0 111.69 6.82 3.52 3.52 0 01-4.26-2.57M2641.61 1671a3.5 3.5 0 116.83-1.7 3.5 3.5 0 01-2.56 4.26c-1.9.47-3.8-.68-4.27-2.56M2645.83 1687.96a3.52 3.52 0 116.82-1.7 3.52 3.52 0 01-6.82 1.7M2907.54 1549.22a3.52 3.52 0 116.82-1.7 3.52 3.52 0 01-6.82 1.7M2911.76 1566.2a3.52 3.52 0 116.83-1.7 3.52 3.52 0 01-6.83 1.7M2920.56 1601.72a3.52 3.52 0 116.83-1.7 3.52 3.52 0 01-6.83 1.7M2924.78 1618.68a3.53 3.53 0 116.85-1.7 3.53 3.53 0 01-6.85 1.7" fill="#c18e4c"/><path d="M2472.43 1584.48s74.98 129.72 124.37 148.41c35.2 13.33 167.69-36.45 167.69-36.45s14.42-18.46 0-27.35c0 0-120.7 11.56-129.5 5.87-8.78-5.7-59.64-102.52-75.54-113.52-15.91-11-85.8-7.36-87.02 23.04" fill="#739af0"/><path d="M2518.3 1454.45c-42.48 44.79-92.95 65.87-112.75 47.1-19.78-18.75-1.37-70.27 41.11-115.06 42.49-44.77 92.96-65.87 112.74-47.1 19.78 18.77 1.38 70.27-41.1 115.06" fill="#ffcf83"/><path d="M2512.62 1373.18s-44.71-29.47-76.2-3.56c-31.51 25.9-2.46 82.3-2.46 82.3s37-6 59.35-31.45c22.37-25.45 19.31-47.29 19.31-47.29" fill="#edbd77"/><path d="M472.1 1626.3c-1.28 17.86 0 592.66 20.3 679.7h-71.08s2.53-622.64 0-632.76c-2.54-10.12 50.77-46.95 50.77-46.95" fill="#365da4"/><path d="M955.7 1381.24c60.11 86.84 45.34 260.35-148.87 282.4-194.21 22.07-116.22 104.1-287.59 149.25-89.9 23.68-194.37-1.8-273.35-31.38-8.94-147.84 25.45-315.38 147.05-487.18 91.62-129.44 187.45-220.65 284.14-280.88 138.7 10.83 271.35 37.6 318.67 63.39 105.05 57.21-100.17 217.57-40.06 304.4" fill="#f99746"/><path d="M3833.44 2306h-431.02c4.73-158.04 164.33-150.05 200.66-170.59 36.35-20.54-47.39-120.08 44.25-214.88 67.19-69.49 162.35-53.22 208.38-39.61 55.96 106.43 81.13 226.07-22.27 425.08" fill="#ed9f4a"/><path d="M1624.8 2240.03s13.6 12.6 10.95 21.56c-2.66 8.94-14.94 14.92-16.59 25.86-1.65 10.95-8.3 16.92-14.27 16.92h-28.46s-4.39-7.7 6.22-10.02c10.62-2.32 14.62-15.19 13.95-27.12-.65-11.95 1-27.87 1-27.87l22.56-5.3 4.64 5.97M1457.95 2274.39s3.32 26.53-2.66 29.52c-5.97 2.98-77.28 2-77.28 2s0-8.96 12.27-10.95c12.28-2 33.84-9.3 37.48-25.55 3.65-16.25 30.19 4.98 30.19 4.98" fill="#2c3a64"/><path d="M1393.44 1869.17s4.03 50.28 8.76 110.72c6.44 82.12 14.19 182.98 14.95 202.08 1.33 33.18 6.64 86.24 6.64 86.24s12.6 12.62 37.81 7.3c0 0 22.47-75.76 28.9-155.91l.29-3.96c5.97-81.6 15.25-253.43 15.25-253.43l-112.6 6.96" fill="#35488b"/><path d="M1393.44 1869.17s4.03 50.28 8.76 110.72l88.3 139.71.29-3.96c5.97-81.6 15.25-253.43 15.25-253.43l-112.6 6.96" fill="#2c3a64"/><path d="M1411.84 1875.15s72.64 182.1 120.41 267.68c47.76 85.58 62.7 109.46 62.7 109.46s27.36-10.94 29.85-18.41c0 0-18.27-165.21-50.25-205.5-18.08-22.74-39.31-91.05-40.31-114.93-.99-23.88-6.47-71.14-6.47-71.14l-115.93 32.84" fill="#35488b"/><path d="M1269.28 1849.95s-25.63 12.29-29.09 15.45c-3.45 3.16-11.96 18.67-11.3 19.83.64 1.17 1.92 1.53 4.24-.07 2.33-1.61 8.85-8.32 9.09-7.08.24 1.25-17.4 22.01-14.28 26.4 3.12 4.4 20.8 3.1 30.9-4.1 10.1-7.17 20.18-33.57 21.7-35.02 12.88-12.23-11.26-15.41-11.26-15.41" fill="#ffb27d"/><path d="M1268.13 1863.12c-7.12-6.19-7.31-7.76-7.31-7.76s45.46-78.6 49.4-86.16c3.94-7.56 28.3-125.61 28.3-125.61l84.23-24.42s-59.34 153.4-69.7 172.36c-17.12 31.32-73 77.44-73 77.44s-6.34-.98-11.92-5.85" fill="#e58638"/><path d="M1379.84 1588.45s-29.64 52.15-58.61 58.96c0 0 1.2-17.52 8.26-29.5a308.3 308.3 0 01-7.62-9.34c-7.3-9.34-10.76-15.06-10.76-15.06l9.83-26.44 6.67-17.94a85.51 85.51 0 0010.43 15.03c18.99 21.83 41.8 24.3 41.8 24.3" fill="#ffb27d"/><path d="M1338.04 1564.16s3.53 26.13-16.17 44.41c-7.3-9.34-10.76-15.06-10.76-15.06l9.83-26.44c10.54-3.22 17.1-2.91 17.1-2.91" fill="#ed975d"/><path d="M1303.3 1597.36s44.29-17.27 33.11-44.68-13-48.1-41.74-38.24c-28.75 9.87-29.94 22.55-28.44 32.61 1.5 10.06 25.26 54.1 37.07 50.31" fill="#ffb27d"/><path d="M1532.07 1856.07c-17.87 25.68-151.44 60-149.84 42.22.6-6.81 1.41-18.8-.03-35.06-.33-3.82-.81-7.86-1.41-12.11-3.4-23.37-11.46-53.4-29.44-88.17a353.53 353.53 0 00-4.2-7.9 269.78 269.78 0 01-18.52-41.61c-9.26-26.73-13-52.33-8.32-69.05l.07-.23c27.91-12.92 38.74-62.97 38.74-62.97s95.25 17.09 148.61 144.05c0 0 5.12 13.93 10.98 32.87 7.12 22.94 15.3 53.2 16.72 74.78.69 10.24-.15 18.55-3.36 23.18" fill="#ee9849"/><path d="M1342.76 1501.76c.32-.61 1.21-1.27 3.41-1.95 0 0-2.05-.69-4.45-.16-1.25-3.04-4.27-8.2-9.94-8.24 0 0 3.25.84 4.45 4.1-7.77-4.92-22.17-6.35-58.11 5.62-47.37 15.78-23.7 43.28-16.53 45.48 7.18 2.22 20.4-11.94 32.29-13.86 11.89-1.94 18.32 14.62 22.85 16 4.53 1.37 1.96-2.4 6.7-6.18 4.75-3.77 7.48 5.11 7.37 11.35-.1 6.23 9.15 12.13 9.15 12.13l5.42-9.94c5.44-9.96 3.96-46.11-1.22-52.6l-1.39-1.75" fill="#2b478b"/><path d="M1348.85 1508.28s-5.49-44.07-37.36-41.61c-31.87 2.44-45.4 18.89-47.47 43.36l84.83-1.75" fill="#edbd77"/><path d="M1347.84 1502.85h-.01c-1.16-.25-2.36-.5-3.6-.73-.46-.1-.92-.17-1.38-.25a193.5 193.5 0 00-39.13-2.51c-10.2.3-19.91 1.32-28.77 2.9-1.5.26-2.99.51-4.41.8-2 .42-3.94.85-5.79 1.3h-.01c-22.42 5.5-37.3 14.7-36.99 24.68.32 10.56 15.12 19.13 39.91 22.9l-.3-.87c-.58-1.79-.9-2.99-1.17-4.4v-.04l-.06-.28c-3.95-2.36-9.12-10.74-9.2-13.78-.12-3.53 2.75-6.9 7.75-9.81 6.8-3.93 17.53-7 30.17-8.37h.02c3.36-.39 6.86-.64 10.44-.75 3.46-.1 6.84-.1 10.1.07 14.06.6 25.98 3.4 32.91 7.46 0 0 .36 15.78.19 20.08l-.02.34c-.08 1.1-.18 2.2-.32 3.24-.02.4-.08.78-.13 1.17l-.05.44-.22 1.44-.02.12c20.58-5.56 33.98-14.35 33.69-23.84-.3-9.24-13.56-17-33.6-21.3" fill="#ffcf83"/><path d="M1535.43 1832.9c-114.94-34.69-133.22-171.71-133.22-171.71s65.44 50.01 116.5 96.92c7.12 22.94 15.3 53.2 16.72 74.78" fill="#e58638"/><path d="M1540.1 1921.88a47.98 47.98 0 0142.7-49.4 47.98 47.98 0 0152.24 39.2zm127.22 95.1l-11.53-107.53-16.64 1.79a52.03 52.03 0 00-71.02-39.24 52.13 52.13 0 00-32.16 50.32l-.77.08-15.84 1.7 11.55 107.54a21.7 21.7 0 0023.84 19.23l30.6-3.3 62.76-6.73a21.71 21.71 0 0019.21-23.85" fill="#c65447"/><path d="M1566.95 1837.39s-2.59 21.74-1.96 25.29c.62 3.55 4.76 14.1 5.78 14.16 1.03.07 4.16.19 4.08-1.99-.09-2.17-1.5-4.2-.58-3.85.9.36 1.17 8.57 5.3 8.36 4.15-.21 16.35-4.81 15.86-14.35-.5-9.53-13.5-26.98-13.8-28.57-2.63-13.43-14.68.95-14.68.95" fill="#ffb27d"/><path d="M1573.83 1841.05c-9.12 4.19-12.5-.08-12.5-.08s-53.12-88.69-58.72-95.82c-5.58-7.14-103.64-49.22-103.64-49.22s-39.9-15.25-41.49-39.45c-1.36-21.04 10.57-33.96 23.65-41.76a44.14 44.14 0 0149.64 3.21c32.16 24.98 95.92 75.23 106.19 88.84 22.84 30.34 48.15 125.39 48.15 125.39s-4.11 5.61-11.28 8.9" fill="#ee9849"/><path d="M1304.58 1577.5s.77 3.2-6.58 6.35c0 0-6.18 2.66-7.58-.58 0 0 4.67-5.18 14.16-5.78" fill="#fff"/><path d="M1819.39 2258.28l-14.64-4.75s-3.03-39.69 3.48-87.26c4.12-30.15 11.68-62.8 25.36-89.02 6.2-11.88 13.64-22.42 22.6-30.84 0 0 11.22-26.05 26.09-60.88 16.52-38.73 119.96-50.09 60.93 31.04-12.1 16.66-25.1 45.96-40.69 63.76-26.63 30.42-45.41 65.94-58.32 97.2-18.44 44.72-24.81 80.75-24.81 80.75" fill="#ffb27d"/><path d="M1786.08 2260.5c-4.44 7.18 5.15 14.22 16.99 20.86 11.84 6.63 6.93 7.3 22.08 18.57 15.14 11.27 24.08 10.03 26.4 8.38 2.06-1.46-4.12-8.42-10.63-16.04a555.5 555.5 0 01-2.44-2.9c-7.25-8.69-8.33-19.6-11.73-30.9-3.23-10.71 1.88-37.35 1.88-37.35l-20.22-16.05s-4.1 24.21-6.36 34.3c-1.33 5.92-6.18 10.9-10.12 14.55-2.13 2-4.29 4.04-5.85 6.57" fill="#ffb27d"/><path d="M1803.07 2281.36c11.84 6.63 6.93 7.3 22.08 18.57 15.14 11.27 24.08 10.03 26.4 8.38 2.06-1.46-4.12-8.42-10.63-16.04l-.19.08s-13.68-1.84-25.36-12.22c-9.53-8.45-16.9-20.32-23.44-26.21-2.13 2-4.29 4.04-5.85 6.57-4.44 7.19 5.15 14.23 16.99 20.87" fill="#1c468a"/><path d="M1920.65 1496.9s-35.68-4.35-53.61 28.85-16.5 81.29-33.88 103.98c-17.39 22.68 2.9 44.19 2.9 44.19l135.49 4.57s9.42-25.36 0-55.78c-9.42-30.43 36.6-121.22-50.9-125.82" fill="#2b478b"/><path d="M1957.7 1822.5c-23.66-75.63 23.98-74.66 21.51-112.51-2.46-37.86-31.77-78.55-31.77-78.55l-2.88-.28c-1-.1-1.87-.75-2.21-1.7-1.1-2.98-1.42-9.53-1.39-16.35.01-10.42.81-21.48.81-21.48l-35.14-6.96-2.1-.42c.07 17.68-3.28 30.98-6.89 38.4a11.8 11.8 0 01-8.99 6.5c-7.54 1.05-20.82 3.32-29.78 7.05-4.35 1.83-7.67 3.99-8.83 6.53-9.65 21.22-19.3 74.79-26.07 112.99-3.77 21.3-7.97 39.19-6.4 46.75.35 1.65 30.38 12.38 34.56-7.52 1.38-6.47 4.72-19.44 8.63-33.96l1.81-6.68c6.9 18.73 10.43 27.4 10.23 35.48-.27 11.52-8.07 21.86-24.39 58.46-9.01 20.22 133.46 51.51 109.3-25.74" fill="#ffb27d"/><path d="M1941.77 1591.63s-.8 11.06-.82 21.48c-19.67-.55-30.06-18.5-34.32-28.44l35.14 6.96" fill="#e8945b"/><path d="M1948.35 1601.5s-46.54.77-46.58-28.22c-.02-28.99-6.05-48.41 23.66-50.13 29.7-1.71 35.49 9.34 37.86 19.01 2.36 9.68-2.84 58.39-14.94 59.33M2013.28 2277.04l-14.93 3.68s-23.48-32.16-43-76.04c-12.38-27.79-23.14-59.52-25.31-89.03-.99-13.34-.2-26.24 2.99-38.1 0 0-4.19-28.06-9.9-65.51-6.33-41.63-14.54-94.84-20.98-133.97l3.88-1.16 63.53-37.15s29.2 66.55 21.73 166.6c-1.52 20.52 2.86 52.28-1.02 75.63-6.63 39.88-3.9 79.97 1.6 113.34 7.86 47.72 21.41 81.71 21.41 81.71" fill="#ffb27d"/><path d="M1961.9 1526.04c-7.18-8.7-12.6-6.8-15.66-4.19-24.95-13.84-41.84 6.7-41.84 6.7-3.1 20.8-18.1 32.72-18.1 32.72s8.27 4.4 28.03.21c23.44-4.97 29.88-31.4 30.82-34.83 2.85 2.55 8.44 8.1 10.16 13.52 2.3 7.39 3.36 22.58 7.78 22.07 0 0 9.6-23.12-1.18-36.2" fill="#2b478b"/><path d="M2008.15 2104.77c-56.2 32.11-204.11-19.01-203.96-21.97.78-15.72 15-110.3 31.69-200.59 10.25-55.52 37.59-76.25 33.21-79.74a.23.23 0 00-.06-.07c-16.84-11.96-9.56-32.48-8.46-39.83-5.17 1.4-21.86 4.55-40.97-6 7.87-38.46 19.08-92.42 30.32-113.78a8.8 8.8 0 012.76-2.92.94.94 0 01-.1-.12c10.51-7.68 32-10.03 32-10.03s11.6 28.37 15.14 32.8c22.93 28.65 64.12 15.72 58.52-2.13-2.03-6.5-12.44-26.95-13.7-29.23-.06-.1 2.91.28 2.91.28 6.91.9 11.8 1.61 15.32 2.21 6.92 1.18 8.64 2 10.35 3.34 6.07 6.05 13.96 21.12 14.59 48.01.24 10 10.65 120.4-23.04 118.48-.76-.04-.11 1.76 1.34 5.17 4.76 10.94 18.27 38.38 22.18 73.56a5766.38 5766.38 0 0119.96 222.56M1934.97 1584.39s.88 3.56 9.79 2.9c0 0 7.47-.54 7.19-4.48 0 0-7.28-2.72-16.98 1.58" fill="#fff"/><path d="M1986.13 2296.47c.02 8.44 11.87 9.37 25.43 8.78 13.56-.6 9.73 2.55 28.55 4.16 18.81 1.62 25.76-4.14 26.86-6.77.98-2.32-7.94-4.99-17.48-8.04l-3.6-1.17c-10.74-3.58-17.4-12.28-26.25-20.11-8.39-7.4-18.05-32.73-18.05-32.73l-25.66-3.02s9.27 22.75 12.66 32.52c1.98 5.75.48 12.52-.94 17.7-.76 2.81-1.53 5.7-1.52 8.68" fill="#ffb27d"/><path d="M2011.56 2305.25c13.56-.6 9.73 2.55 28.55 4.16 18.81 1.62 25.76-4.14 26.86-6.77.98-2.32-7.94-4.99-17.48-8.04l-.13.16s-12.59 5.64-27.99 2.97c-12.54-2.17-25.06-8.37-33.72-9.94-.76 2.81-1.53 5.7-1.52 8.68.02 8.44 11.87 9.37 25.43 8.78" fill="#1c468a"/><path d="M2008.15 2104.77c-56.2 32.11-204.11-19.01-203.96-21.97.78-15.72 15-110.3 31.69-200.59 10.25-55.52 37.59-76.25 33.21-79.74 1.04.84 16.9 13.62 45.95 11.88a476.05 476.05 0 0050.97-5.7c4.76 10.94 18.27 38.38 22.18 73.56a5766.38 5766.38 0 0119.96 222.56" fill="#f99746"/><path d="M1869.03 1802.4s46.01 19.2 95.64 1.08l2.52 7.79s-51.06 17.73-100.15-2.46l1.99-6.41" fill="#ed7d2b"/><path d="M1966.08 1820.57s-16.5-14.17-19.01-28.41c-1.48-8.3.66-12.27 4.41-13.45 2.24-.71 5.05-.44 8.03.46.58.18 1.17.39 1.78.62 8.64 3.32 4.34 38.69 4.79 40.78" fill="#e58638"/><path d="M1965.77 1767.6c-2.5-2.8-8.08 6.24-9.09 10.93l-.16-.02c-.28-4.9-2.55-37.56-12.56-42.34-10.68-5.08 4.21 25.86 12.27 42.3h-.04c-1.94-3.51-11.52-19.39-24.5-14.8 0 0-2.65 3.09 4.03 4.93 6.43 1.75 13.87 3.55 20.07 9.81-1.56-.17-3.04-.1-4.31.3 0 0 5.4 2.72 8.03.46-.76-.22-1.51-.41-2.24-.56 2.49-1.9 10.73-8.53 8.5-11.01" fill="#82b378"/><path d="M2072.35 1772.83s16.54-3.38 23.64-12.08c4.14-5.08 4.2-8.58 2.1-10.79-1.25-1.33-3.26-2.21-5.62-2.72a23 23 0 00-1.44-.27c-7.12-1.01-17.59 24.62-18.68 25.86" fill="#e58638"/><path d="M2092.6 1737.01c2.75-.96 3.1 7.3 2.03 10.86l.12.05c2.04-3.23 15.93-24.52 24.53-23.96 9.17.59-12.64 15.93-24.32 24.04l.03.01c2.64-1.65 15.14-8.78 22.21-.77 0 0 .63 3.1-4.6 1.83-5.01-1.24-10.75-2.84-17.33-.95a8.31 8.31 0 012.82 1.84s-4.69-.2-5.62-2.72c.6.13 1.18.28 1.73.47-.97-2.24-4.05-9.86-1.6-10.7" fill="#82b378"/><path d="M2030.97 1780.05s26.92-8.48 37.2-24.18c6.02-9.15 5.5-14.98 1.63-18.3-2.3-2-5.81-3.1-9.81-3.54-.8-.11-1.62-.15-2.46-.19-12-.47-24.94 43.95-26.56 46.21" fill="#e58638"/><path d="M2058.43 1717.01c4.41-2.06 6.44 11.58 5.25 17.7l.2.05c2.84-5.7 22.23-43.5 36.61-44.08 15.35-.61-18.22 28.68-36.24 44.19l.04.01c4.11-3.2 23.67-17.24 36.79-5.15 0 0 1.59 5.06-7.32 3.83-8.56-1.19-18.36-2.84-28.96 1.45 1.96.6 3.68 1.43 5 2.56 0 0-7.83.48-9.81-3.54 1.01.1 2 .26 2.94.46-1.98-3.54-8.44-15.65-4.5-17.48" fill="#82b378"/><path d="M1950.6 1821.92s.65-28.21-10.9-43.03c-6.71-8.64-12.4-10.01-16.78-7.42-2.64 1.53-4.83 4.49-6.53 8.14-.35.72-.66 1.47-.96 2.26-4.31 11.21 33.54 37.78 35.17 40.05" fill="#e58638"/><path d="M1899.77 1775.6c-.52-4.84 13.04-2.36 18.46.73l.1-.17c-4.48-4.53-34-35.08-29.9-48.88 4.37-14.72 21.26 26.5 30.13 48.56l.03-.04c-1.71-4.9-8.7-27.96 7-36.47 0 0 5.29.12 1.25 8.16-3.88 7.72-8.61 16.46-7.96 27.88a13.64 13.64 0 014.04-3.9s-2.08 7.56-6.53 8.14c.44-.93.9-1.81 1.4-2.64-4 .74-17.55 2.94-18.02-1.37" fill="#82b378"/><path d="M1979.6 1761.55s92.93-37 123.7 8.45c0 0 4.69 52.72-51.34 60.25-56.03 7.54-110.7-25.48-72.36-68.7" fill="#ffb64d"/><path d="M2158.37 1774.15c-8.16 27.38-69.13 58.57-110.46 62.9-15.4 1.6-28.07-.49-34.24-7.94a16.15 16.15 0 01-2.27-3.54c-16.24-34.45 10.65-48.53 34.37-47.24 13.35.74 29.76.51 44.24-3.96 11.26-3.42 21.35-9.44 27.91-19.52 15.03-23.06 33.36-17.98 33.36-17.98s1.13.3 2.67 1.34c.64.44 1.36 1.02 2.09 1.75 2.2 2.25 4.48 6.01 5.17 12.23.58 5.33-.01 12.46-2.84 21.96" fill="#e58638"/><path d="M2146.52 1739.47s3.96 4.84 8.64 4.56c0 0-1-1.07-.01-2.7.98-1.61 4.66-6.82 4.66-6.82s1.54-.94-3.24-.14c0 0-.53 5.98-10.05 5.1" fill="#82b378"/><path d="M2158.37 1774.15c-8.16 27.38-69.13 58.57-110.46 62.9a412.2 412.2 0 01-34.24-7.94 16.15 16.15 0 01-2.27-3.54c-16.24-34.45 10.65-48.53 34.37-47.24 13.35.74 29.76.51 44.24-3.96 27.06.54 46.55-13.66 55.35-21.06 7.13-5.99 12.55-3.91 15.85-1.12.58 5.33-.01 12.46-2.84 21.96" fill="#c66b28"/><path d="M2056.07 1804.3s-7.63-.9-13.84 6.94c.48-3.12.34-6.67-.9-10.59 0 0-5.84 2.66-7.81 10.68a22.49 22.49 0 00-14.96-5.62s1.08 10.08 14.43 13.61c.14 1.87.46 3.88 1.02 6.1.03.13 1.8-1.2 3.72-3.73 3.07-.42 15.02-3.74 18.34-17.38M2099.61 1820.5c1.32-1.17 16.5-32.14 41.44-31.4 24.95.73 21.54 24.75 14.92 29.78-6.61 5.03-56.36 1.63-56.36 1.63" fill="#82b378"/><path d="M2168.32 1798.04l-274.6.68a6.2 6.2 0 01-6.19-6.15l-.05-22.17a6.2 6.2 0 016.16-6.19l274.6-.67a6.18 6.18 0 016.18 6.15l.05 22.17a6.18 6.18 0 01-6.15 6.18" fill="#ffcf83"/><path d="M1914.9 1846.13l-.2-80.26c0-.94.77-1.71 1.7-1.71l5.64-.01c.93 0 1.7.76 1.7 1.7l.2 80.26c0 .94-.77 1.7-1.7 1.72l-5.63.01c-.94 0-1.7-.77-1.7-1.7M2156.04 1845.55l-.2-80.27c0-.95.77-1.7 1.7-1.7l5.63-.02a1.7 1.7 0 011.71 1.7l.2 80.26c0 .93-.76 1.7-1.7 1.7l-5.63.02a1.7 1.7 0 01-1.71-1.7" fill="#ffcf83"/><path d="M2168.43 1847.22l-274.6.68a6.17 6.17 0 01-6.16-6.15l-.07-22.17a6.2 6.2 0 016.15-6.2l274.6-.66a6.17 6.17 0 016.18 6.15l.05 22.17a6.17 6.17 0 01-6.15 6.18" fill="#ffcf83"/><path d="M1896.7 1773.7a3.2 3.2 0 113.2 3.19 3.2 3.2 0 01-3.2-3.2M1896.73 1789.55a3.19 3.19 0 116.38-.02 3.19 3.19 0 01-6.38.02M1896.83 1822.7a3.19 3.19 0 116.37-.02 3.19 3.19 0 01-6.37.03M1896.85 1838.56a3.2 3.2 0 016.39-.01 3.19 3.19 0 01-6.39.01M2157.19 1773.05a3.2 3.2 0 116.4 0 3.2 3.2 0 01-6.4 0M2157.23 1788.9a3.19 3.19 0 013.18-3.2 3.18 3.18 0 013.2 3.18 3.2 3.2 0 01-6.38.01M2157.3 1822.07a3.2 3.2 0 116.38 0 3.2 3.2 0 01-6.37 0M2157.35 1837.92a3.2 3.2 0 016.38-.03 3.19 3.19 0 01-6.38.03" fill="#c18e4c"/><path d="M1817.57 1802.47s64.31 29.45 129.03 37.29l2.07-11.39s-85.75-57.09-107.04-54.68c-21.28 2.4-24.06 28.78-24.06 28.78M1948.67 1828.37s8.3-1.26 10.01-2.48c1.72-1.21 5.16-4.44 12.13-6.38 6.96-1.94 11.58-4.64 10.39-2.47-1.19 2.17-10.87 9.68-8.9 10.08 1.98.39 21.54-3.59 22.33-1.7.78 1.9-16 13.75-21.72 14.34-5.74.59-26.31 0-26.31 0l2.07-11.39" fill="#ffb27d"/><path d="M1030.82 1873.81s20.47 6.31 17.03 33.04c-1.96 15.26-11.67 61.78-12.34 72.59-.67 10.83-6.42 57.81-10.7 64.97-4.29 7.15-16.23-1.01-15.18-10.54 1.05-9.54-7.73-46.31-5.55-62.34 2.19-16.02.42-44.28 3.22-63.84 2.8-19.56 15.52-36.78 23.52-33.88" fill="#ed985f"/><path d="M1092.13 2032.1l-46.02 255.42-15.93 1.05s-12.53-111.24-1.8-149.64c10.73-38.4-18.51-86.96-10.3-120.26 8.22-33.31 74.05 13.42 74.05 13.42" fill="#ed985f"/><path d="M1039.2 1890.97l40.17-6.53c1.91-6.52 2.46-15.5 2.49-23.43.02-9.84-.76-18.09-.76-18.09l-32.42-3.12-14.4-1.39c7.9 15.08 4.91 52.56 4.91 52.56" fill="#ffb27d"/><path d="M1038 1846.33s21.46 18.31 43.86 14.68c.02-9.84-.76-18.09-.76-18.09l-32.42-3.12-10.68 6.53" fill="#ed985f"/><path d="M1061.5 2095.01c8.13 22.63 15.43 45.67 11.77 64.58a128.18 128.18 0 00-2.07 17.25c-.3 5.4-.32 10.9-.1 16.41 1.8 44.54 18.75 89.92 21.37 96.7l.35.86 14.1-1.49 8.48-260.21s-66.82-33.83-70.41.29c-1.86 17.64 7.8 41.39 16.5 65.61" fill="#ffb27d"/><path d="M1023 2110.2s4.1.59 10.22 1.25c11.47 1.27 29.97 2.75 41.4.99 5.45-.83 8.5-9.83 9.94-21.9 3.18-26.8-1.57-68.71-5.9-70.57-6.29-2.69-61.93-.41-61.93-.41s-12.14 30.04 6.26 90.64" fill="#b84c42"/><path d="M1032.32 2111.45c11.47 1.27 29.97 2.75 41.4.99 5.45-.83 8.5-9.83 9.94-21.9l-30.5-49.93-22.9-8.97s-9.19 38.27 2.06 79.81" fill="#aa3e39"/><path d="M1117.42 2020.12s7.78 53.27 5.98 95.17c0 0-27.23 5.39-55.07 0 0 0-46.08-67.04-42.2-88.58 3.9-21.55 79.61-13.47 91.29-6.59" fill="#b84c42"/><path d="M1091.34 1836.48s-37.46 29.7-55.6 6.08c-18.13-23.61-35.17-35.68-12.03-55.64 23.15-19.96 34.77-14.56 42.74-8.15 7.97 6.4 34.16 49.38 24.89 57.71" fill="#ffb27d"/><path d="M997.12 1795.8s2.08-.68 4.47.04v-.04c-3.02-5.6-.76-14.27-.76-14.27-.75 4.76 3.53 10.35 3.53 10.35.25-17.61 43.83-28.52 47.86-29.64 4.03-1.12 3.52-7.83 3.52-7.83 8.31 1.68 17.13 12.31 16.88 22.66-.25 10.34-8.82 30.2-14.36 30.48-5.54.28-3.02 4.74.76 10.89 3.77 6.16-1.13 22.87-7.93 28.73-5.48 4.74-8.36.78-11.57-.96a9.64 9.64 0 00-2.53-.97c-12.7-2.84-25.93-15.39-32.5-31.41a42.97 42.97 0 01-2.97-15.94c-1.09-.62-3.18-1.8-4.4-2.09" fill="#2c3a64"/><path d="M1071.1 2193.25c1.8 44.54 18.75 89.92 21.37 96.7l10.52-.63c-1.35-1.8-22-94.72-31.87-96.07h-.01" fill="#ed985f"/><path d="M1028.02 2306.19h8.9c2.97-.42 5.17-1.18 8.23-1.52 4.64-.55 6.77 1.13 7.2 1.52l.08.08h37.79c.95-1.2.04-3.98-.86-6.03a5.18 5.18 0 00-3.53-2.85c-4.01-1.03-11.91-1.95-19.15-7.74-4.07-3.25-19.65-11.96-19.65-11.96l-.08-.01c-.34 0-1.98.44-9.06 5.73-3.67 2.74-9.91-3.85-9.91-3.85s-1.17.85-2.05 2.45c-.7 1.27-1.22 3-.81 5.14.56 3.01-1.26 8.6-2.7 12.38a77.53 77.53 0 01-1.63 3.92s-.43 1.9 7.23 2.74" fill="#2c3a64"/><path d="M1025.93 2282.01c2.12 1.32 6.6 3.94 9.58 4.28 4.01.47 11.52-8.6 11.52-8.6l-.08-.01c-.34 0-1.98.44-9.06 5.73-3.67 2.74-9.91-3.85-9.91-3.85s-1.17.85-2.05 2.45M1028.02 2306.19h8.9c2.97-.42 5.17-1.18 8.23-1.52 4.64-.55 6.77 1.13 7.2 1.52l.08.08h37.79c.95-1.2.04-3.98-.86-6.03-1.15-.9-1.47 3.92-2.1 4.7-.64.75-30.83.27-32.57-.85-1.75-1.12-6.98-3.09-14.27-1.54-6.34 1.34-15.7-2.1-18-3.02a77.53 77.53 0 01-1.63 3.92s-.43 1.9 7.23 2.74" fill="#2c3a64"/><path d="M1088.8 2306.19h8.9c2.98-.42 5.18-1.18 8.24-1.52 4.64-.55 6.78 1.13 7.2 1.52l.08.08h37.8c.94-1.2.03-3.98-.86-6.03a5.18 5.18 0 00-3.54-2.85c-4-1.03-11.9-1.95-19.14-7.74-4.07-3.25-19.66-11.96-19.66-11.96l-.08-.01c-.34 0-1.97.44-9.06 5.73-3.66 2.74-9.9-3.85-9.9-3.85s-1.18.85-2.06 2.45c-.7 1.27-1.21 3-.8 5.14.56 3.01-1.26 8.6-2.72 12.38a77.53 77.53 0 01-1.62 3.92s-.42 1.9 7.23 2.74" fill="#35488b"/><path d="M1086.72 2282.01c2.13 1.32 6.6 3.94 9.58 4.28 4.02.47 11.52-8.6 11.52-8.6l-.08-.01c-.34 0-1.97.44-9.06 5.73-3.66 2.74-9.9-3.85-9.9-3.85s-1.18.85-2.06 2.45M1088.8 2306.19h8.9c2.98-.42 5.18-1.18 8.24-1.52 4.64-.55 6.78 1.13 7.2 1.52l.08.08h37.8c.94-1.2.03-3.98-.86-6.03-1.15-.9-1.47 3.92-2.1 4.7-.64.75-30.83.27-32.58-.85-1.74-1.12-6.97-3.09-14.26-1.54-6.35 1.34-15.7-2.1-18.02-3.02a77.53 77.53 0 01-1.62 3.92s-.42 1.9 7.23 2.74" fill="#35488b"/><path d="M1015.66 2022.5s28.23 11.57 72.05 4.1c8-1.36 20.73-3.67 29.7-6.48l-9.84-101.43-1.73-47.74s-16.66-6.35-23.98-6.8c0 0-30.14 4.32-42.03 1.17 0 0-14.37 6.05-19.98 13.92-5.61 7.85-14.66 82.21-4.2 143.27" fill="#fff"/><path d="M1033.32 1869.59s-21.5 4.4-26.02 38.1c0 0 6.87-1.6 13.15 5.28 6.28 6.9 12.87-43.38 12.87-43.38" fill="#fff"/><path d="M1097.64 1907.77c2.78-.76 48.57 50.39 62 48.02 13.43-2.38 45.6-33.5 45.6-33.5l-4.78-9.32s-36.34 12-38.45 9.38c-2.1-2.64-44.9-43.56-48.79-42.59-3.88.97-15.58 28.01-15.58 28.01" fill="#ffb27d"/><path d="M1135.67 1897.33s-12.75 21.14-40.28 33.71c0 0-30-66.6-13.53-66.9 0 0 31.36.55 53.81 33.2" fill="#fff"/><path d="M1205.24 1922.3s16.3 1.97 18.91 0c2.6-2 11.96-14.53 8.7-15.43-3.26-.91-12.83 4.6-15.66 3.16-2.82-1.46-19.34 3.85-19.34 3.85l7.39 8.41" fill="#ffb27d"/><path d="M1205.36 1913.47s2.81-3.84 4.77-4.6c1.96-.76 4.89-4.14 5.43-3.59.55.55-.76 5.65-2.71 7.07-1.96 1.41-7.5 1.12-7.5 1.12" fill="#ffb27d"/><path d="M1219.64 1889.68s-2.8-9.56-14.43-6.95c-11.63 2.63-11.27 27.08 7.5 31.14 21.74 4.68 31.3-24.56 6.93-24.19" fill="#c65447"/><path d="M1230.42 1883.87s-9.28 2.34-11.62 6.56c0 0 4.83-4.36 9.89-4.83 0 0 1.83-.65 1.73-1.73" fill="#c65447"/><path d="M936.44 1209.9s-301.92 598.27-72.46 1096.2H631.5s-27.17-543.69 229.46-1072.03l75.48-24.16" fill="#365da4"/><path d="M831.16 1501.3s174.44 6.93 288.5-149.38l14.76 6.08s-102.8 171.15-324.07 186.85l20.8-43.54" fill="#365da4"/><path d="M998.56 1468.37c-6.03-106.54 41.33-187.3 41.7-188.04l7.17 3.68c-.37.72-36.66 72.84-30.76 177.08l-18.11 7.28M669.71 1480.44c-42.79-13.2-80.25-37.21-107.7-67.03 1.93-4.85 3.92-9.69 5.95-14.5 24.6 25.12 58.86 44.54 99.74 57.14 4.73 1.44 3.26 24.78 2.01 24.39" fill="#365da4"/><path d="M746 1682.36c-64.7-64.7-91.2-184.21-84.26-295.5 5.21-83.54 29.15-146.98 30.17-149.63l15.02 5.73c-.24.64-24.17 64.16-29.16 145.33-2.92 47.38 1.1 91.43 11.94 130.92 13.47 49.04 37.58 91.19 71.68 125.3l-15.4 37.85" fill="#365da4"/><path d="M1845.32 940.85c-.1 100.58-32.44 232.62-200.1 238.87-196.58 7.36-167.69 184.16-341.85 223.41-67.94 15.31-140.73 14.91-207.39 3.74a555.6 555.6 0 01-21.15-3.94 550.29 550.29 0 01-70.49-19.4c-48.03-16.92-88.2-39.54-114.3-65.05-7.93-7.73-14.54-15.72-19.7-23.9a97.4 97.4 0 00-25.27-26.98c-34.18-24.81-84.68-29.25-139.53-25.19-5.3.4-10.62.88-16 1.42-113.13 11.37-239.53 53.2-278.2 25.1 86.02-116.08 175.5-199.26 265.74-255.48 253.13-157.68 512.2-102.9 717.37 34.62 79.02 52.96 255.38 40.9 450.87-107.22" fill="#ffa766"/><path d="M424.75 1516.87s38.84 7.97 92.1-19.35c53.25-27.32 46.6-86.27 68.46-116.7 21.88-30.43-19.18-108.4-103.73-81.78-84.55 26.63-206.93 175.1-56.83 217.83" fill="#ffa766"/><path d="M2613.28 836.78l-645.7-5.07a1325.8 1325.8 0 0076.9-87.17c52.54-13.18 123.32-16.27 196.37 24.03 0 0 155.35-19.97 270.38 17.3 76.72 24.84 102.05 50.9 102.05 50.9M3650.13 727.88l-1000.62-7.01s68.6-86.59 232.62-76.96c0 0 238.18-144.3 492.12-19.25 0 0 88.74-10.19 202.17-8a764.02 764.02 0 0173.71 111.22M2880.19 930.2a52.56 52.56 0 1152.54 52.57 52.56 52.56 0 01-52.54-52.57M2177.8 1015.58s30.68-36.03 104.09-32.03c0 0 106.54-60.05 220.2-8 0 0 120.78-12.9 210.25 11.16 59.63 16.04 79.33 32.87 79.33 32.87l-613.88-4" fill="#f8fcff"/><path d="M1343.21 1182.52s-15.75-6.43-24.63 11.88c-8.87 18.3 24.15 43.87 49.53 23.12 29.4-24.03.54-67.92-24.9-35" fill="#c65447"/><path d="M1346.93 1161.95s-6.76 14.88-3.62 22.49c0 0-.67-11.08 4.09-18.33 0 0 1.07-3.14-.47-4.16" fill="#2c3a64"/><path d="M658.79 1124.35s-12.68-9.38-24.82 5.02c-12.15 14.42 11.64 44.9 39.16 32.08 31.89-14.85 16.02-60.85-14.34-37.1" fill="#c65447"/><path d="M666.83 1106.72s-9.46 11.81-8.4 19.37c0 0 1.93-10.1 7.87-15.53 0 0 1.67-2.57.53-3.84" fill="#2c3a64"/><path d="M1196.53 1298.17s-17.4-12.86-34.08 6.92c-16.69 19.79 16 61.66 53.79 44.06 43.8-20.4 22-83.58-19.7-50.98" fill="#c65447"/><path d="M1207.58 1273.99s-13 16.22-11.52 26.6c0 0 2.64-13.88 10.79-21.34 0 0 2.3-3.53.73-5.26" fill="#2c3a64"/><path d="M1226 2274.48s-12.2-3.37-17.17 10.92c-4.98 14.3 21.63 30.32 38.6 12.8 19.65-20.3-5.48-50.25-21.43-23.72" fill="#c65447"/><path d="M1226.97 2258.96s-3.7 11.57-.73 16.93c0 0-1.46-8.13 1.43-13.9 0 0 .52-2.4-.7-3.03" fill="#2c3a64"/><path d="M568.3 2275.16s-1.97-12.5-17.05-11.1c-15.07 1.4-18.6 32.27 4.38 40.43 26.63 9.46 43.44-25.84 12.68-29.33" fill="#c65447"/><path d="M582.84 2269.59s-12.08 1.44-15.72 6.37c0 0 6.8-4.7 13.25-4.47 0 0 2.41-.53 2.47-1.9" fill="#2c3a64"/><path d="M630.94 2273.04s-11.84-4.48-18.1 9.3c-6.24 13.8 18.8 32.17 37.28 16.26 21.42-18.44-.88-50.53-19.18-25.56" fill="#ee9849"/><path d="M633.31 2257.67s-4.73 11.2-2.26 16.8c0 0-.71-8.23 2.7-13.72 0 0 .73-2.35-.44-3.08" fill="#2c3a64"/><path d="M1150.97 1161.61s-10.22-7.54-20.01 4.07c-9.8 11.61 9.39 36.2 31.58 25.87 25.71-11.99 12.91-49.07-11.57-29.94" fill="#c65447"/><path d="M1157.45 1147.41s-7.62 9.52-6.76 15.62c0 0 1.55-8.15 6.34-12.52 0 0 1.35-2.07.42-3.1" fill="#2c3a64"/><path d="M1075.5 1002.16s-12.67-9.36-24.82 5.04c-12.14 14.41 11.65 44.9 39.16 32.08 31.9-14.85 16.02-60.85-14.34-37.12" fill="#c65447"/><path d="M1083.54 984.55s-9.46 11.81-8.39 19.37c0 0 1.93-10.1 7.86-15.53 0 0 1.68-2.58.53-3.84" fill="#2c3a64"/><path d="M917.8 1132.12s-12.14-5.83-20.03 8.21c-7.89 14.04 16.97 35.82 38.02 20.66 24.4-17.59 3.7-53.67-17.98-28.87" fill="#c65447"/><path d="M921.73 1116.04s-6.05 11.44-3.94 17.61c0 0 0-8.8 4.11-14.29 0 0 1-2.44-.17-3.32" fill="#2c3a64"/><path d="M879.89 978.55s-12.15-5.84-20.04 8.2c-7.89 14.04 16.97 35.82 38.02 20.65 24.4-17.57 3.7-53.65-17.98-28.85" fill="#c65447"/><path d="M883.81 962.47s-6.05 11.42-3.94 17.6c0 0 0-8.79 4.11-14.3 0 0 1-2.42-.17-3.3" fill="#2c3a64"/><path d="M778.4 2264.6s-1.98-12.5-17.05-11.1c-15.07 1.42-18.61 32.29 4.37 40.43 26.63 9.46 43.45-25.82 12.69-29.33" fill="#c65447"/><path d="M792.93 2259.04s-12.07 1.44-15.71 6.37c0 0 6.8-4.7 13.25-4.46 0 0 2.4-.54 2.46-1.91" fill="#2c3a64"/><path d="M817.09 2264.03s-11.68-4.91-18.41 8.65c-6.74 13.56 17.64 32.81 36.67 17.57 22.06-17.66.91-50.54-18.26-26.22" fill="#c65447"/><path d="M820 2248.75s-5.13 11.01-2.85 16.7c0 0-.42-8.25 3.17-13.61 0 0 .82-2.33-.31-3.1" fill="#2c3a64"/><path d="M854.92 2230.4s-11.67-4.9-18.41 8.65c-6.73 13.56 17.64 32.82 36.68 17.58 22.05-17.67.9-50.55-18.27-26.23" fill="#ee9849"/><path d="M857.84 2215.12s-5.13 11.01-2.86 16.7c0 0-.42-8.25 3.18-13.6 0 0 .81-2.33-.32-3.1" fill="#2c3a64"/><path d="M826.73 2197.17s-11.68-4.89-18.41 8.67c-6.74 13.55 17.64 32.81 36.67 17.56 22.06-17.67.91-50.53-18.26-26.23" fill="#c65447"/><path d="M829.65 2181.9s-5.14 11.02-2.86 16.71c0 0-.42-8.25 3.18-13.61 0 0 .81-2.33-.32-3.1" fill="#2c3a64"/><path d="M910.53 2219.5s-2.56-12.42-17.55-10.31c-14.99 2.09-17.11 33.09 6.21 40.18 27.04 8.23 42.23-27.78 11.34-29.88" fill="#ee9849"/><path d="M924.78 2213.27s-12 1.98-15.4 7.08c0 0 6.57-5.02 13.03-5.07 0 0 2.38-.64 2.37-2.01" fill="#2c3a64"/><path d="M972.54 2251.95s-2.55-12.4-17.54-10.31c-15 2.1-17.12 33.1 6.2 40.19 27.05 8.22 42.23-27.79 11.34-29.88" fill="#c65447"/><path d="M986.8 2245.72s-12 1.99-15.4 7.08c0 0 6.56-5 13.02-5.07 0 0 2.38-.64 2.38-2.01" fill="#2c3a64"/><path d="M915.75 2255s-11.21-5.88-19.08 7.04c-7.88 12.93 14.76 34.21 35.03 20.65 23.49-15.72 5.24-50.28-15.95-27.69" fill="#ee9849"/><path d="M920.95 2240.03s-6.06 10.53-4.28 16.4c0 0 .28-8.26 4.33-13.3 0 0 1.01-2.24-.05-3.1" fill="#2c3a64"/><path d="M793.47 2233.63s-11.67-4.9-18.4 8.65c-6.74 13.56 17.64 32.81 36.67 17.57 22.06-17.66.9-50.53-18.27-26.22" fill="#db5b52"/><path d="M796.4 2218.35s-5.14 11.02-2.86 16.7c0 0-.43-8.24 3.17-13.61 0 0 .82-2.32-.32-3.1" fill="#2c3a64"/><path d="M866.29 2266.2s-11.68-4.9-18.41 8.65c-6.74 13.56 17.64 32.82 36.67 17.58 22.06-17.67.91-50.55-18.26-26.23" fill="#c65447"/><path d="M869.2 2250.92s-5.13 11.01-2.85 16.7c0 0-.42-8.25 3.17-13.6 0 0 .82-2.33-.31-3.1" fill="#2c3a64"/><path d="M992.66 2256.55l-274.6.68a6.18 6.18 0 01-6.18-6.15l-.05-22.17a6.2 6.2 0 016.14-6.19l274.6-.67a6.18 6.18 0 016.18 6.15l.06 22.17a6.17 6.17 0 01-6.15 6.18" fill="#ffcf83"/><path d="M739.24 2304.64l-.2-80.27c0-.93.77-1.7 1.7-1.7l5.64-.02c.93 0 1.7.76 1.7 1.71l.2 80.27c0 .93-.76 1.7-1.7 1.7l-5.63.02c-.94 0-1.7-.76-1.7-1.71M980.38 2304.05l-.2-80.26c0-.94.77-1.71 1.7-1.71l5.64-.01a1.7 1.7 0 011.7 1.69l.2 80.27c0 .93-.76 1.7-1.7 1.7l-5.63.02a1.7 1.7 0 01-1.7-1.7" fill="#ffcf83"/><path d="M992.78 2305.72l-274.6.68a6.18 6.18 0 01-6.18-6.15l-.05-22.17a6.17 6.17 0 016.14-6.17l274.6-.68a6.18 6.18 0 016.19 6.14l.05 22.18a6.18 6.18 0 01-6.15 6.17" fill="#ffcf83"/><path d="M721.04 2232.2a3.2 3.2 0 113.2 3.19 3.2 3.2 0 01-3.2-3.19M721.08 2248.05c0-1.77 1.42-3.2 3.18-3.2a3.18 3.18 0 11.02 6.37 3.18 3.18 0 01-3.2-3.17M721.16 2281.23c0-1.78 1.42-3.2 3.18-3.2a3.19 3.19 0 11-3.18 3.2M721.2 2297.07a3.2 3.2 0 116.38-.02 3.2 3.2 0 01-6.38.02M981.53 2231.56a3.2 3.2 0 113.2 3.19 3.2 3.2 0 01-3.2-3.19M981.57 2247.41c0-1.77 1.42-3.2 3.18-3.2a3.18 3.18 0 11.02 6.37 3.18 3.18 0 01-3.2-3.17M981.65 2280.57a3.2 3.2 0 116.4 0 3.2 3.2 0 01-6.4 0M981.7 2296.43a3.19 3.19 0 116.37-.02 3.19 3.19 0 01-6.38.02" fill="#c18e4c"/><path d="M918.2 2287.32s-1.18-7.48-10.2-6.64c-9.02.84-11.14 19.32 2.61 24.2 15.95 5.65 26.01-15.47 7.6-17.56" fill="#c65447"/><path d="M926.9 2283.99s-7.22.86-9.4 3.81c0 0 4.06-2.81 7.93-2.67 0 0 1.44-.32 1.47-1.14" fill="#2c3a64"/><path d="M3486.16 2219.15a6.32 6.32 0 1112.65 0 6.32 6.32 0 01-12.65 0M3596.76 2249.7a6.32 6.32 0 1112.65 0 6.32 6.32 0 01-12.65 0M3653.38 2156.48a6.32 6.32 0 1112.64 0 6.32 6.32 0 01-12.64 0M3673.72 2183.23a6.32 6.32 0 1112.64 0 6.32 6.32 0 01-12.64 0M3714.47 2237.05a6.33 6.33 0 1112.65.01 6.33 6.33 0 01-12.65 0M3720.77 2087.46a6.33 6.33 0 1112.65 0 6.33 6.33 0 01-12.65 0M3792.68 2156.48a6.31 6.31 0 1112.62-.02 6.31 6.31 0 01-12.62.02M3805.31 2013.75a6.33 6.33 0 1112.66.02 6.33 6.33 0 01-12.66-.02M3773.72 2125.4a6.33 6.33 0 1112.66.02 6.33 6.33 0 01-12.66-.02M3673.72 1981.63a6.32 6.32 0 1112.64 0 6.32 6.32 0 01-12.64 0M3780.05 1927.83a6.3 6.3 0 1112.63 0 6.31 6.31 0 11-12.63 0M3780.05 1955.81a6.3 6.3 0 1112.65 0 6.3 6.3 0 01-12.65 0" fill="#c65447"/><path d="M2398.23 2306.4l-2.6-.67c1.04-4.64 3.65-98.02-25.65-152.48l2.36-1.26c29.7 55.17 26.9 150.57 25.9 154.41" fill="#97d389"/><path d="M2364.97 2103.23s-9.24 19.34-3.6 28c5.61 8.68 10.24-16.06 3.6-28M2359.22 2184.84s9.21-19.34 3.6-28c-5.62-8.67-10.25 16.07-3.6 28" fill="#ffcf83"/><path d="M2383.43 2109.15s-17.1 12.92-16.1 23.2c.99 10.28 16.5-9.55 16.1-23.2M2340.75 2178.93s17.1-12.92 16.1-23.2-16.49 9.55-16.1 23.2" fill="#ffcf83"/><path d="M2396.95 2123.05s-21.1 3.76-24.88 13.38c-3.78 9.6 19.02-1.02 24.88-13.38M2327.23 2165.88s21.1-3.76 24.87-13.37c3.77-9.61-19.02 1.01-24.87 13.37M2401.32 2156.97s-16.9-13.17-26.58-9.56c-9.66 3.61 13.48 13.47 26.58 9.56M2321.27 2140.61s18.92 10.08 27.82 4.86c8.91-5.23-15.58-10.96-27.82-4.86" fill="#ffcf83"/><path d="M2392 2171.7s-10.51-18.69-20.83-19.07c-10.32-.4 7.23 17.62 20.82 19.06M2328.58 2120.01s10.5 18.67 20.82 19.07c10.32.4-7.24-17.63-20.82-19.07" fill="#ffcf83"/><path d="M2378.17 2182.7s-1.39-21.38-10.5-26.2c-9.14-4.84-1.13 19.02 10.5 26.2M2343.38 2108.65s1.39 21.4 10.5 26.22c9.14 4.82 1.12-19.03-10.5-26.22M2402.4 2143.17s-20.03-7.65-28.2-1.36c-8.2 6.3 16.82 8.94 28.2 1.36" fill="#ffcf83"/><path d="M2347.17 2144.47a14.9 14.9 0 1129.83 0 14.92 14.92 0 11-29.83 0" fill="#365da4"/><path d="M2393.1 2220.4s-13-13.2-30.87-14.1c-17.92-.89-23.4 0-23.4 0s11 11.65 24.14 14.1c13.11 2.47 30.13 0 30.13 0M2390.43 2207.58c2.25-1.97 3.97-18.06 17.84-22.09 13.86-4.02 23.71-4.8 23.71-4.8s-12 20.9-20.77 24.04c-8.76 3.14-20.78 2.85-20.78 2.85M2468.36 2306.4l-3.08-.79c1.23-5.45 4.3-115.36-30.18-179.43l2.77-1.5c34.95 64.93 31.66 177.2 30.49 181.72" fill="#97d389"/><path d="M2429.2 2067.3s-10.85 22.76-4.24 32.96c6.6 10.2 12.06-18.9 4.24-32.96M2422.43 2163.35s10.86-22.76 4.24-32.96c-6.61-10.2-12.04 18.9-4.24 32.96" fill="#ffcf83"/><path d="M2450.92 2074.25s-20.1 15.22-18.95 27.32c1.18 12.1 19.42-11.24 18.95-27.32M2400.69 2156.4s20.12-15.21 18.95-27.3c-1.18-12.11-19.41 11.22-18.95 27.3" fill="#ffcf83"/><path d="M2466.82 2090.63s-24.82 4.42-29.28 15.74c-4.44 11.31 22.4-1.2 29.28-15.74M2384.78 2141.03s24.84-4.43 29.3-15.74c4.43-11.3-22.41 1.2-29.3 15.74M2471.97 2130.55s-19.9-15.5-31.29-11.26c-11.37 4.26 15.88 15.86 31.3 11.26M2377.78 2111.3s22.27 11.86 32.74 5.71c10.49-6.15-18.34-12.9-32.74-5.72" fill="#ffcf83"/><path d="M2461 2147.88s-12.37-21.99-24.5-22.45c-12.16-.47 8.5 20.74 24.5 22.45M2386.37 2087.05s12.37 21.98 24.51 22.44c12.15.47-8.52-20.74-24.51-22.44" fill="#ffcf83"/><path d="M2444.72 2160.83s-1.62-25.16-12.36-30.84c-10.75-5.68-1.3 22.38 12.36 30.84M2403.8 2073.68s1.62 25.16 12.37 30.85c10.75 5.68 1.3-22.4-12.37-30.85M2473.25 2114.3s-23.56-9-33.2-1.6c-9.63 7.42 19.82 10.53 33.2 1.6" fill="#ffcf83"/><path d="M2408.26 2115.82a17.55 17.55 0 1135.1 0 17.55 17.55 0 01-35.1 0" fill="#365da4"/><path d="M2467.23 2249.52s-15.27-15.55-36.32-16.6c-21.07-1.05-27.55 0-27.55 0s12.95 13.7 28.4 16.6c15.46 2.9 35.47 0 35.47 0M2464.06 2234.44c2.67-2.32 4.67-21.27 21-26 16.33-4.75 27.92-5.65 27.92-5.65s-14.15 24.61-24.47 28.3c-10.3 3.68-24.45 3.35-24.45 3.35M2383.77 2306.4l-1.84-.47c.73-3.28 2.57-69.22-18.11-107.66l1.65-.91c20.98 38.96 19 106.33 18.3 109.04" fill="#97d389"/><path d="M2360.27 2162.93s-6.51 13.67-2.55 19.8c3.97 6.11 7.24-11.36 2.55-19.8M2356.2 2220.56s6.52-13.65 2.56-19.77c-3.97-6.12-7.25 11.34-2.55 19.77" fill="#ffcf83"/><path d="M2373.3 2167.1s-12.06 9.14-11.35 16.4c.68 7.26 11.63-6.74 11.36-16.4M2343.18 2216.4s12.06-9.13 11.35-16.39c-.69-7.26-11.63 6.74-11.35 16.39" fill="#ffcf83"/><path d="M2382.86 2176.93s-14.9 2.65-17.57 9.44c-2.67 6.79 13.44-.72 17.57-9.44M2333.62 2207.17s14.9-2.65 17.56-9.44c2.67-6.78-13.42.72-17.56 9.44M2385.93 2200.88s-11.93-9.3-18.77-6.75c-6.83 2.56 9.53 9.52 18.77 6.75M2329.4 2189.34s13.36 7.12 19.65 3.42c6.3-3.7-11.01-7.73-19.65-3.42" fill="#ffcf83"/><path d="M2379.37 2211.28s-7.43-13.19-14.7-13.47c-7.3-.28 5.09 12.46 14.7 13.47M2334.56 2174.79s7.43 13.18 14.72 13.46c7.29.29-5.12-12.45-14.72-13.46" fill="#ffcf83"/><path d="M2369.59 2219.05s-.98-15.09-7.42-18.5c-6.45-3.42-.78 13.42 7.42 18.5M2345.05 2166.76s.97 15.1 7.41 18.5c6.45 3.42.78-13.42-7.41-18.5M2386.71 2191.15s-14.14-5.4-19.91-.96c-5.8 4.44 11.87 6.3 19.91.96" fill="#ffcf83"/><path d="M2347.7 2192.05a10.54 10.54 0 1121.1.02 10.54 10.54 0 01-21.1-.02" fill="#365da4"/><path d="M2383.1 2272.26s-9.16-9.32-21.8-9.95c-12.64-.63-16.53 0-16.53 0s7.78 8.22 17.06 9.95c9.26 1.74 21.27 0 21.27 0M2381.21 2263.23c1.6-1.4 2.8-12.76 12.6-15.62 9.78-2.84 16.74-3.38 16.74-3.38s-8.49 14.77-14.68 16.98c-6.18 2.2-14.66 2.02-14.66 2.02M2281.76 2306.4l-3.06-.79c1.22-5.45 4.28-115.36-30.2-179.44l2.78-1.5c34.94 64.94 31.65 177.2 30.48 181.73" fill="#97d389"/><path d="M2242.59 2067.3s-10.86 22.77-4.24 32.97c6.61 10.2 12.05-18.91 4.24-32.96M2235.84 2163.35s10.84-22.76 4.23-32.96c-6.62-10.2-12.06 18.9-4.23 32.96" fill="#ffcf83"/><path d="M2264.31 2074.25s-20.11 15.22-18.93 27.32c1.16 12.1 19.4-11.24 18.93-27.32M2214.1 2156.4s20.1-15.21 18.94-27.3c-1.16-12.12-19.4 11.22-18.94 27.3" fill="#ffcf83"/><path d="M2280.22 2090.63s-24.83 4.43-29.28 15.75c-4.44 11.3 22.4-1.2 29.28-15.75M2198.18 2141.03s24.84-4.43 29.29-15.74c4.43-11.3-22.4 1.2-29.29 15.74M2285.37 2130.55s-19.9-15.5-31.28-11.26c-11.39 4.26 15.87 15.86 31.28 11.26M2191.18 2111.3s22.25 11.86 32.74 5.71c10.48-6.14-18.34-12.9-32.74-5.72" fill="#ffcf83"/><path d="M2274.4 2147.88s-12.37-21.98-24.5-22.45c-12.16-.47 8.5 20.75 24.5 22.45M2199.78 2087.05s12.35 21.98 24.5 22.44c12.15.47-8.52-20.74-24.5-22.44" fill="#ffcf83"/><path d="M2258.12 2160.83s-1.63-25.16-12.36-30.84c-10.75-5.68-1.32 22.38 12.36 30.84M2217.2 2073.68s1.62 25.16 12.37 30.85c10.75 5.68 1.3-22.4-12.37-30.85M2286.63 2114.31s-23.55-9-33.2-1.6c-9.63 7.41 19.82 10.52 33.2 1.6" fill="#ffcf83"/><path d="M2221.66 2115.82a17.55 17.55 0 1135.1.02 17.55 17.55 0 01-35.1-.02" fill="#365da4"/><path d="M2275.7 2205.19s-15.26-15.53-36.33-16.59c-21.07-1.05-27.55 0-27.55 0s12.96 13.7 28.42 16.59c15.45 2.9 35.46 0 35.46 0M2272.54 2190.12c2.66-2.33 4.68-21.27 21-26.01 16.31-4.73 27.9-5.64 27.9-5.64s-14.14 24.6-24.45 28.3c-10.3 3.67-24.45 3.35-24.45 3.35" fill="#97d389"/><path d="M2338.27 2306.4l-3.06-.85c1.22-5.91 4.28-124.8-30.2-194.14l2.77-1.61c34.94 70.25 31.67 191.7 30.49 196.6" fill="#97d389"/><path d="M2299.1 2047.72s-10.85 24.62-4.24 35.66c6.62 11.04 12.07-20.45 4.24-35.66M2292.34 2151.63s10.85-24.63 4.24-35.66c-6.62-11.04-12.07 20.46-4.24 35.66" fill="#ffcf83"/><path d="M2320.82 2055.24s-20.12 16.47-18.94 29.55c1.17 13.09 19.41-12.15 18.94-29.55M2270.6 2144.1s20.12-16.45 18.95-29.54c-1.17-13.08-19.4 12.16-18.95 29.55" fill="#ffcf83"/><path d="M2336.72 2072.96s-24.83 4.79-29.27 17.03c-4.44 12.24 22.4-1.3 29.27-17.03M2254.69 2127.48s24.83-4.79 29.28-17.03c4.44-12.22-22.4 1.31-29.28 17.03M2341.88 2116.15s-19.9-16.78-31.28-12.18c-11.4 4.6 15.86 17.15 31.28 12.18M2247.68 2095.3s22.28 12.85 32.75 6.2c10.48-6.66-18.35-13.95-32.75-6.2" fill="#ffcf83"/><path d="M2330.9 2134.9s-12.36-23.8-24.51-24.3c-12.14-.5 8.52 22.46 24.51 24.3M2256.27 2069.08s12.37 23.79 24.52 24.3c12.14.49-8.52-22.46-24.52-24.3" fill="#ffcf83"/><path d="M2314.62 2148.9s-1.63-27.22-12.35-33.37c-10.75-6.14-1.32 24.23 12.35 33.38M2273.7 2054.61s1.63 27.23 12.37 33.38c10.75 6.16 1.31-24.22-12.37-33.38M2343.16 2098.57s-23.56-9.73-33.2-1.73c-9.63 8.01 19.81 11.37 33.2 1.73" fill="#ffcf83"/><path d="M2278.16 2100.23c0-10.5 7.87-19 17.56-19 9.7 0 17.55 8.5 17.55 19 0 10.47-7.84 18.98-17.55 18.98-9.7 0-17.56-8.5-17.56-18.98" fill="#365da4"/><path d="M2337.14 2244.85s-15.27-16.81-36.34-17.94c-21.06-1.15-27.54 0-27.54 0s12.96 14.8 28.4 17.94c15.46 3.14 35.48 0 35.48 0M2333.99 2228.55c2.66-2.52 4.66-23.02 20.99-28.14 16.31-5.13 27.9-6.12 27.9-6.12s-14.15 26.63-24.45 30.62c-10.3 3.98-24.44 3.64-24.44 3.64M2264.71 2306.4l-2.15-.56c.86-3.85 3.02-81.45-21.33-126.7l1.97-1.06c24.67 45.85 22.35 125.13 21.51 128.32" fill="#97d389"/><path d="M2237.06 2137.58s-7.66 16.06-3 23.28c4.66 7.2 8.52-13.36 3-23.28M2232.3 2205.39s7.65-16.07 2.97-23.28c-4.65-7.2-8.5 13.36-2.98 23.28" fill="#ffcf83"/><path d="M2252.42 2142.48s-14.21 10.75-13.38 19.28c.83 8.55 13.7-7.93 13.38-19.28M2216.95 2200.48s14.2-10.75 13.37-19.28c-.83-8.55-13.71 7.93-13.37 19.28" fill="#ffcf83"/><path d="M2263.64 2154.04s-17.54 3.14-20.67 11.12c-3.15 7.99 15.82-.85 20.67-11.12M2205.71 2189.63s17.53-3.12 20.67-11.1c3.13-8-15.81.83-20.67 11.1M2267.29 2182.23s-14.05-10.95-22.1-7.95c-8.02 3 11.2 11.2 22.1 7.95M2200.76 2168.63s15.72 8.37 23.12 4.04c7.42-4.35-12.94-9.11-23.12-4.04" fill="#ffcf83"/><path d="M2259.53 2194.47s-8.74-15.52-17.3-15.86c-8.58-.33 6 14.66 17.3 15.86M2206.84 2151.5s8.73 15.52 17.3 15.86c8.59.33-6.01-14.66-17.3-15.86" fill="#ffcf83"/><path d="M2248.03 2203.62s-1.14-17.78-8.73-21.8c-7.58-4-.94 15.82 8.73 21.8M2219.15 2142.07s1.15 17.77 8.73 21.78c7.59 4.02.92-15.81-8.73-21.78M2268.18 2170.76s-16.63-6.36-23.45-1.13c-6.79 5.24 14 7.42 23.45 1.13" fill="#ffcf83"/><path d="M2222.27 2171.84a12.4 12.4 0 1124.8 0 12.4 12.4 0 01-24.8 0" fill="#365da4"/><path d="M2263.94 2266.23s-10.8-10.96-25.67-11.71c-14.87-.75-19.44 0-19.44 0s9.15 9.67 20.05 11.7c10.92 2.06 25.06 0 25.06 0M2261.7 2255.59c1.88-1.65 3.3-15.02 14.83-18.36 11.53-3.35 19.7-4 19.7-4s-9.98 17.38-17.27 19.98c-7.26 2.6-17.25 2.38-17.25 2.38M2185.67 2306.4l-1.56-.4c.63-2.77 2.19-58.65-15.34-91.23l1.41-.76c17.76 33.02 16.1 90.1 15.49 92.4" fill="#97d389"/><path d="M2165.77 2184.84s-5.52 11.57-2.16 16.76c3.36 5.19 6.14-9.61 2.16-16.76M2162.33 2233.67s5.52-11.58 2.16-16.75c-3.36-5.19-6.13 9.61-2.16 16.75" fill="#ffcf83"/><path d="M2176.82 2188.39s-10.24 7.72-9.64 13.88c.6 6.14 9.87-5.71 9.64-13.88M2151.28 2230.13s10.23-7.73 9.64-13.88c-.6-6.14-9.88 5.71-9.64 13.88" fill="#ffcf83"/><path d="M2184.92 2196.7s-12.63 2.26-14.88 8c-2.27 5.75 11.38-.6 14.88-8M2143.2 2222.32s12.61-2.24 14.88-8c2.27-5.75-11.39.61-14.88 8M2187.53 2217s-10.11-7.9-15.9-5.72c-5.8 2.16 8.06 8.05 15.9 5.72M2139.63 2207.21s11.32 6.03 16.65 2.9c5.33-3.12-9.33-6.55-16.65-2.9" fill="#ffcf83"/><path d="M2181.94 2225.8s-6.3-11.17-12.46-11.41c-6.17-.23 4.32 10.56 12.46 11.41M2144 2194.88s6.3 11.17 12.47 11.41c6.17.24-4.34-10.54-12.47-11.41" fill="#ffcf83"/><path d="M2173.66 2232.39s-.83-12.79-6.28-15.68c-5.47-2.88-.67 11.38 6.28 15.68M2152.87 2188.08s.82 12.8 6.28 15.7c5.46 2.87.66-11.4-6.28-15.7M2188.18 2208.73s-12-4.57-16.88-.8c-4.91 3.76 10.06 5.35 16.88.8" fill="#ffcf83"/><path d="M2155.12 2209.52a8.93 8.93 0 1117.87 0 8.93 8.93 0 01-17.87 0" fill="#365da4"/><path d="M2182.61 2254.95s-7.78-7.9-18.48-8.44c-10.7-.54-14 0-14 0s6.59 6.97 14.45 8.44c7.86 1.46 18.03 0 18.03 0M2181 2247.28c1.36-1.17 2.38-10.81 10.69-13.21 8.3-2.42 14.18-2.88 14.18-2.88s-7.19 12.52-12.43 14.38c-5.23 1.88-12.43 1.71-12.43 1.71M2227.61 2306.4l-1.82-.47c.73-3.26 2.56-69.02-18.07-107.35l1.67-.9c20.9 38.84 18.94 106.01 18.22 108.72" fill="#97d389"/><path d="M2204.21 2163.34s-6.5 13.63-2.53 19.73c3.94 6.1 7.2-11.31 2.53-19.73M2200.15 2220.81s6.5-13.63 2.55-19.72c-3.96-6.1-7.2 11.3-2.55 19.72" fill="#ffcf83"/><path d="M2217.19 2167.5s-12.03 9.11-11.33 16.35c.7 7.23 11.61-6.72 11.33-16.34M2187.16 2216.65s12.04-9.1 11.33-16.33c-.7-7.24-11.61 6.72-11.33 16.33" fill="#ffcf83"/><path d="M2226.71 2177.31s-14.85 2.65-17.53 9.41c-2.65 6.77 13.4-.72 17.53-9.41M2177.63 2207.45s14.85-2.64 17.5-9.4c2.68-6.77-13.4.71-17.5 9.4M2229.8 2201.19s-11.9-9.28-18.72-6.74c-6.81 2.55 9.5 9.5 18.72 6.74M2173.44 2189.67s13.32 7.09 19.6 3.42c6.26-3.68-11-7.72-19.6-3.42" fill="#ffcf83"/><path d="M2223.23 2211.56s-7.4-13.16-14.66-13.44c-7.27-.28 5.09 12.41 14.66 13.44M2178.58 2175.16s7.38 13.15 14.66 13.43c7.26.28-5.1-12.41-14.66-13.43" fill="#ffcf83"/><path d="M2213.5 2219.3s-.98-15.05-7.4-18.45c-6.43-3.4-.8 13.39 7.4 18.46M2189.02 2167.16s.97 15.07 7.4 18.45c6.43 3.4.8-13.39-7.4-18.45M2230.56 2191.47s-14.1-5.38-19.87-.95c-5.76 4.43 11.85 6.28 19.87.95" fill="#ffcf83"/><path d="M2191.66 2192.39a10.51 10.51 0 0121.01 0 10.5 10.5 0 01-21.01 0" fill="#365da4"/><path d="M2226.95 2272.36s-9.14-9.3-21.75-9.92c-12.6-.62-16.48 0-16.48 0s7.76 8.19 17.01 9.92c9.25 1.74 21.22 0 21.22 0M2225.07 2263.35c1.6-1.39 2.8-12.72 12.56-15.56 9.77-2.84 16.7-3.39 16.7-3.39s-8.46 14.73-14.63 16.93c-6.17 2.22-14.63 2.02-14.63 2.02M2177.03 2306.4l-1.1-.28c.43-1.96 1.54-41.41-10.85-64.42l1-.54c12.56 23.32 11.37 63.61 10.95 65.24" fill="#97d389"/><path d="M2162.96 2220.56s-3.9 8.17-1.52 11.84c2.37 3.67 4.33-6.79 1.52-11.84M2160.53 2255.04s3.9-8.17 1.52-11.83c-2.37-3.66-4.32 6.79-1.52 11.83" fill="#ffcf83"/><path d="M2170.76 2223.07s-7.21 5.45-6.8 9.8c.43 4.34 6.97-4.03 6.8-9.8M2152.73 2252.55s7.23-5.46 6.8-9.8c-.42-4.35-6.97 4.02-6.8 9.8" fill="#ffcf83"/><path d="M2176.48 2228.94s-8.91 1.6-10.52 5.65c-1.59 4.06 8.04-.43 10.52-5.65M2147.03 2247.03s8.9-1.59 10.5-5.64c1.6-4.07-8.04.42-10.5 5.64M2178.31 2243.27s-7.14-5.56-11.23-4.04c-4.07 1.53 5.7 5.7 11.23 4.04M2144.5 2236.36s8 4.25 11.77 2.05c3.76-2.21-6.59-4.64-11.76-2.05" fill="#ffcf83"/><path d="M2174.38 2249.5s-4.45-7.9-8.8-8.07c-4.37-.16 3.05 7.45 8.8 8.07M2147.59 2227.65s4.44 7.9 8.8 8.06c4.36.17-3.06-7.44-8.8-8.06" fill="#ffcf83"/><path d="M2168.55 2254.15s-.59-9.04-4.44-11.08c-3.87-2.04-.48 8.04 4.44 11.08M2153.85 2222.85s.59 9.04 4.44 11.08c3.86 2.04.47-8.04-4.44-11.08M2178.77 2237.44s-8.45-3.23-11.91-.57c-3.47 2.65 7.1 3.77 11.9.57" fill="#ffcf83"/><path d="M2155.45 2237.99a6.3 6.3 0 1112.6-.02 6.3 6.3 0 01-12.6.02" fill="#365da4"/><path d="M2176.62 2285.97s-5.48-5.57-13.05-5.94c-7.56-.39-9.87 0-9.87 0s4.63 4.9 10.19 5.94c5.55 1.04 12.73 0 12.73 0M2175.49 2280.56c.95-.83 1.68-7.63 7.55-9.33 5.85-1.7 10-2.03 10-2.03s-5.08 8.84-8.77 10.16c-3.71 1.32-8.78 1.2-8.78 1.2M2115.99 2306.4l-1.83-.47c.73-3.26 2.56-69.02-18.07-107.36l1.67-.89c20.9 38.84 18.93 106.01 18.23 108.72" fill="#97d389"/><path d="M2092.56 2163.35s-6.5 13.62-2.55 19.72c3.96 6.1 7.23-11.31 2.55-19.72M2088.5 2220.81s6.5-13.62 2.54-19.72c-3.95-6.1-7.21 11.31-2.53 19.72" fill="#ffcf83"/><path d="M2105.56 2167.5s-12.04 9.11-11.33 16.35c.69 7.23 11.61-6.72 11.33-16.34M2075.5 2216.65s12.05-9.09 11.34-16.33c-.7-7.24-11.61 6.72-11.33 16.33" fill="#ffcf83"/><path d="M2115.08 2177.3s-14.87 2.66-17.52 9.42c-2.67 6.77 13.4-.72 17.52-9.41M2065.99 2207.45s14.85-2.64 17.52-9.41c2.66-6.76-13.4.72-17.52 9.41M2118.15 2201.19s-11.9-9.28-18.71-6.74c-6.81 2.55 9.5 9.5 18.7 6.74M2061.8 2189.67s13.3 7.09 19.59 3.42c6.26-3.68-10.98-7.72-19.59-3.42" fill="#ffcf83"/><path d="M2111.59 2211.56s-7.4-13.16-14.67-13.44c-7.27-.28 5.1 12.41 14.67 13.44M2066.93 2175.16s7.4 13.15 14.67 13.43c7.27.28-5.1-12.42-14.67-13.43" fill="#ffcf83"/><path d="M2101.85 2219.3s-.97-15.05-7.4-18.45c-6.42-3.4-.78 13.39 7.4 18.46M2077.37 2167.16s.96 15.07 7.4 18.45c6.43 3.4.78-13.38-7.4-18.45M2118.92 2191.47s-14.1-5.38-19.87-.95c-5.77 4.43 11.86 6.28 19.87.95" fill="#ffcf83"/><path d="M2080.03 2192.39a10.51 10.51 0 1121.02 0 10.51 10.51 0 01-21.02 0" fill="#365da4"/><path d="M2112.37 2245.85s-9.13-9.3-21.74-9.93c-12.6-.63-16.47 0-16.47 0s7.75 8.2 17 9.93c9.24 1.74 21.21 0 21.21 0M2110.48 2236.83c1.6-1.39 2.8-12.72 12.56-15.56 9.77-2.83 16.7-3.38 16.7-3.38s-8.46 14.72-14.63 16.92c-6.16 2.22-14.63 2.02-14.63 2.02" fill="#97d389"/><path d="M2149.8 2306.4l-1.84-.5c.75-3.54 2.57-74.69-18.05-116.17l1.65-.96c20.9 42.03 18.95 114.71 18.24 117.63" fill="#97d389"/><path d="M2126.36 2151.63s-6.5 14.74-2.53 21.34c3.96 6.6 7.21-12.24 2.53-21.34M2122.32 2213.8s6.5-14.73 2.53-21.33c-3.96-6.6-7.21 12.24-2.53 21.33" fill="#ffcf83"/><path d="M2139.37 2156.13s-12.04 9.84-11.34 17.68c.7 7.83 11.62-7.26 11.34-17.68M2109.3 2209.3s12.05-9.85 11.35-17.67c-.7-7.83-11.62 7.26-11.34 17.68" fill="#ffcf83"/><path d="M2148.88 2166.73s-14.85 2.87-17.52 10.19c-2.65 7.32 13.4-.77 17.52-10.19M2099.8 2199.36s14.85-2.87 17.52-10.19c2.65-7.33-13.4.78-17.52 10.19M2151.96 2192.57s-11.9-10.04-18.7-7.29c-6.82 2.76 9.47 10.27 18.7 7.3M2095.6 2180.1s13.32 7.69 19.6 3.7c6.27-3.97-10.99-8.35-19.6-3.7" fill="#ffcf83"/><path d="M2145.4 2203.79s-7.4-14.23-14.67-14.54c-7.26-.3 5.1 13.43 14.67 14.54M2100.75 2164.41s7.4 14.23 14.66 14.54c7.27.29-5.09-13.44-14.66-14.54" fill="#ffcf83"/><path d="M2135.65 2212.17s-.97-16.29-7.4-19.97c-6.42-3.68-.77 14.5 7.4 19.97M2111.17 2155.76s.98 16.3 7.4 19.96c6.43 3.68.79-14.48-7.4-19.96M2152.72 2182.05s-14.1-5.82-19.85-1.02c-5.78 4.78 11.85 6.8 19.85 1.02" fill="#ffcf83"/><path d="M2113.84 2183.04c0-6.27 4.7-11.36 10.5-11.36s10.5 5.1 10.5 11.36c0 6.28-4.7 11.36-10.5 11.36s-10.5-5.08-10.5-11.36" fill="#365da4"/><path d="M2149.12 2269.57s-9.13-10.05-21.73-10.73c-12.62-.68-16.48 0-16.48 0s7.74 8.87 17 10.73c9.24 1.88 21.21 0 21.21 0M2147.22 2259.81c1.6-1.49 2.8-13.75 12.57-16.82 9.76-3.07 16.7-3.66 16.7-3.66s-8.47 15.93-14.63 18.31c-6.18 2.39-14.64 2.17-14.64 2.17M2105.8 2306.4l-1.3-.33c.53-2.31 1.82-48.74-12.75-75.8l1.17-.64c14.76 27.42 13.37 74.86 12.88 76.77" fill="#97d389"/><path d="M2089.25 2205.39s-4.58 9.61-1.78 13.93c2.78 4.3 5.09-7.99 1.78-13.93M2086.4 2245.96s4.57-9.61 1.79-13.92c-2.79-4.3-5.1 7.99-1.79 13.92" fill="#ffcf83"/><path d="M2098.44 2208.33s-8.5 6.42-8.01 11.54c.49 5.1 8.2-4.75 8.01-11.54M2077.21 2243.03s8.5-6.43 8-11.54c-.49-5.1-8.2 4.75-8 11.54" fill="#ffcf83"/><path d="M2105.16 2215.24s-10.5 1.87-12.37 6.65c-1.88 4.78 9.46-.5 12.37-6.65M2070.5 2236.53s10.49-1.86 12.37-6.64c1.88-4.78-9.47.5-12.38 6.64M2107.33 2232.1s-8.41-6.54-13.21-4.74c-4.81 1.79 6.7 6.7 13.21 4.75M2067.53 2223.97s9.4 5.02 13.83 2.42c4.44-2.6-7.75-5.46-13.83-2.42" fill="#ffcf83"/><path d="M2102.7 2239.43s-5.23-9.28-10.37-9.48c-5.12-.2 3.6 8.76 10.36 9.48M2071.16 2213.73s5.23 9.28 10.36 9.48c5.13.2-3.6-8.76-10.36-9.48" fill="#ffcf83"/><path d="M2095.81 2244.9s-.68-10.63-5.22-13.03c-4.54-2.4-.55 9.46 5.22 13.04M2078.53 2208.08s.68 10.64 5.23 13.04c4.53 2.4.55-9.47-5.23-13.04M2107.87 2225.24s-9.96-3.8-14.03-.67c-4.07 3.12 8.37 4.44 14.03.67" fill="#ffcf83"/><path d="M2080.41 2225.9a7.42 7.42 0 1114.84-.03 7.42 7.42 0 01-14.84.02" fill="#365da4"/><path d="M2105.32 2282.37s-6.45-6.57-15.35-7.01c-8.9-.45-11.64 0-11.64 0s5.48 5.79 12.02 7.01c6.52 1.22 14.97 0 14.97 0M2103.99 2276c1.13-.99 1.97-8.99 8.86-10.99 6.91-2 11.8-2.38 11.8-2.38s-5.97 10.4-10.33 11.94c-4.35 1.56-10.33 1.43-10.33 1.43" fill="#97d389"/><path d="M3199.57 2198.08s-28.08-15.5-64.36 2.99c-36.29 18.5-1.5 107.22 27.05 110.74 28.56 3.51 45.78-10.76 56.22-10.42 10.4.32 35.05 1.8 53-8.6 17.96-10.42 38.94-97.16-8.1-112.1-30.22-9.58-63.8 17.4-63.8 17.4" fill="#f2ac6d"/><path d="M3205.33 2166.56s-10.24 28.64-8.13 33.48c2.1 4.83 8.57 1.67 10.32-1.73 1.77-3.4 1.65-22.72 2.32-25.95.67-3.21-3.42-8.88-4.5-5.8" fill="#db9958"/><path d="M3228.66 2307.42l-17.75 2.96a32.27 32.27 0 01-37.06-26.43l-7.97-47.78a32.28 32.28 0 0126.44-37.05l17.75-2.98a32.3 32.3 0 0137.06 26.46l7.97 47.77a32.28 32.28 0 01-26.44 37.05" fill="#ffc36c"/><path d="M4119.56 2316.44H193.13a4.48 4.48 0 01-4.46-4.45v-1.54c0-2.44 2-4.45 4.46-4.45h3926.43a4.47 4.47 0 014.45 4.45v1.54c0 2.44-2 4.45-4.45 4.45" fill="#2e3552"/><path d="M3332.7 2264.6s-1.98-12.5-17.04-11.1c-15.08 1.42-18.61 32.29 4.36 40.43 26.63 9.46 43.45-25.82 12.69-29.33" fill="#c65447"/><path d="M3347.24 2259.04s-12.08 1.44-15.71 6.37c0 0 6.8-4.7 13.24-4.46 0 0 2.4-.54 2.47-1.9" fill="#2c3a64"/><path d="M3371.4 2264.03s-11.67-4.91-18.41 8.65 17.64 32.81 36.67 17.57c22.06-17.66.92-50.54-18.25-26.22" fill="#c65447"/><path d="M3374.3 2248.75s-5.13 11.01-2.85 16.7c0 0-.41-8.25 3.17-13.6 0 0 .83-2.34-.31-3.1" fill="#2c3a64"/><path d="M3409.22 2230.4s-11.68-4.9-18.41 8.66c-6.73 13.55 17.65 32.8 36.67 17.57 22.06-17.67.91-50.55-18.26-26.23" fill="#ee9849"/><path d="M3412.15 2215.12s-5.13 11.01-2.84 16.7c0 0-.44-8.25 3.16-13.6 0 0 .82-2.33-.32-3.1" fill="#2c3a64"/><path d="M3381.05 2197.17s-11.67-4.9-18.41 8.67c-6.74 13.54 17.63 32.81 36.67 17.56 22.06-17.67.92-50.54-18.26-26.23" fill="#c65447"/><path d="M3383.95 2181.9s-5.12 11.02-2.84 16.71c0 0-.44-8.25 3.18-13.61 0 0 .8-2.33-.34-3.1" fill="#2c3a64"/><path d="M3464.86 2219.5s-2.57-12.42-17.57-10.31c-14.97 2.09-17.11 33.09 6.22 40.18 27.05 8.23 42.23-27.78 11.35-29.88" fill="#ee9849"/><path d="M3479.1 2213.27s-12 1.98-15.42 7.08c0 0 6.58-5.02 13.04-5.07 0 0 2.37-.64 2.37-2.01" fill="#2c3a64"/><path d="M3526.86 2251.95s-2.57-12.4-17.55-10.31c-15 2.1-17.13 33.1 6.2 40.19 27.05 8.22 42.24-27.79 11.35-29.88" fill="#c65447"/><path d="M3541.1 2245.72s-11.97 1.99-15.38 7.08c0 0 6.56-5 13.01-5.07 0 0 2.4-.64 2.37-2.01" fill="#2c3a64"/><path d="M3470.05 2255s-11.21-5.88-19.07 7.04c-7.86 12.93 14.77 34.21 35.03 20.65 23.49-15.72 5.23-50.28-15.96-27.69" fill="#ee9849"/><path d="M3475.25 2240.03s-6.06 10.53-4.3 16.4c0 0 .3-8.26 4.34-13.3 0 0 1.02-2.23-.04-3.1" fill="#2c3a64"/><path d="M3347.77 2233.63s-11.68-4.9-18.41 8.65c-6.74 13.56 17.64 32.81 36.68 17.57 22.06-17.66.92-50.53-18.27-26.22" fill="#db5b52"/><path d="M3350.71 2218.35s-5.14 11.02-2.87 16.7c0 0-.42-8.24 3.18-13.61 0 0 .82-2.32-.3-3.1" fill="#2c3a64"/><path d="M3420.6 2266.2s-11.67-4.9-18.4 8.65c-6.74 13.56 17.64 32.82 36.66 17.58 22.06-17.67.92-50.55-18.26-26.23" fill="#c65447"/><path d="M3423.52 2250.92s-5.13 11.01-2.86 16.7c0 0-.42-8.25 3.17-13.6 0 0 .82-2.33-.31-3.1" fill="#2c3a64"/><path d="M3546.97 2256.55l-274.6.68a6.19 6.19 0 01-6.19-6.15l-.04-22.17a6.18 6.18 0 016.15-6.2l274.6-.66a6.2 6.2 0 016.18 6.15l.05 22.17a6.16 6.16 0 01-6.15 6.18" fill="#ffcf83"/><path d="M3293.54 2304.64l-.18-80.27c-.02-.93.75-1.7 1.7-1.7l5.63-.02c.93 0 1.68.76 1.7 1.71l.19 80.27c.02.93-.75 1.7-1.68 1.7l-5.64.02c-.95 0-1.7-.76-1.72-1.7M3534.68 2304.05l-.2-80.26c0-.94.77-1.7 1.7-1.7l5.64-.02a1.7 1.7 0 011.71 1.7l.2 80.26c0 .93-.76 1.7-1.72 1.7l-5.6.02c-.94 0-1.73-.76-1.73-1.7" fill="#ffcf83"/><path d="M3547.08 2305.72l-274.58.68a6.18 6.18 0 01-6.2-6.15l-.06-22.17a6.19 6.19 0 016.15-6.17l274.6-.68a6.2 6.2 0 016.2 6.14l.04 22.18a6.16 6.16 0 01-6.15 6.17" fill="#ffcf83"/><path d="M3275.35 2232.2a3.2 3.2 0 013.18-3.2 3.2 3.2 0 11-3.18 3.2M3275.4 2248.05a3.19 3.19 0 116.37-.02 3.19 3.19 0 01-6.38.02M3275.48 2281.22a3.19 3.19 0 116.38-.02 3.19 3.19 0 01-6.38.02M3275.5 2297.07a3.2 3.2 0 013.18-3.2c1.78 0 3.2 1.41 3.2 3.18a3.2 3.2 0 11-6.38.01M3535.84 2231.56a3.2 3.2 0 116.4-.01 3.2 3.2 0 01-6.4 0M3535.88 2247.41a3.2 3.2 0 016.4-.02 3.2 3.2 0 01-6.4.02M3535.95 2280.57a3.2 3.2 0 116.4-.01 3.2 3.2 0 01-6.4.01M3536 2296.43a3.2 3.2 0 013.19-3.2c1.76 0 3.2 1.41 3.2 3.18a3.2 3.2 0 11-6.39.01" fill="#c18e4c"/></svg>
