<svg xmlns="http://www.w3.org/2000/svg" viewBox="0 -900 2745 2430" opacity=".87">
  <defs>
    <style>
      .s3{fill:#f9ddbf} .s4{fill:#fff3e9} .s5{fill:#ed9f4a} .s6{fill:#efcdaf} .s7{fill:#f2ac6d} .s8{fill:#ffc36c} .s9{fill:#ffb27d} .s10{fill:#b57548} .s11{fill:#c94c4c}
      .s12{fill:#8ae583} .s14{fill:#e58638} .s15{fill:#82b378} .s16{fill:#ffb64d} .s17{fill:#67935d} .s18{fill:#c66b28} .s19{fill:#ffcf83} .s20{fill:#c18e4c} .s22{fill:#60b45a}
      .s23{fill:#93d88d} .s24{fill:#fff} .s26{fill:#c65447} .s29{fill:#ed985f} .s32{fill:#f8fcff} .s33{fill:#2c3a64} .s34{fill:#ee9849} .s35{fill:#db5b52} .s36{fill:#97d389}
    </style>
  </defs>
  <path d="M2743.77 1371.76c-4.67 57.35-27.79 113.06-53.93 163.69-.12.12-241.83 0-242 0l-224-.07H1506.8l-365.48-.1s-973-.29-973.07-.31c-27.4-27.68-93.42-122.88-130.08-222.97-18.9-51.54-33.34-110.07-37.17-173.41-14-232.24 152.9-469.5 323.4-576 189.85-118.26 384.15-77.18 538 26 59.26 39.72 191.53 30.68 338.15-80.41a802 802 0 0091.69-81.86q28.83-29.85 57.68-65.38a1215.77 1215.77 0 0086.48-122.27C1651.2-106.79 2241.35-59 2498.9 265a574.3 574.3 0 0155.29 83.41c66 121.64 89.39 272.49 44.47 448.32a497.92 497.92 0 00-11.72 60.6c-8 63-.66 114.34 14.44 159.16a375.07 375.07 0 009.66 25.45 496.6 496.6 0 0024.66 49.9c23.73 42.29 51.22 80.53 72.68 121.35 26.48 50.46 40.62 99.3 35.39 158.57z" fill="#dceaff" opacity=".27"/>
  <path class="s3" d="M2426.95 1041.9v493.47l-90.15-.04-230.76-.06-64.46-.03V1041.9h385.37z"/>
  <path class="s4" d="M2708.38 1213.15a382.5 382.5 0 0117.93 38.91v283.4h-36.47l-262.9-.09V1041.9H2611a496.6 496.6 0 0024.66 49.9c23.77 42.29 51.26 80.53 72.72 121.35z"/>
  <path class="s5" d="M2524.9 817.42l-126.26 259.96h-383.6l199.99-259.01 309.87-.95z"/>
  <path class="s3" d="M2540.04 817.42l-126.26 259.96h-383.6l199.99-259.01 309.87-.95z"/>
  <path class="s6" d="M2225.56 947.4h8.06a47.95 47.95 0 0147.95 47.95v127.54H2176V997a49.56 49.56 0 0149.56-49.6z"/>
  <path class="s7" d="M2601.38 1016.45c-15.1-44.82-22.46-96.17-14.44-159.16l-30.74-39.81H2214l.87 1.14 7.45 10 160.06 213.39 20.32 27.1 6.28 8.38 10.82 14.42h215.9a496.6 496.6 0 01-24.66-49.9z"/>
  <path class="s8" d="M2601.38 1016.45L2484.85 931l-11.16-8.17-143-104.8h-.06l-.78-.57H2556.18l30.74 39.81c-8 63.01-.64 114.36 14.46 159.18z"/>
  <path class="s5" d="M2188.35 1149.98l-89.89 185.07h-273.1l142.38-184.39 220.61-.68z"/>
  <path class="s3" d="M2196.54 1149.98l-89.9 185.07h-273.1l142.38-184.39 220.62-.68zM2106 1335.06v198.19h-90.41c-3-.43-4.56-.74-4.56-.74s-.93 1-2.67 2.72H1833.5v-200.17z"/>
  <path class="s4" d="M2336.8 1335.06v200.27l-230.76-.06v-200.21h230.76z"/>
  <path class="s7" d="M2362.16 1346h-247.89l-146.53-195.35 73.84.01 169.79.04 150.79 195.3z"/>
  <path class="s6" d="M2025.15 1376.14v157.11l-.72 2h-114.06V1378a58.36 58.36 0 0158.35-58.35 56.48 56.48 0 0156.46 56.45zM1954.86 1253.4a12.88 12.88 0 1112.88 12.88 12.88 12.88 0 01-12.88-12.88z"/>
  <path class="s8" d="M2362.16 1346h-47.05l-273.53-195.34 169.79.04 150.79 195.3z"/>
  <path class="s9" d="M1890 1072.06s27-4.84 32.2-12.62a50.25 50.25 0 006.85-14.86l-39 9.7z"/>
  <path class="s10" d="M1718.49 1531.91a8.72 8.72 0 001.55 3.84h75.71c-3.11-8.94-18.83-14.12-18.83-14.12-26.17-7.8-34.27-27.78-34.27-27.78l-24.54-3.29s-1.33 25-.54 33.42c.28 3.02.6 5.68.92 7.93z"/>
  <path class="s11" d="M1801.27 1169s-11.59 68.58-23.28 154.68q-1.79 13.3-3.45 26.76c-6.62 53.69-11.5 108.65-15.11 161 0 0-31.69 14.32-48.67-3.56 0 0-9.58-56.56-12.07-110.87-.8-17.64-.17-34.45 2.87-48 5.38-23.88 5.33-53 4.62-83.55-.93-40.37-3-83.32 4.58-120.25z"/>
  <path class="s11" d="M1801.27 1169s-11.59 68.58-23.28 154.68q-1.79 13.3-3.45 26.76l-68.36-85c-.93-40.37-3-83.32 4.58-120.25z"/>
  <path class="s10" d="M1920.8 1478.66s14.31 16.14 41.58 14.75c0 0 21.86-.47 24.31 10.88 0 0-35.37 9.71-44.38 12.49-6.8 2.11-14.26 6.09-19.6 9.26a8.58 8.58 0 01-12-3.43c-1-2-2.24-4.42-3.52-7.17-3.56-7.71-10.64-31.69-10.64-31.69z"/>
  <path class="s11" d="M1928.77 1481.23s-15.16 21.63-38 12.39c0 0-40.28-50-65-98.39-8-15.73-14.42-31.28-17.26-44.91-11.59-55.58-105.25-133.17-97.73-205.14h114s17.82 67.23 42.81 150.45c17.99 59.95 39.72 128.21 61.18 185.6z"/>
  <path class="s10" d="M1746.24 949.6c-22.74 12.83-69.29 1-69.29 1s12.25-14 12.55-37.62a74.67 74.67 0 00-2.23-18.79l27.9 14.17 9.13 4.64s.86 4.28 1.65 12.15c.39 4 .77 8.83 1 14.52a59.48 59.48 0 0119.29 9.93z"/>
  <path class="s12" d="M1829.61 1147.6c0 4-4.6 5.9-5.59 6.09-9.17 1.69-34.77 11.64-57.84 13.93-19.42 2-37.45.1-57.26-3.87-2.62-.53-8.79-2.19-9.22-4.71-.54-2.74-76.4-154.65-17.43-219.9 1.39-1.53 13 1.22 23.66 3.76a43.66 43.66 0 0026.91-2.21l10 5.25c12.27 6.83 35.46 31.11 38.19 50.16a1.77 1.77 0 000 .21c1.41 9.57 6.89 16.71 8.48 25.17q.88 4.73 1.82 9.22a527 527 0 003.74 16.82q2.82 11.68 5.76 21.64 1.59 5.52 3.22 10.55a408.4 408.4 0 0012.67 34.08c4.36 10.26 8 17.92 10.31 23.81.34.86.66 1.69.94 2.47a23.61 23.61 0 011.64 7.53z"/>
  <path class="s10" d="M1726 925.14c-32.11 1.28-36.45-12.17-36.45-12.17 9.74-4.16 18.51-5.26 25.67-4.62l9.13 4.64s.81 4.28 1.65 12.15z"/>
  <path class="s10" d="M1735.92 907.22s-33.87 24.31-48.69 3-29.16-32.56-8.16-49 30.9-11.24 37.58-5.32 27.7 44.44 19.27 51.32z"/>
  <path class="s10" d="M1718.39 848.32a47.53 47.53 0 00-3.66-12.47s-2 7.86-16.91 6.78-38.59 1.41-46.48 17.78a32.56 32.56 0 00-1.34 3.22 36.76 36.76 0 01-1.78-9.07c-2.83 7 0 15.86 0 15.86 0 .26-.08.52-.12.77-3.3 2.68-6.06 11-6.06 11 1-2.33 3.42-3.84 5.58-4.78-.07 12.74 5.3 25.2 14.72 28.91 13.78 5.42 13.67 1.28 27.53 10.13 0 0 3.72-4.44 1.18-7.42s-12.11-7.32-6.76-11.66 7.33.54 9.3-2.44-7.89-11.66 4.79-19.79 21.13-19.5 20.01-26.82z"/>
  <path d="M1828 1140.07c-114.3-3.84-120.25-121.59-120.25-121.59s49.21 24 93.11 50.68a408.4 408.4 0 0015.93 44.63c4.36 10.26 8 17.92 10.31 23.81.28.86.6 1.69.9 2.47z" fill="#7bcc72"/>
  <path class="s12" d="M1804.06 1079.71a42.64 42.64 0 01-16.1-.43c-36.16-7.83-62-92.72-62-92.72.39-.69 27.57.67 55.09 9.75 1.41 9.57 6.89 16.71 8.48 25.17q.88 4.73 1.82 9.22a527 527 0 003.74 16.82q2.82 11.68 5.76 21.64 1.58 5.52 3.21 10.55z"/>
  <path class="s14" d="M1883.37 988.32s-13.76-2.48-19.79-9.56c-3.53-4.12-3.63-7-1.94-8.88a8.87 8.87 0 014.6-2.36c.38-.1.78-.17 1.19-.24 5.87-.98 15 20.02 15.94 21.04z"/>
  <path class="s15" d="M1865.94 959.06c-2.3-.73-2.44 6.1-1.48 9h-.09c-1.76-2.63-13.65-20-20.75-19.37-7.58.67 10.75 13 20.57 19.44-2.21-1.32-12.7-7-18.39-.22 0 0-.46 2.58 3.83 1.42 4.13-1.12 8.85-2.55 14.32-1.1a6.83 6.83 0 00-2.29 1.57s3.87-.26 4.6-2.36c-.5.12-1 .26-1.43.42.74-1.79 3.17-8.14 1.11-8.8z"/>
  <path class="s14" d="M1929 981s12.64-6 16.62-14.38c2.33-4.9 1.68-7.72-.44-9.08a8.87 8.87 0 00-5.06-1.08c-.39 0-.79 0-1.21.07-5.91.55-9.26 23.21-9.91 24.47z"/>
  <path class="s15" d="M1938.21 948.18c2-1.31 3.94 5.24 3.78 8.32h.1c1-3 8-22.85 15-24.1 7.49-1.34-7 15.3-14.79 24.12 1.79-1.84 10.44-10 17.69-5 0 0 1.13 2.37-3.33 2.37-4.28 0-9.2-.16-14.11 2.67a6.78 6.78 0 012.63.92s-3.81.76-5.06-1.08a14.64 14.64 0 011.49 0c-1.22-1.55-5.2-7.06-3.4-8.22z"/>
  <path class="s14" d="M1897.19 994.93s20-12.13 25.12-26.78c3-8.54 1.45-13.12-2.31-15-2.25-1.15-5.28-1.36-8.59-.91-.66.07-1.32.2-2 .33-9.75 1.98-11.41 40.22-12.22 42.36z"/>
  <path class="s15" d="M1906.8 938.85c3.14-2.53 7.46 8 7.72 13.18h.17c1.16-5.15 9.27-39.36 20.72-42.66 12.21-3.52-9 26.65-20.4 42.67 2.67-3.38 15.61-18.53 28.54-11.39 0 0 2.28 3.74-5.12 4.51-7.11.74-15.32 1.34-23 6.89a11.35 11.35 0 014.53 1.07s-6.2 1.93-8.59-.91c.84-.11 1.67-.18 2.47-.21-2.27-2.44-9.84-10.9-7.04-13.15z"/>
  <path class="s16" d="M1852.25 990.2s67.37-48.07 101.08-17.63c0 0 14.17 41.44-29.37 58.56s-93.96 1.39-71.71-40.93z"/>
  <path class="s15" d="M1805.91 985.33s-21.27 14.38-1.93 44.44 50.4 37.47 78.13 21.37-22.88-116.72-76.2-65.81z"/>
  <path class="s17" d="M1877.38 1053.64c.68.31-87-1.67-73.19-58.82 0 0 4.49-9.06 8.39.71s-6.71 25.39 64.8 58.11zM1816.74 979.06s11-11.34 35.31-.38c18.84 8.5 34.74 47 33 56.88 0 0-22.77-51.2-41.07-52.88s-30.68 3.12-27.24-3.62z"/>
  <path class="s17" d="M1849.56 1027.56c-1.11-1.68-34.34-20.36-35.32-37.63s35.32 37.63 35.32 37.63zM1805.5 987.54s3.91.23 7.15-3.86c0 0-4.2 1.69-4.48-3.85s2.58-8.36 2.58-8.36l-1.11.56s-5.41 5.77-4.14 15.51z"/>
  <path class="s14" d="M1998.4 965c-1.15 23.61-44 60.72-76.35 72.36-12.06 4.33-22.65 5.14-29.09.38a13.18 13.18 0 01-2.51-2.39c-19.86-24.48-1-41.11 18.29-44.75 10.87-2 24-5.47 34.77-11.92 8.37-5 15.29-11.8 18.57-21.2 7.52-21.51 23.25-21 23.25-21a8.25 8.25 0 012.42.55 12.11 12.11 0 012 1c2.22 1.37 4.79 3.94 6.57 8.8 1.54 4.17 2.48 10.01 2.08 18.17z"/>
  <path class="s15" d="M1982 939.5s4.14 3.11 7.84 2a1.84 1.84 0 01-.54-2.16c.47-1.5 2.39-6.41 2.39-6.41s1.06-1-2.63.53c.03-.04.79 4.87-7.06 6.04z"/>
  <path class="s18" d="M1998.4 965c-1.15 23.61-44 60.72-76.35 72.36-9.19.5-19.1.7-29.09.38a13.18 13.18 0 01-2.51-2.39c-19.86-24.48-1-41.11 18.29-44.75 10.87-2 24-5.47 34.77-11.92 21.85-4.92 34.71-20.18 40.32-27.86 4.55-6.22 9.31-5.62 12.51-4 1.52 4.18 2.46 10.02 2.06 18.18z"/>
  <path class="s15" d="M1922.15 1009.46s-6.31.78-9.76 8.31a19.15 19.15 0 00-2.81-8.33s-4.17 3.29-4.17 10.13a18.62 18.62 0 00-13.13-1.57s2.86 7.88 14.28 8.09a30.74 30.74 0 002 4.7 11.41 11.41 0 002.25-3.73 19 19 0 0011.34-17.6zM1960.34 1013.89c.82-1.21 6.91-29.1 27.1-33.43s22.19 15.64 17.87 21-44.97 12.43-44.97 12.43z"/>
  <path class="s19" d="M2011.11 982.26L1790.58 1037a5.12 5.12 0 01-6.18-3.72l-4.43-17.81a5.12 5.12 0 013.73-6.18l220.53-54.77a5.12 5.12 0 016.18 3.72l4.42 17.8a5.11 5.11 0 01-3.72 6.22z"/>
  <path class="s19" d="M1817 1071l-16-64.46a1.42 1.42 0 011-1.71l4.53-1.13a1.41 1.41 0 011.7 1l16 64.46a1.4 1.4 0 01-1 1.71l-4.53 1.13a1.43 1.43 0 01-1.7-1zM2010.62 1022.86l-16-64.46a1.41 1.41 0 011-1.71l4.53-1.12a1.41 1.41 0 011.71 1l16 64.46a1.43 1.43 0 01-1 1.71l-4.53 1.12a1.42 1.42 0 01-1.71-1z"/>
  <path class="s19" d="M2020.92 1021.76l-220.54 54.77a5.12 5.12 0 01-6.18-3.72l-4.42-17.81a5.13 5.13 0 013.72-6.18l220.5-54.77a5.12 5.12 0 016.18 3.72l4.42 17.81a5.12 5.12 0 01-3.68 6.18z"/>
  <path class="s20" d="M1788 1016.34a2.64 2.64 0 113.2 1.93 2.64 2.64 0 01-3.2-1.93zM1791.19 1029.07a2.64 2.64 0 113.2 1.92 2.64 2.64 0 01-3.2-1.92zM1797.81 1055.71a2.64 2.64 0 113.2 1.92 2.64 2.64 0 01-3.2-1.92zM1801 1068.43a2.64 2.64 0 113.2 1.93 2.64 2.64 0 01-3.2-1.93zM1997.23 964.38a2.64 2.64 0 113.2 1.93 2.65 2.65 0 01-3.2-1.93zM2000.4 977.11a2.64 2.64 0 113.19 1.92 2.63 2.63 0 01-3.19-1.92zM2007 1003.75a2.64 2.64 0 113.2 1.92 2.64 2.64 0 01-3.2-1.92zM2010.17 1016.47a2.64 2.64 0 113.2 1.93 2.64 2.64 0 01-3.2-1.93z"/>
  <path class="s12" d="M1670.91 990.83s56.23 97.28 93.27 111.3c26.41 10 125.77-27.33 125.77-27.33s10.81-13.84 0-20.52c0 0-90.53 8.67-97.12 4.4s-44.74-76.89-56.66-85.14-64.34-5.54-65.26 17.29z"/>
  <path class="s19" d="M1705.3 893.3c-31.86 33.59-69.71 49.4-84.55 35.33s-1-52.71 30.83-86.29 69.71-49.41 84.55-35.34 1.03 52.71-30.83 86.3z"/>
  <path d="M1701.05 832.35s-33.53-22.1-57.15-2.67-1.85 61.73-1.85 61.73 27.76-4.51 44.52-23.59 14.48-35.47 14.48-35.47z" fill="#edbd77"/>
  <path class="s7" d="M170.66 1022.18c-.95 13.4 0 444.5 15.23 509.78h-53.32s1.91-467 0-474.57 38.09-35.21 38.09-35.21z"/>
  <path class="s22" d="M533.36 838.39c45.09 65.13 34 195.26-111.65 211.8s-87.17 78.07-215.71 111.94c-67.43 17.76-145.78-1.35-205-23.54-6.7-110.87 19.09-236.53 110.29-365.37C180 676.13 251.88 607.72 324.4 562.55c104 8.12 203.51 28.2 239 47.54 78.79 42.91-75.13 163.18-30.04 228.3zM2691.67 1532h-323.26c3.55-118.53 123.23-112.54 150.49-127.94s-35.55-90.06 33.18-161.16c50.38-52.11 121.77-39.92 156.3-29.71 41.96 79.81 60.83 169.51-16.71 318.81z"/>
  <path class="s23" d="M1099.41 1479.53s10.8 10 8.7 17.14-11.86 11.86-13.18 20.55-6.59 13.45-11.34 13.45H1061s-3.5-6.12 4.94-8 11.61-12.06 11.09-21.55a169.31 169.31 0 01.79-22.14l17.92-4.22zM966.83 1506.84s2.64 21.09-2.1 23.46-61.42 1.58-61.42 1.58 0-7.12 9.76-8.7 26.88-7.38 29.78-20.29 23.98 3.95 23.98 3.95z"/>
  <path class="s24" d="M915.57 1184.87s3.21 40 7 88c5.12 65.24 11.27 145.38 11.88 160.56 1.05 26.36 5.27 68.53 5.27 68.53s10 10 30 5.79c0 0 17.85-60.19 23-123.88l.24-3.15c4.74-64.84 12.12-201.37 12.12-201.37z"/>
  <path class="s24" d="M915.57 1184.87s3.21 40 7 88l70.15 111 .24-3.15c4.74-64.84 12.12-201.37 12.12-201.37z"/>
  <path class="s24" d="M930.2 1189.61s57.72 144.7 95.67 212.7 49.82 87 49.82 87 21.74-8.7 23.72-14.63c0 0-14.52-131.28-39.93-163.28-14.36-18.08-31.23-72.35-32-91.33s-5.13-56.53-5.13-56.53z"/>
  <path class="s9" d="M816.92 1169.58s-20.37 9.78-23.11 12.29-9.51 14.83-9 15.76 1.54 1.21 3.38-.06 7-6.62 7.22-5.63-13.83 17.49-11.35 21 16.53 2.46 24.56-3.25 16-26.68 17.24-27.83c10.24-9.73-8.94-12.28-8.94-12.28z"/>
  <path class="s7" d="M816 1180.06c-5.65-4.92-5.8-6.17-5.8-6.17s36.12-62.45 39.25-68.46 22.49-99.81 22.49-99.81l66.92-19.4s-47.14 121.89-55.37 137c-13.6 24.9-58 61.53-58 61.53a21 21 0 01-9.49-4.69z"/>
  <path class="s9" d="M904.77 961.81s-23.55 41.44-46.57 46.85c0 0 1-13.92 6.56-23.44a190.9 190.9 0 01-6-7.42 138.5 138.5 0 01-8.55-12l7.81-21 5.3-14.26a68.92 68.92 0 008.28 11.94c15.04 17.38 33.17 19.33 33.17 19.33z"/>
  <path d="M871.55 942.51s2.81 20.77-12.84 35.29a138.5 138.5 0 01-8.55-12l7.81-21c8.38-2.53 13.58-2.29 13.58-2.29z" fill="#ed975d"/>
  <path class="s9" d="M844 968.89s35.19-13.72 26.31-35.5-10.37-38.22-33.21-30.39-23.79 17.91-22.6 25.9 20.07 43 29.5 39.99z"/>
  <path class="s7" d="M1025.72 1174.45c-14.19 20.41-120.32 47.67-119.06 33.56a153.78 153.78 0 000-27.86c-.27-3-.65-6.25-1.13-9.63-2.7-18.57-9.1-42.43-23.39-70.06q-1.61-3.11-3.34-6.27a214.56 214.56 0 01-14.71-33.06c-7.36-21.25-10.33-41.58-6.61-54.87a.6.6 0 01.06-.19c22.18-10.25 30.77-50 30.77-50s75.69 13.55 118.08 114.43c0 0 4.07 11.08 8.72 26.11 5.65 18.24 12.16 42.28 13.29 59.43.6 8.14-.13 14.74-2.68 18.41z"/>
  <path class="s19" d="M875.31 892.93c.25-.49 1-1 2.71-1.54a7.38 7.38 0 00-3.54-.14c-1-2.41-3.39-6.51-7.9-6.54a5.54 5.54 0 013.54 3.26c-6.17-3.92-17.61-5.05-46.18 4.46-37.64 12.54-18.83 34.39-13.13 36.14s16.21-9.49 25.66-11 14.55 11.62 18.16 12.71 1.55-1.9 5.32-4.9 5.94 4 5.86 9 7.27 9.65 7.27 9.65l4.31-7.91c4.31-7.91 3.14-36.63-1-41.8-.39-.46-.71-.93-1.08-1.39z"/>
  <path class="s7" d="M1028.4 1156c-91.33-27.55-105.85-136.44-105.85-136.44s52 39.74 92.56 77c5.65 18.29 12.16 42.33 13.29 59.44z"/>
  <path class="s11" d="M1133.19 1310.24l-9.19-85.44-13.22 1.42a41.34 41.34 0 00-35.09-33.91 41.33 41.33 0 00-21.34 2.72 41.44 41.44 0 00-25.55 40l-.61.06-12.6 1.35 9.18 85.45a17.27 17.27 0 0019 15.28l24.31-2.62 49.87-5.36a17.23 17.23 0 0015.24-18.95zm-101.08-75.58a38.12 38.12 0 0123.66-36.65 34.62 34.62 0 013.87-1.33 2.34 2.34 0 01.41-.12 38 38 0 016-1.14 37.26 37.26 0 018 0 38.12 38.12 0 0133.54 31.16z"/>
  <path class="s7" d="M1053.44 1159.61s-2.06 17.28-1.56 20.1 3.79 11.2 4.6 11.25 3.31.15 3.24-1.58-1.19-3.34-.47-3.06.93 6.81 4.23 6.64 13-3.82 12.59-11.4-10.72-21.45-11-22.7c-2.07-10.67-11.63.75-11.63.75z"/>
  <path class="s7" d="M1058.91 1162.53c-7.24 3.32-9.93-.07-9.93-.07s-42.21-70.48-46.65-76.14-82.33-39.11-82.33-39.11-31.71-12.12-33-31.35c-1.09-16.71 8.4-27 18.79-33.18a35.09 35.09 0 0139.44 2.55c25.55 19.85 76.22 59.78 84.37 70.6 18.15 24.1 38.26 99.63 38.26 99.63a25.1 25.1 0 01-8.95 7.07z"/>
  <path class="s24" d="M845 953.1s.61 2.55-5.23 5.06c0 0-4.9 2.1-6-.47-.05 0 3.66-4.11 11.23-4.59z"/>
  <path class="s9" d="M1181.12 1496.17l-11-3.56a345.18 345.18 0 012.61-65.45c3.09-22.61 8.76-47.1 19-66.76a86 86 0 0117-23.12s8.42-19.55 19.56-45.67c12.4-29 90-37.56 45.71 23.28-9.08 12.49-18.83 34.47-30.52 47.82-20 22.81-34.07 49.45-43.74 72.9-13.84 33.54-18.62 60.56-18.62 60.56z"/>
  <path class="s9" d="M1156.15 1497.83c-3.33 5.39 3.85 10.67 12.74 15.65s5.2 5.47 16.56 13.93 18.06 7.52 19.8 6.29c1.54-1.1-3.1-6.32-8-12l-1.83-2.17c-5.44-6.51-6.25-14.7-8.8-23.18-2.42-8 1.41-28 1.41-28l-15.16-12s-3.08 18.16-4.78 25.73c-1 4.45-4.63 8.17-7.58 10.91a24.85 24.85 0 00-4.36 4.84z"/>
  <path class="s26" d="M1168.89 1513.48c8.88 5 5.2 5.47 16.56 13.93s18.06 7.52 19.8 6.29c1.54-1.1-3.1-6.32-8-12l-.15.06a39.69 39.69 0 01-19-9.16c-7.15-6.34-12.68-15.24-17.58-19.66a24.85 24.85 0 00-4.39 4.93c-3.31 5.35 3.87 10.63 12.76 15.61z"/>
  <path class="s11" d="M1257.08 925.13s-26.76-3.26-40.21 21.64-12.37 61-25.41 78 2.17 33.14 2.17 33.14l101.62 3.43a70.57 70.57 0 000-41.84c-7.06-22.83 27.44-90.92-38.17-94.37z"/>
  <path class="s9" d="M1284.87 1169.34c-17.75-56.73 18-56 16.13-84.38s-23.83-58.92-23.83-58.92l-2.16-.21a1.94 1.94 0 01-1.66-1.27c-.82-2.24-1.06-7.15-1-12.27 0-7.81.62-16.11.62-16.11l-26.41-5.18-1.57-.31c0 13.26-2.46 23.23-5.18 28.8a8.82 8.82 0 01-6.73 4.87c-5.66.79-15.63 2.49-22.34 5.3-3.27 1.36-5.75 3-6.62 4.89-7.24 15.92-14.47 56.09-19.55 84.74-2.83 16-6 29.39-4.8 35.06.26 1.24 22.77 9.29 25.92-5.63 1-4.86 3.54-14.58 6.47-25.48l1.35-5c5.18 14 7.83 20.55 7.68 26.61-.2 8.64-6.06 16.4-18.3 43.85-6.76 15.11 100.11 38.58 81.98-19.36z"/>
  <path d="M1272.92 996.18s-.6 8.3-.62 16.11c-14.75-.41-22.55-13.87-25.74-21.33z" fill="#e8945b"/>
  <path class="s9" d="M1277.85 1003.58s-34.9.58-34.93-21.16-4.54-36.31 17.74-37.6 26.62 7 28.39 14.26-2.13 43.79-11.2 44.5zM1326.55 1510.24l-11.2 2.76a345.33 345.33 0 01-32.25-57c-9.28-20.85-17.35-44.65-19-66.78a86 86 0 012.23-28.58s-3.13-21-7.41-49.13a9352.5 9352.5 0 00-15.75-100.48l2.92-.86 47.65-27.87s21.89 49.91 16.3 125c-1.15 15.39 2.14 39.21-.77 56.72-5 29.91-2.92 60 1.19 85 5.93 35.74 16.09 61.22 16.09 61.22z"/>
  <path class="s11" d="M1288 947c-5.39-6.53-9.46-5.11-11.75-3.15-18.71-10.38-31.38 5-31.38 5a41.52 41.52 0 01-13.58 24.53s6.21 3.3 21 .16c17.58-3.73 22.42-23.54 23.12-26.12 2.13 1.91 6.33 6.07 7.61 10.14 1.74 5.54 2.53 16.94 5.85 16.55.04.03 7.24-17.31-.87-27.11z"/>
  <path class="s24" d="M1322.69 1381c-42.14 24.08-153.08-14.26-153-16.48.58-11.78 11.25-82.73 23.77-150.44 7.69-41.63 28.18-57.19 24.91-59.81h-.05c-12.64-9-7.17-24.36-6.34-29.87-3.88 1-16.4 3.41-30.73-4.5 5.9-28.85 14.31-69.32 22.74-85.34a6.49 6.49 0 012.07-2.18.34.34 0 01-.08-.1c7.89-5.76 24-7.52 24-7.52s8.69 21.28 11.35 24.6c17.2 21.49 48.09 11.79 43.88-1.6-1.51-4.87-9.32-20.21-10.27-21.92a21.56 21.56 0 012.19.21c5.18.69 8.85 1.21 11.49 1.66 5.19.88 6.47 1.5 7.76 2.5 4.55 4.55 10.47 15.84 10.94 36 .18 7.5 8 90.3-17.28 88.86-.57 0-.08 1.33 1 3.88 3.57 8.2 13.69 28.78 16.63 55.17a4250.03 4250.03 0 0115.02 166.88zM1267.82 990.75s.66 2.67 7.33 2.18c0 0 5.61-.41 5.4-3.36 0 0-5.46-2.03-12.73 1.18z"/>
  <path class="s9" d="M1306.19 1524.81c0 6.33 8.89 7 19.07 6.59s7.3 1.91 21.41 3.12 19.32-3.11 20.14-5.08c.74-1.74-6-3.74-13.1-6l-2.71-.88c-8-2.68-13-9.21-19.68-15.07-6.29-5.56-13.55-24.56-13.55-24.56l-19.23-2.26s7 17.07 9.49 24.39c1.49 4.31.36 9.39-.7 13.27a24.71 24.71 0 00-1.14 6.48z"/>
  <path class="s26" d="M1325.26 1531.4c10.17-.45 7.3 1.91 21.41 3.12s19.32-3.11 20.14-5.08c.74-1.74-6-3.74-13.1-6l-.1.12a39.68 39.68 0 01-21 2.23c-9.41-1.63-18.8-6.28-25.29-7.46a24.71 24.71 0 00-1.14 6.51c.02 6.3 8.9 7.01 19.08 6.56z"/>
  <path class="s12" d="M1322.69 1381c-42.14 24.08-153.08-14.26-153-16.48.58-11.78 11.25-82.73 23.77-150.44 7.69-41.63 28.18-57.19 24.91-59.81.78.63 12.66 10.22 34.46 8.92a359.1 359.1 0 0038.23-4.28c3.57 8.2 13.69 28.78 16.63 55.17 9.59 85.92 15 166.92 15 166.92z"/>
  <path d="M1218.36 1154.26s34.51 14.4 71.73.81l1.89 5.84s-38.29 13.3-75.11-1.84z" fill="#ed7d2b"/>
  <path class="s14" d="M1291.15 1167.9s-12.37-10.63-14.26-21.32c-1.11-6.23.5-9.2 3.31-10.09a10.43 10.43 0 016 .35c.45.13.89.29 1.35.46 6.45 2.49 3.25 29.02 3.6 30.6z"/>
  <path class="s15" d="M1290.92 1128.16c-1.88-2.1-6.06 4.68-6.82 8.2h-.1c-.21-3.68-1.91-28.18-9.42-31.76-8-3.81 3.15 19.39 9.2 31.72-1.45-2.63-8.64-14.54-18.37-11.1 0 0-2 2.32 3 3.7 4.81 1.32 10.4 2.66 15 7.36a8.12 8.12 0 00-3.23.22s4 2 6 .35c-.56-.17-1.12-.31-1.67-.42 1.9-1.43 8.08-6.43 6.41-8.27z"/>
  <path class="s14" d="M1370.84 1132.09s12.42-2.53 17.74-9.07c3.11-3.8 3.15-6.43 1.57-8.09a8 8 0 00-4.21-2c-.35-.08-.71-.14-1.09-.2-5.33-.8-13.18 18.42-14.01 19.36z"/>
  <path class="s15" d="M1386 1105.22c2.06-.71 2.33 5.47 1.52 8.15h.08c1.54-2.41 12-18.39 18.41-18 6.87.44-9.48 12-18.24 18 2-1.24 11.37-6.59 16.66-.58 0 0 .48 2.33-3.44 1.37-3.77-.93-8.07-2.13-13-.7a6.07 6.07 0 012.11 1.37s-3.51-.15-4.21-2c.45.1.88.22 1.3.35-.68-1.62-2.99-7.32-1.19-7.96z"/>
  <path class="s14" d="M1339.82 1137.5s20.19-6.36 27.9-18.14c4.51-6.86 4.11-11.23 1.21-13.72-1.72-1.5-4.35-2.33-7.35-2.66-.6-.08-1.21-.11-1.84-.14-9.01-.34-18.74 32.96-19.92 34.66z"/>
  <path class="s15" d="M1360.41 1090.22c3.3-1.55 4.83 8.68 3.94 13.27h.15c2.13-4.28 16.67-32.63 27.46-33.06 11.51-.45-13.67 21.51-27.18 33.14 3.08-2.4 17.74-12.93 27.58-3.85 0 0 1.2 3.79-5.48 2.86-6.42-.89-13.78-2.13-21.72 1.09a10.25 10.25 0 013.74 1.92s-5.87.36-7.35-2.66a21.68 21.68 0 012.21.36c-1.47-2.62-6.3-11.7-3.35-13.07z"/>
  <path class="s14" d="M1279.54 1168.9s.49-21.16-8.18-32.26c-5-6.49-9.3-7.52-12.59-5.58a13.53 13.53 0 00-4.89 6.11c-.26.54-.49 1.1-.72 1.69-3.24 8.42 25.16 28.34 26.38 30.04z"/>
  <path class="s15" d="M1241.42 1134.16c-.39-3.63 9.78-1.77 13.84.55a.57.57 0 01.08-.13c-3.36-3.4-25.5-26.31-22.43-36.66 3.28-11 15.95 19.88 22.6 36.42-1.28-3.68-6.52-21 5.25-27.35 0 0 4 .09.94 6.12-2.91 5.79-6.46 12.35-6 20.91a10.32 10.32 0 013-2.93s-1.55 5.67-4.89 6.11q.49-1.05 1-2c-2.88.55-13.04 2.19-13.39-1.04z"/>
  <path class="s16" d="M1301.29 1123.62s69.69-27.74 92.78 6.34c0 0 3.5 39.54-38.52 45.19s-83.01-19.1-54.26-51.53z"/>
  <path class="s14" d="M1435.37 1133.07c-6.12 20.54-51.85 43.93-82.85 47.18-11.55 1.2-21-.37-25.68-6a11.75 11.75 0 01-1.7-2.65c-12.19-25.84 8-36.4 25.78-35.43 10 .55 22.32.39 33.18-3 8.44-2.57 16-7.08 20.93-14.64 11.27-17.3 25-13.49 25-13.49a7.42 7.42 0 012 1 10.15 10.15 0 011.56 1.32c1.66 1.68 3.37 4.5 3.88 9.16.45 4.08.02 9.48-2.1 16.55z"/>
  <path class="s15" d="M1426.48 1107.07s3 3.63 6.47 3.41a1.66 1.66 0 010-2c.74-1.21 3.49-5.12 3.49-5.12s1.16-.7-2.43-.1c-.01-.02-.39 4.46-7.53 3.81z"/>
  <path class="s18" d="M1435.37 1133.07c-6.12 20.54-51.85 43.93-82.85 47.18-8.2-1.55-17-3.51-25.68-6a11.75 11.75 0 01-1.7-2.65c-12.19-25.84 8-36.4 25.78-35.43 10 .55 22.32.39 33.18-3 20.29.4 34.91-10.25 41.51-15.8 5.35-4.49 9.41-2.93 11.88-.84.43 4.07 0 9.47-2.12 16.54z"/>
  <path class="s15" d="M1358.64 1155.69s-5.72-.68-10.38 5.2a17.45 17.45 0 00-.67-7.94 12 12 0 00-5.87 8 16.75 16.75 0 00-11.22-4.22s.82 7.55 10.83 10.2a27.26 27.26 0 00.77 4.57 10.1 10.1 0 002.79-2.79 17.19 17.19 0 0013.75-13.02zM1391.3 1167.85c1-.89 12.37-24.12 31.08-23.57s16.15 18.57 11.19 22.34-42.27 1.23-42.27 1.23z"/>
  <path class="s19" d="M1442.83 1151l-205.95.51a4.64 4.64 0 01-4.64-4.61v-16.63a4.63 4.63 0 014.61-4.63l206-.51a4.64 4.64 0 014.64 4.61v16.63a4.63 4.63 0 01-4.66 4.63z"/>
  <path class="s19" d="M1252.76 1187.06l-.14-60.2a1.27 1.27 0 011.27-1.28h4.23a1.3 1.3 0 011.28 1.28l.14 60.2a1.27 1.27 0 01-1.27 1.28h-4.22a1.29 1.29 0 01-1.29-1.28zM1433.62 1186.62l-.15-60.2a1.28 1.28 0 011.28-1.28h4.25a1.28 1.28 0 011.28 1.27l.15 60.2a1.28 1.28 0 01-1.28 1.28h-4.22a1.28 1.28 0 01-1.31-1.27z"/>
  <path class="s19" d="M1442.92 1187.87l-206 .51a4.64 4.64 0 01-4.64-4.61v-16.63a4.63 4.63 0 014.61-4.63l206-.51a4.63 4.63 0 014.63 4.61v16.63a4.63 4.63 0 01-4.6 4.63z"/>
  <path class="s20" d="M1239.11 1132.73a2.4 2.4 0 112.4 2.39 2.4 2.4 0 01-2.4-2.39zM1239.14 1144.62a2.4 2.4 0 112.4 2.38 2.4 2.4 0 01-2.4-2.38zM1239.2 1169.5a2.4 2.4 0 112.4 2.38 2.39 2.39 0 01-2.4-2.38zM1239.23 1181.38a2.4 2.4 0 112.4 2.39 2.4 2.4 0 01-2.4-2.39zM1434.48 1132.25a2.4 2.4 0 112.4 2.39 2.4 2.4 0 01-2.4-2.39zM1434.51 1144.14a2.4 2.4 0 112.4 2.38 2.39 2.39 0 01-2.4-2.38zM1434.57 1169a2.4 2.4 0 112.4 2.39 2.4 2.4 0 01-2.4-2.39zM1434.6 1180.9a2.4 2.4 0 112.4 2.39 2.4 2.4 0 01-2.4-2.39z"/>
  <path class="s9" d="M1179.77 1154.31s48.22 22.09 96.77 28l1.54-8.54s-64.3-42.82-80.27-41-18.04 21.54-18.04 21.54z"/>
  <path class="s9" d="M1278.08 1173.74s6.24-1 7.52-1.86a24.29 24.29 0 019.09-4.78c5.23-1.46 8.68-3.48 7.8-1.86s-8.15 7.26-6.67 7.56 16.15-2.69 16.74-1.27-12 10.31-16.3 10.75-19.72 0-19.72 0z"/>
  <path class="s29" d="M564.56 1097.52s20.58 6.33 17.12 33.21c-2 15.32-11.73 62.07-12.4 73s-6.46 58.11-10.76 65.29-16.32-1-15.26-10.59-7.77-46.54-5.57-62.65.42-44.5 3.24-64.16 15.6-37.03 23.63-34.1z"/>
  <path class="s29" d="M626.18 1256.59l-46.25 256.73-16 1s-12.58-111.8-1.8-150.39-18.61-87.41-10.35-120.88 74.4 13.54 74.4 13.54z"/>
  <path class="s9" d="M573 1114.77l40.39-6.57c1.92-6.56 2.47-15.58 2.5-23.55 0-9.89-.76-18.18-.76-18.18l-32.59-3.14-14.47-1.4c7.93 15.16 4.93 52.84 4.93 52.84z"/>
  <path class="s29" d="M571.77 1069.89s21.58 18.4 44.09 14.76c0-9.89-.76-18.18-.76-18.18l-32.59-3.14z"/>
  <path class="s9" d="M595.39 1319.83c8.17 22.74 15.52 45.91 11.84 64.9a128.73 128.73 0 00-2.09 17.35c-.29 5.43-.31 11-.09 16.49 1.8 44.76 18.84 90.38 21.48 97.19l.34.87 14.18-1.5 8.52-261.53s-67.16-34-70.77.29c-1.87 17.73 7.84 41.6 16.59 65.94z"/>
  <path class="s11" d="M556.69 1335.1s4.14.6 10.28 1.26c11.53 1.27 30.12 2.76 41.61 1 5.48-.84 8.55-9.88 10-22 3.2-26.92-1.58-69-5.93-70.92-6.31-2.7-62.24-.41-62.24-.41s-12.21 30.16 6.28 91.07z"/>
  <path class="s11" d="M566.07 1336.36c11.53 1.27 30.12 2.76 41.61 1 5.48-.84 8.54-9.88 10-22L587 1265.17l-23-9s-9.24 38.43 2.07 80.19z"/>
  <path class="s11" d="M651.6 1244.56s7.82 53.54 6 95.65c0 0-27.37 5.42-55.34 0 0 0-46.33-67.37-42.42-89s80.02-13.57 91.76-6.65z"/>
  <path class="s9" d="M625.38 1060s-37.64 29.84-55.87 6.11-35.36-35.86-12.09-55.92 34.94-14.63 43-8.19 34.29 49.61 24.96 58z"/>
  <path d="M530.69 1019.1a8.19 8.19 0 014.49 0c-3-5.62-.75-14.33-.75-14.33-.76 4.78 3.54 10.4 3.54 10.4.25-17.71 44-28.67 48.1-29.79s3.54-7.87 3.54-7.87c8.35 1.69 17.21 12.37 17 22.76s-8.86 30.36-14.43 30.64-3 4.77.76 11-1.13 23-8 28.87c-5.5 4.76-8.4.78-11.62-1a10.09 10.09 0 00-2.55-1c-12.77-2.85-26.06-15.47-32.66-31.57a43.22 43.22 0 01-3-16 23 23 0 00-4.42-2.11z" fill="#9eff94"/>
  <path class="s29" d="M605.05 1418.57c1.8 44.76 18.84 90.38 21.48 97.19l10.57-.63c-1.36-1.81-22.11-95.21-32-96.56z"/>
  <path class="s10" d="M561.74 1532.09h8.94c3-.42 5.21-1.19 8.28-1.54 4.67-.54 6.81 1.15 7.24 1.54l.08.07h38c1-1.2 0-4-.86-6.05a5.2 5.2 0 00-3.55-2.88c-4-1-12-2-19.24-7.77-4.09-3.27-19.76-12-19.76-12h-.08c-.34 0-2 .45-9.11 5.77-3.68 2.74-9.95-3.88-9.95-3.88a8.09 8.09 0 00-2.06 2.47 7.45 7.45 0 00-.82 5.15c.57 3-1.26 8.65-2.72 12.46-.89 2.3-1.63 3.94-1.63 3.94s-.45 1.86 7.24 2.72z"/>
  <path class="s10" d="M559.65 1507.79c2.13 1.33 6.64 4 9.63 4.29 4 .47 11.57-8.64 11.57-8.64h-.08c-.34 0-2 .45-9.11 5.77-3.68 2.74-9.95-3.88-9.95-3.88a8.09 8.09 0 00-2.06 2.46zM561.74 1532.09h8.94c3-.42 5.21-1.19 8.28-1.54 4.67-.54 6.81 1.15 7.24 1.54l.08.07h38c1-1.2 0-4-.86-6.05-1.15-.91-1.48 3.93-2.12 4.71s-31 .28-32.73-.85-7-3.1-14.34-1.55c-6.38 1.35-15.77-2.1-18.1-3-.89 2.3-1.63 3.94-1.63 3.94s-.45 1.87 7.24 2.73z"/>
  <path class="s10" d="M622.84 1532.09h8.95c3-.42 5.2-1.19 8.27-1.54 4.67-.54 6.81 1.15 7.24 1.54l.08.07h38c1-1.2 0-4-.86-6.05a5.2 5.2 0 00-3.55-2.88c-4-1-12-2-19.24-7.77-4.09-3.27-19.76-12-19.76-12h-.08c-.34 0-2 .45-9.1 5.77-3.69 2.74-10-3.88-10-3.88a8.09 8.09 0 00-2.06 2.47 7.45 7.45 0 00-.82 5.15c.57 3-1.26 8.65-2.72 12.46-.88 2.3-1.63 3.94-1.63 3.94s-.41 1.86 7.28 2.72z"/>
  <path class="s10" d="M620.75 1507.79c2.13 1.33 6.64 4 9.63 4.29 4 .47 11.57-8.64 11.57-8.64h-.08c-.34 0-2 .45-9.1 5.77-3.69 2.74-10-3.88-10-3.88a8.09 8.09 0 00-2.02 2.46zM622.84 1532.09h8.95c3-.42 5.2-1.19 8.27-1.54 4.67-.54 6.81 1.15 7.24 1.54l.08.07h38c1-1.2 0-4-.86-6.05-1.15-.91-1.48 3.93-2.11 4.71s-31 .28-32.74-.85-7-3.1-14.34-1.55c-6.37 1.35-15.77-2.1-18.1-3-.88 2.3-1.63 3.94-1.63 3.94s-.45 1.87 7.24 2.73z"/>
  <path class="s24" d="M549.32 1247s28.38 11.62 72.42 4.12c8-1.37 20.83-3.68 29.86-6.52l-9.9-101.94-1.73-48s-16.75-6.39-24.11-6.84c0 0-30.29 4.34-42.25 1.18 0 0-14.43 6.09-20.07 14s-14.74 82.6-4.22 144z"/>
  <path class="s24" d="M567.07 1093.26s-21.61 4.42-26.14 38.31c0 0 6.89-1.61 13.21 5.31s12.93-43.62 12.93-43.62z"/>
  <path class="s9" d="M631.72 1131.65c2.8-.77 48.82 50.64 62.31 48.25s45.83-33.66 45.83-33.66l-4.8-9.36s-36.53 12.06-38.64 9.41-45.14-43.78-49-42.8-15.7 28.16-15.7 28.16z"/>
  <path class="s24" d="M670 1121.15s-12.82 21.24-40.49 33.88c0 0-30.15-66.93-13.6-67.23-.05 0 31.47.55 54.09 33.35z"/>
  <path class="s9" d="M739.86 1146.24s16.39 2 19 0 12-14.59 8.74-15.5-12.89 4.62-15.73 3.17-19.44 3.88-19.44 3.88z"/>
  <path class="s9" d="M740 1137.37s2.83-3.86 4.8-4.62 4.92-4.15 5.46-3.61-.76 5.68-2.73 7.1-7.53 1.13-7.53 1.13z"/>
  <path class="s26" d="M754.34 1113.46s-2.83-9.61-14.51-7-11.32 27.21 7.54 31.28c21.86 4.74 31.47-24.66 6.97-24.28z"/>
  <path class="s26" d="M765.18 1107.62s-9.33 2.35-11.69 6.59c0 0 4.86-4.38 9.94-4.85 0 0 1.84-.66 1.75-1.74z"/>
  <path class="s7" d="M518.92 709.89s-226.44 448.7-54.35 822.11H290.22s-20.38-407.76 172.09-804z"/>
  <path class="s7" d="M440 928.44s130.83 5.19 216.38-112l11.03 4.56S590.3 949.32 424.35 961.1z"/>
  <path class="s7" d="M565.5 903.74c-4.52-79.91 31-140.47 31.29-141l5.37 2.75c-.28.54-27.5 54.64-23.07 132.81zM318.87 912.8c-32.09-9.91-60.19-27.92-80.78-50.28 1.45-3.63 2.95-7.27 4.47-10.88 18.45 18.84 44.14 33.41 74.8 42.86 3.55 1.09 2.45 18.58 1.51 18.3z"/>
  <path class="s7" d="M376.08 1064.23c-48.52-48.52-68.39-138.15-63.18-221.63 3.9-62.64 21.86-110.23 22.62-112.22l11.27 4.3c-.18.48-18.13 48.12-21.88 109-2.18 35.53.83 68.57 9 98.19 10.1 36.78 28.19 68.4 53.76 94z"/>
  <path d="M1200.58 508.1c-.07 75.44-24.33 174.46-150.07 179.16-147.45 5.51-125.77 138.11-256.39 167.55-51 11.49-105.55 11.18-155.55 2.8a336.5 336.5 0 01-15.86-3 409.76 409.76 0 01-41.81-10.87q-5.61-1.77-11-3.68c-36-12.69-66.15-29.66-85.74-48.79a98.9 98.9 0 01-14.76-17.93 73.08 73.08 0 00-19-20.22c-25.63-18.62-63.51-21.95-104.65-18.89-4 .29-8 .65-12 1.05-84.86 8.53-179.66 39.9-208.65 18.83 64.51-87.06 131.61-149.45 199.3-191.61 189.85-118.26 384.15-77.18 538 26 59.29 39.73 191.6 30.69 338.18-80.4z" fill="#47d25b"/>
  <path class="s32" d="M1776.55 430l-484.28-3.8q28.83-29.85 57.68-65.38c39.4-9.88 92.48-12.2 147.28 18 0 0 116.5-15 202.78 13 57.53 18.67 76.54 38.18 76.54 38.18zM2554.19 348.37l-750.48-5.26s51.45-64.93 174.48-57.72c0 0 178.62-108.22 369.09-14.43 0 0 66.56-7.64 151.62-6a574.3 574.3 0 0155.29 83.41zM1976.71 500.12a39.43 39.43 0 1139.43 39.42 39.43 39.43 0 01-39.43-39.42zM1449.93 564.15s23-27 78.07-24c0 0 79.92-45 165.15-6 0 0 90.59-9.67 157.68 8.37 44.74 12 59.51 24.66 59.51 24.66z"/>
  <path class="s26" d="M824 689.35s-11.82-4.82-18.47 8.91 18.1 32.9 37.13 17.35c22.06-18.03.42-50.95-18.66-26.26z"/>
  <path class="s33" d="M826.78 673.92s-5.06 11.16-2.71 16.88c0 0-.51-8.32 3.07-13.76 0-.04.8-2.35-.36-3.12z"/>
  <path class="s26" d="M310.68 645.72s-9.51-7-18.62 3.78 8.74 33.66 29.38 24c23.91-11.09 12.01-45.59-10.76-27.78z"/>
  <path class="s33" d="M316.71 632.5s-7.1 8.86-6.29 14.53c0 0 1.44-7.58 5.89-11.64 0 0 1.26-1.93.4-2.89z"/>
  <path class="s26" d="M714 776.09s-13.06-9.65-25.57 5.19 12 46.24 40.34 33c32.84-15.28 16.5-62.64-14.77-38.19z"/>
  <path class="s33" d="M722.27 758s-9.74 12.17-8.64 19.95c0 0 2-10.41 8.1-16 0-.05 1.72-2.7.54-3.95z"/>
  <path class="s26" d="M736.09 1508.33s-9.15-2.54-12.88 8.18 16.23 22.74 28.94 9.6c14.74-15.23-4.1-37.69-16.06-17.78z"/>
  <path class="s33" d="M736.81 1496.68s-2.77 8.69-.54 12.71c0 0-1.1-6.1 1.07-10.43 0 .04.39-1.81-.53-2.28z"/>
  <path class="s26" d="M242.82 1508.83s-1.49-9.38-12.79-8.32-14 24.2 3.28 30.32c19.97 7.09 32.58-19.37 9.51-22z"/>
  <path class="s33" d="M253.72 1504.65s-9.06 1.08-11.79 4.78c0 0 5.1-3.53 9.94-3.35 0 0 1.8-.39 1.85-1.43z"/>
  <path class="s34" d="M289.79 1507.24s-8.88-3.36-13.57 7 14.1 24.13 28 12.19c16.02-13.85-.7-37.92-14.43-19.19z"/>
  <path class="s33" d="M291.57 1495.71s-3.55 8.4-1.69 12.6c0 0-.54-6.17 2-10.29.01-.02.57-1.76-.31-2.31z"/>
  <path class="s26" d="M679.82 673.67s-7.67-5.66-15 3.05 7 27.15 23.68 19.4c19.28-8.99 9.68-36.8-8.68-22.45z"/>
  <path class="s33" d="M684.68 663s-5.72 7.14-5.07 11.71c0 0 1.16-6.11 4.75-9.39 0 .02 1.01-1.53.32-2.32z"/>
  <path class="s26" d="M623.21 554.09s-9.5-7-18.61 3.77 8.73 33.67 29.37 24.06c23.92-11.14 12.03-45.64-10.76-27.83z"/>
  <path class="s33" d="M629.24 540.87s-7.09 8.86-6.29 14.53c0 0 1.45-7.58 5.9-11.64 0 0 1.25-1.93.39-2.89z"/>
  <path class="s26" d="M504.94 651.55s-9.11-4.37-15 6.16 12.72 26.87 28.51 15.49c18.28-13.2 2.76-40.2-13.51-21.65z"/>
  <path class="s33" d="M507.89 639.49s-4.54 8.58-3 13.21c0 0 0-6.59 3.09-10.72.02.02.78-1.82-.09-2.49z"/>
  <path class="s26" d="M476.5 536.37s-9.1-4.38-15 6.15S474.21 569.39 490 558c18.29-13.17 2.77-40.23-13.5-21.63z"/>
  <path class="s33" d="M479.45 524.31s-4.54 8.57-3 13.2c0 0 0-6.59 3.09-10.72.04 0 .78-1.79-.09-2.48z"/>
  <path class="s26" d="M400.39 1500.91s-1.49-9.37-12.79-8.32-14 24.21 3.28 30.33c19.97 7.08 32.58-19.38 9.51-22.01z"/>
  <path class="s33" d="M411.29 1496.74s-9.06 1.08-11.79 4.78c0 0 5.1-3.53 9.94-3.35 0 0 1.8-.4 1.85-1.43z"/>
  <path class="s26" d="M429.4 1500.48s-8.75-3.67-13.8 6.49 13.23 24.61 27.5 13.18c16.54-13.25.68-37.91-13.7-19.67z"/>
  <path class="s33" d="M431.59 1489s-3.85 8.26-2.14 12.53c0 0-.32-6.19 2.38-10.21 0 .02.61-1.72-.24-2.32z"/>
  <path class="s34" d="M457.78 1475.26s-8.76-3.67-13.81 6.49 13.23 24.61 27.51 13.18c16.52-13.25.68-37.93-13.7-19.67z"/>
  <path class="s33" d="M460 1463.8s-3.85 8.26-2.15 12.53c0 0-.31-6.18 2.39-10.21-.03 0 .58-1.74-.24-2.32z"/>
  <path class="s26" d="M436.63 1450.34s-8.75-3.67-13.8 6.5 13.23 24.61 27.5 13.17c16.54-13.25.67-37.9-13.7-19.67z"/>
  <path class="s33" d="M438.82 1438.88s-3.85 8.27-2.14 12.54c0 0-.32-6.19 2.38-10.21 0 0 .62-1.75-.24-2.33z"/>
  <path class="s34" d="M499.48 1467.08s-1.91-9.3-13.16-7.73-12.83 24.82 4.66 30.14c20.28 6.17 31.67-20.84 8.5-22.41z"/>
  <path class="s33" d="M510.18 1462.41s-9 1.49-11.56 5.31c0 0 4.93-3.75 9.77-3.8 0 0 1.79-.48 1.79-1.51z"/>
  <path class="s26" d="M546 1491.42s-1.91-9.3-13.15-7.73-12.84 24.82 4.65 30.14c20.27 6.17 31.66-20.83 8.5-22.41z"/>
  <path class="s33" d="M556.69 1486.75s-9 1.49-11.56 5.31c0 0 4.93-3.75 9.77-3.8 0 0 1.79-.48 1.79-1.51z"/>
  <path class="s34" d="M503.4 1493.71s-8.41-4.41-14.31 5.28 11.07 25.66 26.27 15.49c17.64-11.78 3.93-37.71-11.96-20.77z"/>
  <path class="s33" d="M507.3 1482.48s-4.55 7.9-3.21 12.3c0 0 .21-6.19 3.25-10 0 .03.76-1.65-.04-2.3z"/>
  <path class="s35" d="M411.69 1477.68s-8.75-3.67-13.8 6.5 13.23 24.61 27.5 13.17c16.54-13.25.68-37.9-13.7-19.67z"/>
  <path class="s33" d="M413.88 1466.22s-3.85 8.27-2.14 12.54c0 0-.32-6.19 2.38-10.21 0 0 .61-1.75-.24-2.33z"/>
  <path class="s26" d="M466.3 1502.11s-8.75-3.67-13.8 6.49 13.23 24.61 27.5 13.18c16.54-13.25.68-37.91-13.7-19.67z"/>
  <path class="s33" d="M468.49 1490.65s-3.85 8.26-2.14 12.53c0 0-.32-6.19 2.38-10.21 0 .03.62-1.74-.24-2.32z"/>
  <path class="s19" d="M561.08 1494.87l-206 .51a4.63 4.63 0 01-4.63-4.61v-16.63a4.63 4.63 0 014.61-4.63l206-.51a4.63 4.63 0 014.63 4.61v16.63a4.62 4.62 0 01-4.61 4.63z"/>
  <path class="s19" d="M371 1530.94l-.15-60.19a1.29 1.29 0 011.28-1.29h4.22a1.29 1.29 0 011.28 1.28l.15 60.2a1.28 1.28 0 01-1.28 1.28h-4.2a1.28 1.28 0 01-1.3-1.28zM551.87 1530.5l-.14-60.2a1.27 1.27 0 011.27-1.3h4.23a1.29 1.29 0 011.28 1.27l.14 60.2a1.27 1.27 0 01-1.27 1.28h-4.23a1.28 1.28 0 01-1.28-1.25z"/>
  <path class="s19" d="M561.17 1531.75l-205.95.51a4.63 4.63 0 01-4.63-4.61v-16.63a4.63 4.63 0 014.61-4.63l206-.51a4.63 4.63 0 014.63 4.61v16.63a4.64 4.64 0 01-4.66 4.63z"/>
  <path class="s20" d="M357.37 1476.61a2.39 2.39 0 112.4 2.39 2.39 2.39 0 01-2.4-2.39zM357.4 1488.5a2.39 2.39 0 112.4 2.39 2.38 2.38 0 01-2.4-2.39zM357.46 1513.38a2.39 2.39 0 112.4 2.38 2.38 2.38 0 01-2.4-2.38zM357.49 1525.26a2.39 2.39 0 112.4 2.39 2.38 2.38 0 01-2.4-2.39zM552.74 1476.13a2.39 2.39 0 112.4 2.39 2.39 2.39 0 01-2.4-2.39zM552.77 1488a2.39 2.39 0 112.4 2.38 2.38 2.38 0 01-2.4-2.38zM552.83 1512.9a2.39 2.39 0 112.4 2.38 2.38 2.38 0 01-2.4-2.38zM552.86 1524.78a2.39 2.39 0 112.4 2.39 2.38 2.38 0 01-2.4-2.39z"/>
  <path class="s26" d="M505.24 1518s-.89-5.61-7.65-5-8.36 14.49 2 18.15c11.92 4.21 19.46-11.63 5.65-13.15z"/>
  <path class="s33" d="M511.77 1515.45s-5.42.65-7.06 2.86c0 0 3.05-2.11 6-2-.05 0 1.03-.24 1.06-.86z"/>
  <path class="s26" d="M2431.21 1466.82a4.74 4.74 0 114.74 4.74 4.74 4.74 0 01-4.74-4.74zM2514.16 1489.73a4.74 4.74 0 114.74 4.74 4.74 4.74 0 01-4.74-4.74zM2556.62 1419.82a4.74 4.74 0 114.74 4.74 4.74 4.74 0 01-4.74-4.74zM2571.88 1439.88a4.74 4.74 0 114.74 4.74 4.74 4.74 0 01-4.74-4.74z"/>
  <circle class="s26" cx="2607.18" cy="1480.25" r="4.74"/>
  <path class="s26" d="M2607.18 1368.05a4.74 4.74 0 114.74 4.74 4.74 4.74 0 01-4.74-4.74zM2661.1 1419.82a4.74 4.74 0 114.74 4.74 4.74 4.74 0 01-4.74-4.74zM2670.58 1312.78a4.74 4.74 0 114.74 4.74 4.74 4.74 0 01-4.74-4.74zM2646.88 1396.51a4.74 4.74 0 114.74 4.74 4.74 4.74 0 01-4.74-4.74zM2571.88 1288.68a4.74 4.74 0 114.74 4.74 4.74 4.74 0 01-4.74-4.74zM2651.62 1248.33a4.74 4.74 0 114.74 4.74 4.74 4.74 0 01-4.74-4.74zM2651.62 1269.33a4.74 4.74 0 114.74 4.74 4.74 4.74 0 01-4.74-4.74z"/>
  <path class="s36" d="M1615.27 1532.26l-2-.5c.78-3.48 2.73-73.52-19.25-114.36l1.78-1c22.31 41.43 20.2 112.98 19.47 115.86z"/>
  <path class="s19" d="M1590.31 1379.89s-6.92 14.51-2.71 21 7.69-12.05 2.71-21zM1586 1441.1s6.91-14.51 2.7-21-7.7 12.04-2.7 21z"/>
  <path class="s19" d="M1604.16 1384.32s-12.82 9.69-12.08 17.4 12.38-7.16 12.08-17.4zM1572.14 1436.66s12.82-9.69 12.08-17.4-12.37 7.16-12.08 17.4z"/>
  <path class="s19" d="M1614.29 1394.75s-15.82 2.82-18.65 10 14.27-.75 18.65-10zM1562 1426.87s15.82-2.82 18.66-10-14.27.73-18.66 10zM1617.57 1420.19s-12.68-9.88-19.93-7.17 10.11 10.1 19.93 7.17zM1557.54 1407.92s14.19 7.56 20.87 3.64-11.7-8.22-20.87-3.64z"/>
  <path class="s19" d="M1610.58 1431.23s-7.88-14-15.62-14.3 5.43 13.22 15.62 14.3zM1563 1392.47s7.88 14 15.62 14.3-5.41-13.22-15.62-14.3z"/>
  <path class="s19" d="M1600.21 1439.49s-1-16-7.88-19.66-.84 14.27 7.88 19.66zM1574.13 1384s1 16 7.88 19.66.84-14.32-7.88-19.66zM1618.38 1409.84s-15-5.73-21.15-1 12.62 6.68 21.15 1z"/>
  <circle class="s26" cx="1588.15" cy="1410.81" r="11.19"/>
  <path class="s36" d="M1611.41 1467.76s-9.73-9.9-23.15-10.57-17.56 0-17.56 0 8.26 8.73 18.11 10.57 22.6 0 22.6 0zM1609.4 1458.15c1.7-1.48 3-13.55 13.38-16.57a98.47 98.47 0 0117.79-3.6s-9 15.68-15.58 18-15.59 2.17-15.59 2.17zM1667.86 1532.26l-2.3-.59c.92-4.09 3.21-86.52-22.65-134.58l2.09-1.09c26.2 48.67 23.74 132.87 22.86 136.26z"/>
  <path class="s19" d="M1638.48 1352.94s-8.14 17.08-3.18 24.73 9.05-14.19 3.18-24.73zM1633.41 1425s8.14-17.07 3.18-24.72-9.05 14.15-3.18 24.72z"/>
  <path class="s19" d="M1654.78 1358.16s-15.09 11.4-14.21 20.48 14.56-8.43 14.21-20.48zM1617.11 1419.76s15.08-11.41 14.21-20.48-14.56 8.42-14.21 20.48z"/>
  <path class="s19" d="M1666.71 1370.44s-18.62 3.32-22 11.8 16.84-.9 22-11.8zM1605.18 1408.23s18.62-3.32 22-11.8-16.84.9-22 11.8zM1670.57 1400.37s-14.92-11.63-23.46-8.44 11.89 11.89 23.46 8.44zM1599.92 1385.93s16.69 8.9 24.56 4.29-13.76-9.67-24.56-4.29z"/>
  <path class="s19" d="M1662.34 1413.37s-9.27-16.49-18.38-16.84 6.39 15.56 18.38 16.84zM1606.37 1367.75s9.27 16.48 18.38 16.83-6.39-15.58-18.38-16.83z"/>
  <path class="s19" d="M1650.13 1423.09s-1.22-18.88-9.27-23.14-.99 16.79 9.27 23.14zM1619.44 1357.72s1.22 18.88 9.28 23.14.98-16.79-9.28-23.14zM1671.52 1388.19s-17.67-6.75-24.9-1.19 14.86 7.88 24.9 1.19z"/>
  <path class="s26" d="M1622.78 1389.33a13.17 13.17 0 1113.16 13.17 13.16 13.16 0 01-13.16-13.17z"/>
  <path class="s36" d="M1667 1489.6s-11.45-11.66-27.25-12.45-20.66 0-20.66 0 9.72 10.28 21.31 12.45 26.6 0 26.6 0zM1664.64 1478.29c2-1.74 3.5-16 15.75-19.5a115.28 115.28 0 0120.93-4.24s-10.61 18.46-18.34 21.22-18.34 2.52-18.34 2.52zM1604.41 1532.26l-1.37-.35c.55-2.46 1.92-51.92-13.59-80.75l1.25-.68c15.72 29.23 14.24 79.75 13.71 81.78z"/>
  <path class="s19" d="M1586.79 1424.67s-4.88 10.24-1.91 14.83 5.43-8.5 1.91-14.83zM1583.74 1467.89s4.89-10.25 1.91-14.84-5.42 8.51-1.91 14.84z"/>
  <path class="s19" d="M1596.57 1427.79s-9 6.85-8.53 12.29 8.74-5.08 8.53-12.29zM1574 1464.76s9.06-6.85 8.53-12.29-8.78 5.05-8.53 12.29z"/>
  <path class="s19" d="M1603.73 1435.16s-11.18 2-13.18 7.08 10.08-.53 13.18-7.08zM1566.81 1457.84s11.17-2 13.17-7.08-10.08.54-13.17 7.08zM1606 1453.12s-9-7-14.07-5.06 7.18 7.14 14.07 5.06zM1563.65 1444.46s10 5.34 14.74 2.57-8.26-5.8-14.74-2.57z"/>
  <path class="s19" d="M1601.11 1460.92s-5.57-9.89-11-10.1 3.8 9.34 11 10.1zM1567.52 1433.55s5.56 9.89 11 10.1-3.8-9.34-11-10.1z"/>
  <path class="s19" d="M1593.78 1466.75s-.73-11.32-5.57-13.88-.59 10.13 5.57 13.88zM1575.36 1427.53s.74 11.33 5.57 13.89.59-10.08-5.57-13.89zM1606.61 1445.82s-10.6-4-14.94-.72 8.92 4.73 14.94.72z"/>
  <path class="s26" d="M1577.37 1446.5a7.9 7.9 0 117.9 7.9 7.9 7.9 0 01-7.9-7.9z"/>
  <path class="s36" d="M1603.91 1506.66s-6.88-7-16.36-7.46-12.39 0-12.39 0 5.83 6.16 12.79 7.46 15.96 0 15.96 0zM1602.49 1499.88c1.19-1.05 2.1-9.57 9.44-11.7a69.24 69.24 0 0112.57-2.55s-6.37 11.08-11 12.74-11.01 1.51-11.01 1.51zM1527.9 1532.26l-2.29-.59c.92-4.09 3.21-86.52-22.65-134.58l2.09-1.12c26.2 48.7 23.74 132.9 22.85 136.29z"/>
  <path class="s19" d="M1498.53 1352.94s-8.14 17.08-3.18 24.73 9.04-14.19 3.18-24.73zM1493.45 1425s8.14-17.07 3.19-24.72-9.05 14.15-3.19 24.72z"/>
  <path class="s19" d="M1514.83 1358.16s-15.09 11.4-14.21 20.48 14.56-8.43 14.21-20.48zM1477.15 1419.76s15.09-11.41 14.21-20.48-14.56 8.42-14.21 20.48z"/>
  <path class="s19" d="M1526.76 1370.44s-18.63 3.32-22 11.8 16.84-.9 22-11.8zM1465.23 1408.23s18.62-3.32 22-11.8-16.84.9-22 11.8zM1530.61 1400.37s-14.91-11.63-23.45-8.44 11.9 11.89 23.45 8.44zM1460 1385.93s16.69 8.9 24.56 4.29-13.8-9.67-24.56-4.29z"/>
  <path class="s19" d="M1522.39 1413.37s-9.28-16.49-18.38-16.84 6.38 15.56 18.38 16.84zM1466.41 1367.75s9.28 16.48 18.39 16.83-6.39-15.58-18.39-16.83z"/>
  <path class="s19" d="M1510.18 1423.09s-1.22-18.88-9.28-23.14-.98 16.79 9.28 23.14zM1479.49 1357.72s1.22 18.88 9.28 23.14.98-16.79-9.28-23.14zM1531.57 1388.19s-17.67-6.75-24.9-1.19 14.86 7.88 24.9 1.19z"/>
  <circle class="s26" cx="1495.99" cy="1389.33" r="13.17" transform="rotate(-22.5 1496 1389.34)"/>
  <path class="s36" d="M1523.37 1456.36s-11.45-11.66-27.25-12.45-20.66 0-20.66 0 9.72 10.27 21.31 12.45 26.6 0 26.6 0zM1521 1445.05c2-1.74 3.5-16 15.75-19.5a115.28 115.28 0 0120.93-4.24s-10.61 18.46-18.34 21.22-18.34 2.52-18.34 2.52z"/>
  <path class="s36" d="M1570.28 1532.26l-2.29-.64c.92-4.43 3.21-93.6-22.65-145.6l2.09-1.21c26.2 52.69 23.74 143.78 22.85 147.45z"/>
  <path class="s19" d="M1540.91 1338.25s-8.14 18.48-3.18 26.75 9.04-15.34 3.18-26.75zM1535.83 1416.19s8.14-18.48 3.19-26.75-9.02 15.34-3.19 26.75z"/>
  <path class="s19" d="M1557.21 1343.89s-15.09 12.35-14.21 22.16 14.56-9.11 14.21-22.16zM1519.53 1410.54s15.09-12.34 14.21-22.15-14.56 9.11-14.21 22.15z"/>
  <path class="s19" d="M1569.14 1357.18s-18.63 3.59-22 12.77 16.86-.95 22-12.77zM1507.61 1398.07s18.62-3.59 22-12.76-16.84.97-22 12.76zM1573 1389.57s-14.91-12.58-23.45-9.13 11.89 12.86 23.45 9.13zM1502.35 1374s16.69 9.62 24.56 4.63-13.77-10.51-24.56-4.63z"/>
  <path class="s19" d="M1564.77 1403.63s-9.28-17.84-18.38-18.22 6.38 16.84 18.38 18.22zM1508.79 1354.27s9.28 17.84 18.39 18.22-6.39-16.84-18.39-18.22z"/>
  <path class="s19" d="M1552.56 1414.14s-1.22-20.42-9.28-25-.98 18.14 9.28 25zM1521.87 1343.42s1.22 20.43 9.28 25 .98-18.13-9.28-25zM1574 1376.39s-17.67-7.3-24.9-1.29 14.81 8.53 24.9 1.29z"/>
  <path class="s26" d="M1525.21 1377.63c0-7.87 5.89-14.25 13.16-14.25s13.17 6.38 13.17 14.25-5.9 14.24-13.17 14.24-13.16-6.38-13.16-14.24z"/>
  <path class="s36" d="M1569.44 1486.1s-11.46-12.6-27.25-13.46-20.66 0-20.66 0 9.72 11.11 21.31 13.46 26.6 0 26.6 0zM1567.07 1473.87c2-1.89 3.5-17.26 15.75-21.1a107.83 107.83 0 0120.93-4.59s-10.61 20-18.34 23-18.34 2.69-18.34 2.69zM1515.13 1532.26l-1.62-.42c.65-2.89 2.27-61.09-16-95l1.47-.8c18.52 34.37 16.77 93.83 16.15 96.22z"/>
  <path class="s19" d="M1494.39 1405.64s-5.75 12.06-2.25 17.46 6.39-10.02 2.25-17.46zM1490.8 1456.5s5.75-12 2.25-17.45-6.39 10.01-2.25 17.45z"/>
  <path class="s19" d="M1505.9 1409.32s-10.65 8.06-10 14.46 10.25-5.94 10-14.46zM1479.3 1452.82s10.65-8 10-14.46-10.25 5.95-10 14.46z"/>
  <path class="s19" d="M1514.32 1418s-13.15 2.35-15.5 8.34 11.86-.65 15.5-8.34zM1470.87 1444.68s13.15-2.34 15.51-8.33-11.86.65-15.51 8.33zM1517 1439.13s-10.53-8.21-16.56-6 8.44 8.44 16.56 6zM1467.16 1428.93s11.79 6.29 17.34 3-9.72-6.8-17.34-3z"/>
  <path class="s19" d="M1511.24 1448.31s-6.55-11.64-13-11.89 4.53 10.99 13 11.89zM1471.71 1416.09s6.55 11.64 13 11.89-4.53-10.98-13-11.89z"/>
  <path class="s19" d="M1502.62 1455.17s-.87-13.33-6.55-16.34-.7 11.86 6.55 16.34zM1480.94 1409s.86 13.33 6.56 16.34.69-11.85-6.56-16.34zM1517.72 1430.53s-12.48-4.76-17.58-.84 10.49 5.56 17.58.84z"/>
  <path class="s26" d="M1483.3 1431.34a9.3 9.3 0 119.3 9.29 9.3 9.3 0 01-9.3-9.29z"/>
  <path class="s36" d="M1514.53 1502.14s-8.08-8.23-19.24-8.79-14.59 0-14.59 0 6.87 7.25 15 8.79 18.83 0 18.83 0zM1512.86 1494.15c1.41-1.23 2.47-11.26 11.12-13.77a81.67 81.67 0 0114.78-3s-7.49 13-13 15-12.9 1.77-12.9 1.77zM1455.85 1532.26l-1.17-.3c.47-2.08 1.64-44-11.51-68.42l1.06-.57c13.32 24.76 12.07 67.57 11.62 69.29z"/>
  <path class="s19" d="M1440.92 1441.1s-4.14 8.68-1.62 12.56 4.6-7.21 1.62-12.56zM1438.34 1477.72s4.13-8.68 1.61-12.57-4.6 7.21-1.61 12.57z"/>
  <path class="s19" d="M1449.2 1443.75s-7.67 5.8-7.22 10.41 7.4-4.28 7.22-10.41zM1430.05 1475.07s7.67-5.8 7.22-10.42-7.4 4.29-7.22 10.42z"/>
  <path class="s19" d="M1455.27 1450s-9.47 1.69-11.17 6 8.54-.47 11.17-6zM1424 1469.21s9.46-1.69 11.16-6-8.55.45-11.16 6zM1457.23 1465.21s-7.59-5.91-11.93-4.29 6.05 6.08 11.93 4.29zM1421.31 1457.87s8.49 4.52 12.49 2.18-7-4.92-12.49-2.18z"/>
  <path class="s19" d="M1453.05 1471.82s-4.72-8.38-9.35-8.56 3.3 7.91 9.35 8.56zM1424.59 1448.62s4.71 8.38 9.34 8.56-3.24-7.91-9.34-8.56z"/>
  <path class="s19" d="M1446.84 1476.76s-.62-9.6-4.72-11.77-.5 8.54 4.72 11.77zM1431.24 1443.52s.62 9.6 4.71 11.77.5-8.54-4.71-11.77zM1457.71 1459s-9-3.43-12.65-.61 7.55 4.03 12.65.61z"/>
  <path class="s26" d="M1432.93 1459.6a6.7 6.7 0 116.7 6.69 6.7 6.7 0 01-6.7-6.69z"/>
  <path class="s36" d="M1453.54 1493.67s-5.82-5.92-13.85-6.32-10.5 0-10.5 0 4.94 5.22 10.83 6.32 13.52 0 13.52 0zM1452.34 1487.92c1-.88 1.78-8.11 8-9.91a58.84 58.84 0 0110.64-2.16s-5.4 9.39-9.33 10.79a30.76 30.76 0 01-9.31 1.28zM1487.31 1532.26l-1.37-.35c.55-2.45 1.92-51.76-13.55-80.52l1.25-.67c15.68 29.14 14.2 79.51 13.67 81.54z"/>
  <path class="s19" d="M1469.74 1425s-4.87 10.22-1.91 14.8 5.42-8.52 1.91-14.8zM1466.7 1468.07s4.87-10.21 1.91-14.79-5.42 8.48-1.91 14.79z"/>
  <path class="s19" d="M1479.49 1428.09s-9 6.83-8.5 12.26 8.71-5.04 8.5-12.26zM1457 1465s9-6.82 8.5-12.25-8.76 4.99-8.5 12.25z"/>
  <path class="s19" d="M1486.63 1435.44s-11.14 2-13.14 7.06 10.05-.5 13.14-7.06zM1449.81 1458.06s11.15-2 13.14-7.07-10.05.54-13.14 7.07zM1488.93 1453.35s-8.92-7-14-5 7.07 7.07 14 5zM1446.67 1444.71s10 5.32 14.69 2.57-8.23-5.79-14.69-2.57z"/>
  <path class="s19" d="M1484 1461.13s-5.55-9.87-11-10.08 3.84 9.31 11 10.08zM1450.52 1433.83s5.55 9.87 11 10.08-3.82-9.31-11-10.08z"/>
  <path class="s19" d="M1476.71 1466.94s-.73-11.29-5.55-13.84-.59 10.05 5.55 13.84zM1458.35 1427.83s.73 11.3 5.55 13.85.59-10.05-5.55-13.85zM1489.51 1446.06s-10.57-4-14.9-.71 8.89 4.72 14.9.71z"/>
  <path class="s26" d="M1460.34 1446.75a7.88 7.88 0 117.88 7.88 7.88 7.88 0 01-7.88-7.88z"/>
  <path class="s36" d="M1486.81 1506.73s-6.86-7-16.31-7.44-12.36 0-12.36 0 5.82 6.15 12.75 7.44 15.92 0 15.92 0zM1485.39 1500c1.19-1 2.1-9.54 9.42-11.67a68.64 68.64 0 0112.53-2.53s-6.35 11-11 12.69-10.95 1.51-10.95 1.51zM1449.36 1532.26l-.83-.21c.33-1.47 1.15-31.06-8.13-48.31l.75-.41c9.41 17.49 8.52 47.67 8.21 48.93z"/>
  <path class="s19" d="M1438.81 1467.89s-2.92 6.13-1.14 8.87 3.25-5.09 1.14-8.87zM1437 1493.75s2.92-6.13 1.14-8.88-3.26 5.13-1.14 8.88z"/>
  <path class="s19" d="M1444.66 1469.76s-5.41 4.09-5.1 7.35 5.23-3.02 5.1-7.35zM1431.14 1491.87s5.41-4.09 5.1-7.35-5.24 3.03-5.1 7.35z"/>
  <path class="s19" d="M1448.94 1474.17s-6.68 1.19-7.88 4.23 6.03-.32 7.88-4.23zM1426.86 1487.74s6.68-1.2 7.88-4.24-6.03.32-7.88 4.24zM1450.33 1484.91s-5.36-4.17-8.42-3 4.27 4.24 8.42 3zM1425 1479.73s6 3.19 8.81 1.54-4.97-3.47-8.81-1.54z"/>
  <path class="s19" d="M1447.38 1489.58s-3.33-5.92-6.6-6 2.29 5.54 6.6 6zM1427.28 1473.2s3.33 5.92 6.6 6-2.29-5.54-6.6-6z"/>
  <path class="s19" d="M1443 1493.07s-.43-6.78-3.33-8.31-.36 6.03 3.33 8.31zM1432 1469.6s.43 6.78 3.33 8.31.33-6.03-3.33-8.31zM1450.67 1480.54s-6.34-2.42-8.94-.43 5.34 2.83 8.94.43z"/>
  <path class="s26" d="M1433.17 1481a4.73 4.73 0 114.73 4.73 4.72 4.72 0 01-4.73-4.73z"/>
  <path class="s36" d="M1449.05 1516.94s-4.11-4.18-9.78-4.46a42.6 42.6 0 00-7.42 0s3.49 3.68 7.65 4.46a34.56 34.56 0 009.55 0zM1448.2 1512.89c.72-.63 1.26-5.73 5.66-7a42 42 0 017.51-1.52s-3.81 6.63-6.58 7.62a22.1 22.1 0 01-6.59.9zM1403.58 1532.26l-1.37-.35c.55-2.45 1.92-51.76-13.55-80.52l1.25-.67c15.67 29.14 14.2 79.51 13.67 81.54z"/>
  <path class="s19" d="M1386 1425s-4.87 10.22-1.91 14.8 5.42-8.52 1.91-14.8zM1383 1468.07s4.87-10.21 1.9-14.79-5.44 8.48-1.9 14.79z"/>
  <path class="s19" d="M1395.76 1428.09s-9 6.83-8.5 12.26 8.74-5.04 8.5-12.26zM1373.22 1465s9-6.82 8.5-12.25-8.72 4.99-8.5 12.25z"/>
  <path class="s19" d="M1402.89 1435.44s-11.14 2-13.13 7.06 10.05-.5 13.13-7.06zM1366.08 1458.06s11.14-2 13.14-7.07-10.05.54-13.14 7.07zM1405.2 1453.35s-8.92-7-14-5 7.09 7.07 14 5zM1362.94 1444.71s10 5.32 14.69 2.57-8.24-5.79-14.69-2.57z"/>
  <path class="s19" d="M1400.28 1461.13s-5.55-9.87-11-10.08 3.82 9.31 11 10.08zM1366.79 1433.83s5.55 9.87 11 10.08-3.79-9.31-11-10.08z"/>
  <path class="s19" d="M1393 1466.94s-.73-11.29-5.55-13.84-.61 10.05 5.55 13.84zM1374.61 1427.83s.73 11.3 5.55 13.85.59-10.05-5.55-13.85zM1405.77 1446.06s-10.57-4-14.89-.71 8.89 4.72 14.89.71z"/>
  <path class="s26" d="M1376.61 1446.75a7.88 7.88 0 117.88 7.88 7.88 7.88 0 01-7.88-7.88z"/>
  <path class="s36" d="M1400.87 1486.85s-6.86-7-16.31-7.45-12.36 0-12.36 0 5.82 6.15 12.75 7.45 15.92 0 15.92 0zM1399.45 1480.08c1.19-1 2.09-9.54 9.42-11.67a69.72 69.72 0 0112.53-2.53s-6.35 11-11 12.7-10.95 1.5-10.95 1.5z"/>
  <path class="s36" d="M1428.94 1532.26l-1.38-.38c.55-2.65 1.92-56-13.55-87.11l1.25-.73c15.68 31.52 14.2 86.03 13.68 88.22z"/>
  <path class="s19" d="M1411.36 1416.19s-4.87 11-1.9 16 5.41-9.19 1.9-16zM1408.33 1462.81s4.86-11 1.9-16-5.41 9.19-1.9 16z"/>
  <path class="s19" d="M1421.11 1419.56s-9 7.39-8.5 13.26 8.71-5.45 8.5-13.26zM1398.57 1459.44s9-7.39 8.5-13.26-8.71 5.45-8.5 13.26z"/>
  <path class="s19" d="M1428.25 1427.51s-11.14 2.15-13.14 7.64 10.05-.58 13.14-7.64zM1391.44 1452s11.14-2.15 13.13-7.64-10.05.56-13.13 7.64zM1430.56 1446.89s-8.93-7.53-14-5.46 7.08 7.69 14 5.46zM1388.29 1437.54s10 5.76 14.69 2.77-8.23-6.25-14.69-2.77z"/>
  <path class="s19" d="M1425.64 1455.3s-5.55-10.67-11-10.9 3.82 10.08 11 10.9zM1392.15 1425.77s5.55 10.67 11 10.9-3.83-10.07-11-10.9z"/>
  <path class="s19" d="M1418.33 1461.59s-.73-12.22-5.55-15-.59 10.89 5.55 15zM1400 1419.28s.73 12.22 5.55 15 .56-10.89-5.55-15zM1431.13 1439s-10.57-4.36-14.9-.77 8.89 5.1 14.9.77z"/>
  <ellipse class="s26" cx="1409.84" cy="1439.74" rx="7.88" ry="8.52"/>
  <path class="s36" d="M1428.43 1504.64s-6.85-7.54-16.31-8.05-12.35 0-12.35 0 5.81 6.65 12.75 8.05 15.91 0 15.91 0zM1427 1497.32c1.2-1.12 2.1-10.32 9.42-12.62a64.59 64.59 0 0112.58-2.7s-6.35 12-11 13.74-11 1.58-11 1.58zM1395.94 1532.26l-1-.25c.39-1.73 1.36-36.55-9.57-56.85l.88-.48c11.1 20.58 10.06 56.15 9.69 57.58z"/>
  <path class="s19" d="M1383.53 1456.5s-3.44 7.22-1.35 10.45 3.82-5.95 1.35-10.45zM1381.38 1486.94s3.44-7.22 1.35-10.45-3.82 5.99-1.35 10.45z"/>
  <path class="s19" d="M1390.41 1458.71s-6.37 4.82-6 8.65 6.15-3.56 6-8.65zM1374.5 1484.73s6.37-4.82 6-8.65-6.15 3.56-6 8.65z"/>
  <path class="s19" d="M1395.45 1463.9s-7.86 1.4-9.27 5 7.09-.4 9.27-5zM1369.46 1479.86s7.87-1.4 9.27-5-7.09.4-9.27 5zM1397.08 1476.54s-6.3-4.91-9.91-3.56 5.03 5.02 9.91 3.56zM1367.24 1470.44s7 3.76 10.37 1.81-5.81-4.08-10.37-1.81z"/>
  <path class="s19" d="M1393.61 1482s-3.92-7-7.77-7.11 2.7 6.6 7.77 7.11zM1370 1462.76s3.92 7 7.77 7.11-2.77-6.57-7.77-7.11z"/>
  <path class="s19" d="M1388.45 1486.14s-.51-8-3.92-9.78-.41 7.1 3.92 9.78zM1375.48 1458.52s.52 8 3.92 9.78.42-7.1-3.92-9.78zM1397.49 1471.4s-7.47-2.86-10.52-.51 6.28 3.33 10.52.51z"/>
  <circle class="s26" cx="1382.46" cy="1471.88" r="5.56"/>
  <path class="s36" d="M1395.58 1514.24s-4.84-4.93-11.51-5.26a51.75 51.75 0 00-8.73 0s4.11 4.34 9 5.26a41.54 41.54 0 0011.24 0zM1394.58 1509.46c.84-.74 1.48-6.74 6.65-8.24a49.21 49.21 0 018.85-1.79s-4.49 7.8-7.75 9a26 26 0 01-7.75 1.03z"/>
  <path class="s7" d="M2216.27 1451s-21.06-11.63-48.27 2.24-1.13 80.42 20.29 83.06 34.34-8.07 42.15-7.82 26.31 1.35 39.77-6.45 29.2-72.87-6.08-84.07c-22.66-7.17-47.86 13.04-47.86 13.04z"/>
  <path d="M2220.59 1427.38s-7.67 21.49-6.1 25.11 6.43 1.25 7.75-1.3 1.23-17 1.74-19.45-2.59-6.67-3.39-4.36z" fill="#db9958"/>
  <path class="s8" d="M2238.08 1533l-13.32 2.22a24.21 24.21 0 01-27.79-19.83l-6-35.83a24.21 24.21 0 0119.83-27.79l13.31-2.22a24.22 24.22 0 0127.8 19.83l6 35.83a24.21 24.21 0 01-19.83 27.79z"/>
  <path class="s26" d="M2316.12 1500.91s-1.48-9.37-12.79-8.32-13.95 24.21 3.28 30.33c19.97 7.08 32.59-19.38 9.51-22.01z"/>
  <path class="s33" d="M2327 1496.74s-9.06 1.08-11.78 4.78c0 0 5.09-3.53 9.93-3.35.02 0 1.85-.4 1.85-1.43z"/>
  <path class="s26" d="M2345.14 1500.48s-8.76-3.67-13.81 6.49 13.23 24.61 27.5 13.18c16.55-13.25.69-37.91-13.69-19.67z"/>
  <path class="s33" d="M2347.32 1489s-3.85 8.26-2.14 12.53c0 0-.31-6.19 2.38-10.21 0 .02.62-1.72-.24-2.32z"/>
  <path class="s34" d="M2373.51 1475.26s-8.76-3.67-13.81 6.49 13.24 24.61 27.51 13.18c16.54-13.25.68-37.93-13.7-19.67z"/>
  <path class="s33" d="M2375.7 1463.8s-3.85 8.26-2.14 12.53c0 0-.32-6.18 2.38-10.21 0 0 .61-1.74-.24-2.32z"/>
  <path class="s26" d="M2352.37 1450.34s-8.76-3.67-13.81 6.5 13.23 24.61 27.51 13.17c16.54-13.25.68-37.9-13.7-19.67z"/>
  <path class="s33" d="M2354.56 1438.88s-3.85 8.27-2.15 12.54c0 0-.31-6.19 2.38-10.21 0 0 .62-1.75-.23-2.33z"/>
  <path class="s34" d="M2415.21 1467.08s-1.91-9.3-13.15-7.73-12.84 24.82 4.66 30.14c20.28 6.17 31.66-20.84 8.49-22.41z"/>
  <path class="s33" d="M2425.91 1462.41s-9 1.49-11.56 5.31c0 0 4.93-3.75 9.77-3.8 0 0 1.79-.48 1.79-1.51z"/>
  <path class="s26" d="M2461.73 1491.42s-1.92-9.3-13.16-7.73-12.84 24.82 4.66 30.14c20.27 6.17 31.66-20.83 8.5-22.41z"/>
  <path class="s33" d="M2472.42 1486.75s-9 1.49-11.55 5.31c0 0 4.92-3.75 9.77-3.8 0 0 1.78-.48 1.78-1.51z"/>
  <path class="s34" d="M2419.13 1493.71s-8.41-4.41-14.31 5.28 11.07 25.66 26.27 15.49c17.62-11.78 3.91-37.71-11.96-20.77z"/>
  <path class="s33" d="M2423 1482.48s-4.54 7.9-3.21 12.3c0 0 .22-6.19 3.25-10 .03.03.79-1.65-.04-2.3z"/>
  <path class="s35" d="M2327.43 1477.68s-8.76-3.67-13.81 6.5 13.23 24.61 27.5 13.17c16.55-13.25.69-37.9-13.69-19.67z"/>
  <path class="s33" d="M2329.62 1466.22s-3.85 8.27-2.15 12.54c0 0-.31-6.19 2.38-10.21 0 0 .62-1.75-.23-2.33z"/>
  <path class="s26" d="M2382 1502.11s-8.76-3.67-13.81 6.49 13.23 24.61 27.51 13.18c16.58-13.25.72-37.91-13.7-19.67z"/>
  <path class="s33" d="M2384.22 1490.65s-3.85 8.26-2.14 12.53c0 0-.31-6.19 2.38-10.21 0 .03.62-1.74-.24-2.32z"/>
  <path class="s19" d="M2476.81 1494.87l-205.94.51a4.64 4.64 0 01-4.64-4.61v-16.63a4.63 4.63 0 014.61-4.63l205.95-.51a4.64 4.64 0 014.64 4.61v16.63a4.64 4.64 0 01-4.62 4.63z"/>
  <path class="s19" d="M2286.75 1530.94l-.15-60.19a1.3 1.3 0 011.28-1.29h4.22a1.28 1.28 0 011.28 1.28l.15 60.2a1.28 1.28 0 01-1.27 1.28H2288a1.28 1.28 0 01-1.25-1.28zM2467.61 1530.5l-.15-60.2a1.28 1.28 0 011.27-1.28h4.27a1.28 1.28 0 011.28 1.27l.15 60.2a1.28 1.28 0 01-1.28 1.28h-4.22a1.27 1.27 0 01-1.32-1.27z"/>
  <path class="s19" d="M2476.91 1531.75l-205.95.51a4.64 4.64 0 01-4.64-4.61v-16.63a4.63 4.63 0 014.61-4.63l206-.51a4.64 4.64 0 014.64 4.61v16.63a4.63 4.63 0 01-4.66 4.63z"/>
  <path class="s20" d="M2273.1 1476.61a2.4 2.4 0 112.4 2.39 2.4 2.4 0 01-2.4-2.39zM2273.13 1488.5a2.4 2.4 0 112.4 2.39 2.39 2.39 0 01-2.4-2.39zM2273.19 1513.38a2.4 2.4 0 112.4 2.38 2.39 2.39 0 01-2.4-2.38zM2273.22 1525.26a2.4 2.4 0 112.4 2.39 2.4 2.4 0 01-2.4-2.39zM2468.47 1476.13a2.4 2.4 0 112.4 2.39 2.4 2.4 0 01-2.4-2.39zM2468.5 1488a2.4 2.4 0 112.4 2.38 2.39 2.39 0 01-2.4-2.38zM2468.56 1512.9a2.4 2.4 0 112.4 2.38 2.39 2.39 0 01-2.4-2.38zM2468.59 1524.78a2.4 2.4 0 112.4 2.39 2.4 2.4 0 01-2.4-2.39z"/>
</svg>
