<svg xmlns="http://www.w3.org/2000/svg" width="13.785" height="16.973" viewBox="0 0 13.785 16.973">
  <defs>
    <style>.a{fill:#df3d3d;}</style>
  </defs>
  <path class="a" d="M222.8,154.7a.4.4,0,0,0-.4.4v7.512a.4.4,0,1,0,.795,0V155.1A.4.4,0,0,0,222.8,154.7Zm0,0"
        transform="translate(-213.558 -148.554)"/>
  <path class="a" d="M104.8,154.7a.4.4,0,0,0-.4.4v7.512a.4.4,0,1,0,.795,0V155.1A.4.4,0,0,0,104.8,154.7Zm0,0"
        transform="translate(-100.248 -148.554)"/>
  <path class="a"
        d="M1.126,5.051v9.793a2.193,2.193,0,0,0,.583,1.512,1.957,1.957,0,0,0,1.42.614H10.65a1.957,1.957,0,0,0,1.42-.614,2.193,2.193,0,0,0,.583-1.512V5.051a1.518,1.518,0,0,0-.39-2.986H10.228v-.5A1.561,1.561,0,0,0,8.654,0H5.124A1.561,1.561,0,0,0,3.55,1.569v.5H1.515a1.518,1.518,0,0,0-.39,2.986ZM10.65,16.176H3.129a1.259,1.259,0,0,1-1.208-1.332V5.086h9.937v9.758a1.259,1.259,0,0,1-1.208,1.332ZM4.345,1.569A.766.766,0,0,1,5.124.794h3.53a.766.766,0,0,1,.779.775v.5H4.345ZM1.515,2.86H12.263a.715.715,0,1,1,0,1.431H1.515a.715.715,0,1,1,0-1.431Zm0,0"
        transform="translate(0.003 0.002)"/>
  <path class="a" d="M163.8,154.7a.4.4,0,0,0-.4.4v7.512a.4.4,0,1,0,.795,0V155.1A.4.4,0,0,0,163.8,154.7Zm0,0"
        transform="translate(-156.903 -148.554)"/>
</svg>
