<svg xmlns="http://www.w3.org/2000/svg" width="16.291" height="16.291" viewBox="0 0 16.291 16.291"><defs><style>.a{opacity:0.191;}</style></defs><g class="a" transform="translate(-3.375 -3.375)"><path d="M18.45,17.563,16.386,15.5l2.064-2.064a.626.626,0,0,0-.885-.885L15.5,14.614,13.437,12.55a.626.626,0,1,0-.885.885L14.616,15.5l-2.064,2.064a.605.605,0,0,0,0,.885.622.622,0,0,0,.885,0L15.5,16.384l2.064,2.064a.629.629,0,0,0,.885,0A.622.622,0,0,0,18.45,17.563Z" transform="translate(-3.98 -3.978)"/><path d="M11.521,4.472A7.046,7.046,0,1,1,6.535,6.535a7,7,0,0,1,4.985-2.064m0-1.1a8.146,8.146,0,1,0,8.146,8.146,8.144,8.144,0,0,0-8.146-8.146Z"/></g></svg>