<svg xmlns="http://www.w3.org/2000/svg" width="21.623" height="20.791" viewBox="0 0 21.623 20.791"><defs><style>.a{fill:#f21414;}</style></defs><path class="a" d="M19.176,3.938h-.052a5.914,5.914,0,0,0-4.938,2.7,5.914,5.914,0,0,0-4.938-2.7H9.2A5.877,5.877,0,0,0,3.375,9.811a12.653,12.653,0,0,0,2.485,6.9,43.541,43.541,0,0,0,8.327,8.02,43.541,43.541,0,0,0,8.327-8.02A12.653,12.653,0,0,0,25,9.811,5.877,5.877,0,0,0,19.176,3.938Zm2.162,11.913A39.867,39.867,0,0,1,14.187,22.9a39.927,39.927,0,0,1-7.152-7.053,11.214,11.214,0,0,1-2.2-6.035A4.41,4.41,0,0,1,9.207,5.4h.047a4.358,4.358,0,0,1,2.136.561,4.542,4.542,0,0,1,1.58,1.481,1.46,1.46,0,0,0,2.443,0,4.587,4.587,0,0,1,1.58-1.481A4.358,4.358,0,0,1,19.13,5.4h.047a4.41,4.41,0,0,1,4.377,4.413A11.355,11.355,0,0,1,21.339,15.851Z" transform="translate(-3.375 -3.938)"/></svg>