<svg xmlns="http://www.w3.org/2000/svg" viewBox="0 0 3107 450">
  <title>Les Choux d'à Côté</title>
  <g fill="#1d1d1b">
    <path fill="#60b45a" d="M2692.56,88.08c2.87,7.67,5.85,15.5,11.1,21.79s13.27,10.87,21.4,9.84a13.65,13.65,0,0,0,6.71-2.62c3.21-2.53,4.72-6.76,4.76-10.84s-1.19-8.06-2.65-11.88a105.15,105.15,0,0,0-25.65-38.55c-7.12-6.77-20.63-12.45-22,1.45C2685.14,67.84,2688.92,78.35,2692.56,88.08Z" />
    <path fill="#fff" d="M2710.42,103.84A90.17,90.17,0,0,1,2692,81c-1.68.43-2.63,2.32-2.58,4a11.51,11.51,0,0,0,1.64,4.86c1,2,2,3.91,3,5.87,2.85,5.51,5.73,11.08,9.77,15.79s10.41,9.14,16.53,10.12c3.81.61,22-5.86,15.4-11.5-2.24-1.9-9,1-11.68.85C2718.79,110.7,2714.23,107.26,2710.42,103.84Z" />
    <path fill="#95cbb1" d="M2721.88,93a62.48,62.48,0,0,0-17-18.93c-1-.72-2.22-1.45-3.35-1-2.5,1-.46,5.29-2.2,7.36a20.83,20.83,0,0,0-5.71-4.19,7,7,0,0,0-6.8.37,8.51,8.51,0,0,0-2.79,4.59,63.45,63.45,0,0,1-1.33-18.84c.14-1.82.43-3.77,1.7-5.07s3.43-1.66,5.33-1.53c6,.41,11.25,4.15,15.61,8.3,3,2.83,5.7,5.91,8.42,9a53.44,53.44,0,0,1,3.4,5C2721.28,83.85,2721.88,93,2721.88,93Z" />
    <path fill="#60b45a" d="M2669,76.6c-12.48,22.07-27,39.08-50.63,48.28-6.13,2.39-14,2.06-20.59,1.5s-13.18-3.95-16.15-9.83c-2.84-5.6-2-12.44.39-18.26,5.93-14.71,19.93-24.53,34.1-31.64a184.86,184.86,0,0,1,43.21-15.32c5.75-1.27,14.17-4.49,17.92,1.81C2680.81,59.17,2672,71.31,2669,76.6Z" />
    <path fill="#95cbb1" d="M2630.67,66.61c-2.93,1.17-6.12,2.59-9.12,1.63,1.93-4.14,6.94-5.61,11.28-7,11-3.64,21.68-10,33.26-9.24,1.12.07,2.41.32,2.93,1.31.6,1.17-.24,2.53-1.09,3.53-2.1,2.47-5.27,6.28-8.44,7.37-2.33.79-4.79-.43-7.14-.75C2645,62.42,2637.48,63.91,2630.67,66.61Z" />
    <path fill="#60b45a" d="M2637.33,92c-6,4.08-23.4,12.14-30.22,9.68,17.58-13.84,44.13-33.16,61.71-47,1.76-1.38,3.66-2.82,5.88-3a3,3,0,0,1,2.09.52c1.42,1.11.85,3.35.14,5-3.36,7.92-5,11.06-13.48,19.3C2663.45,76.51,2650.13,84.57,2637.33,92Z" />
    <path fill="#cde7de" d="M2613.39,86.73a177.07,177.07,0,0,0,23-14.41c7.39-5.25,15.56-10.07,24.6-10.76a72.62,72.62,0,0,1-10.4,9.57l-12.91,10.43a96.59,96.59,0,0,1-12.38,9c-4.49,2.57-18.61,10.19-23.93,7.56C2593.17,94,2610.28,88.34,2613.39,86.73Z" />
    <path fill="#fff" d="M2626.84,109.66c-8,3.67-14.79,6.75-23.48,5.33s-17-7.76-18.49-16.43c-8,2.46-10.65,13.54-6.54,20.79s12.75,10.84,21.05,11.64c13.21,1.26,26.58-3.38,37.32-11.19,3.66-2.67,29.81-27.84,24.23-31.5C2660.48,88,2630.87,107.82,2626.84,109.66Z" />
    <path d="M2679.33,47.75C2671.06,66,2662,84.83,2647.88,99.39a83.23,83.23,0,0,1-21.15,16.1c-7.45,3.89-15.83,7-24.35,6.82-7.66-.17-15.45-3.65-18.29-10.82-.09-.25-.41-1.33-.54-1.87s-.17-.81-.24-1.22c-.15-.9.05,1.07-.06-.48a19.7,19.7,0,0,1,0-2.43,11.83,11.83,0,0,1,.14-1.46c-.13.83.15-.66.15-.67.18-.81.41-1.6.67-2.39.16-.47.35-.94.52-1.41.53-1.5-.23.43.17-.43a34.55,34.55,0,0,1,3-5.17,44.54,44.54,0,0,1,7-7.71,77.47,77.47,0,0,1,9.55-7.13A138,138,0,0,1,2628.07,67c18.52-7.44,38.29-11.41,57.78-15.37l-4.32-8L2647.68,68c-9.86,7.09-19.56,14.65-30.15,20.64A70.13,70.13,0,0,1,2599.82,96c-5.58,1.37-3.5,10,2.09,8.67,11.78-2.84,22.29-9,32.19-15.8,11.21-7.71,22.21-15.75,33.29-23.64L2687,51.24c1.91-1.36,3.08-3.46,2.13-5.82a4.74,4.74,0,0,0-5.46-2.91c-18.84,3.73-37.79,7.56-55.83,14.29a146.33,146.33,0,0,0-26.19,12.5c-7.85,4.89-15.2,10.45-20.86,17.82-5.19,6.75-8.45,15.23-6.86,23.8,1.79,9.68,10.11,17,19.31,19.54,9.76,2.74,20,.61,29.27-3a80.58,80.58,0,0,0,24.79-15.75c18.18-16.52,29.07-39,35.94-62.27.66-2.24-2.87-4-3.89-1.72Z" />
    <path d="M2687.29,43.27a29,29,0,0,0-2.69,3.92,17.89,17.89,0,0,0-1.41,5,47.52,47.52,0,0,0-.82,10.44,80.61,80.61,0,0,0,3.26,20.05,122.88,122.88,0,0,0,7.62,19.58c3.4,7,7.7,13.74,14.18,18.25a24.23,24.23,0,0,0,18.77,3.81,18.32,18.32,0,0,0,13.89-14.41c1.4-7.52-.54-15-3.39-22a105.07,105.07,0,0,0-10.2-19c-9.42-13.94-22.29-25.65-38.64-30.61-4-1.2-7.75,3.37-5.67,7l25.54,44.91c3.15,5.54,11.88.85,8.72-4.68l-25.63-44.87-5.67,7c12,3.61,21.79,11.57,29.57,21.4a93.66,93.66,0,0,1,10,16c2.77,5.48,5.45,11.21,6.12,17.38a16.12,16.12,0,0,1-.68,7.21,9.06,9.06,0,0,1-3.87,4.58c-3.54,1.94-8.8,1.47-12.48-.52-5.51-3-9.09-8.46-12-13.85a109.57,109.57,0,0,1-7.3-16.61,76.67,76.67,0,0,1-4.13-19,84.74,84.74,0,0,1,0-10.08c.08-1.62.38-3.23.46-4.85s-.3-3.42-.36-5.08a1.78,1.78,0,0,0-3.26-1Z" />
    <path d="M2682.26,51.16a94.94,94.94,0,0,1,12.87-17.66,124.08,124.08,0,0,1,16.38-14.95c2.2-1.64,2-5.34.23-7.18a5.17,5.17,0,0,0-7.18-.24,79.19,79.19,0,0,0-15.9,17.54,91.59,91.59,0,0,0-10.09,20.87c-.73,2.17,2.55,3.61,3.69,1.62Z" />
    <path d="M99.33,133.05h14.39V317.52H227.38v13h-128Z" />
    <path d="M400.54,317.52v13H264.32V133.05h132v13H278.71v77.83H383.9v12.7H278.71v80.95Z" />
    <path d="M463.58,324.43Q444,317,433,305.1l6.5-10.72q10.42,11,28.06,17.9a100.42,100.42,0,0,0,37.09,6.91q28.18,0,42.58-10.69t14.38-27.94q0-13.24-7.62-21.16a50.57,50.57,0,0,0-18.89-12.12,260.1,260.1,0,0,0-30.45-8.74q-21.74-5.34-34.83-10.44a55.3,55.3,0,0,1-22.29-15.66q-9.18-10.56-9.17-28.32A48.23,48.23,0,0,1,446,157.75q7.6-12,23.26-19.05t39.07-7a110.34,110.34,0,0,1,32.15,4.8,94.75,94.75,0,0,1,27.36,13L562.43,161a91,91,0,0,0-26.09-12.41,97.86,97.86,0,0,0-28.06-4.23q-27.36,0-41.47,11t-14.09,28.48c0,8.84,2.54,15.91,7.61,21.16a50.37,50.37,0,0,0,18.9,12.12,283.06,283.06,0,0,0,30.75,9q21.71,5.37,34.68,10.45a57.24,57.24,0,0,1,22.15,15.37Q576,262.25,576,279.72A47,47,0,0,1,568.22,306q-7.77,11.85-23.84,18.89t-39.49,7.05A114.94,114.94,0,0,1,463.58,324.43Z" />
    <path d="M728.41,318.92a95.9,95.9,0,0,1-36.66-35.81q-13.39-22.86-13.4-51.34t13.4-51.32a95.74,95.74,0,0,1,36.66-35.83q23.28-12.94,52.32-13a109.45,109.45,0,0,1,39.48,6.91A81.33,81.33,0,0,1,851,159l-9,9.3q-23.68-23.38-60.64-23.42-24.81,0-45.12,11.3a82.45,82.45,0,0,0-31.87,31.17q-11.56,19.86-11.57,44.41T704.3,276.2a82.4,82.4,0,0,0,31.87,31.15q20.3,11.29,45.12,11.29,36.68,0,60.64-23.68l9,9.29a82.28,82.28,0,0,1-30.88,20.59,107.9,107.9,0,0,1-39.34,7.05Q751.68,331.89,728.41,318.92Z" />
    <path d="M1060,133.05V330.49h-14.4V236.57h-132v93.92H899.18V133.05h14.39v90.82h132V133.05Z" />
    <path d="M1160.06,318.78a96.55,96.55,0,0,1-36.8-36q-13.4-22.81-13.39-51t13.39-51.05a96.74,96.74,0,0,1,36.8-36q23.42-13.12,52.46-13.11t52.46,13a95.65,95.65,0,0,1,36.81,35.83q13.39,22.82,13.4,51.32t-13.4,51.34A95.81,95.81,0,0,1,1265,318.92q-23.42,13-52.46,13T1160.06,318.78Zm97.31-11.43A83,83,0,0,0,1289,276.2q11.57-19.89,11.57-44.43T1289,187.36a83.06,83.06,0,0,0-31.58-31.17q-20-11.3-44.85-11.3t-45,11.3a82.81,82.81,0,0,0-31.72,31.17q-11.57,19.86-11.56,44.41t11.56,44.43a82.75,82.75,0,0,0,31.72,31.15q20.17,11.29,45,11.29T1257.37,307.35Z" />
    <path d="M1384.15,310.17q-20.73-21.69-20.73-63.46V133.05h14.38V246.16q0,36.39,16.64,54.42t48.23,18.06q31.3,0,47.95-18.06t16.64-54.42V133.05h14.38V246.71q0,41.76-20.87,63.46t-58.38,21.72Q1404.88,331.89,1384.15,310.17Z" />
    <path d="M1709.76,330.49l-68-91.38-67.68,91.38h-16.92L1633,228.67l-70.51-95.62h16.93l62.89,84.9,62.9-84.9h16.08l-70.51,95.34,75.86,102.1Z" />
    <path d="M1839.49,133.05h78.13q30.74,0,54.57,12.69a92.76,92.76,0,0,1,37.09,35.12q13.26,22.41,13.26,50.91t-13.26,50.91a92.74,92.74,0,0,1-37.09,35.11q-23.82,12.7-54.57,12.7h-78.13Zm77,184.47q27.35,0,48.22-10.86a77.85,77.85,0,0,0,32.16-30.32q11.26-19.48,11.28-44.57t-11.28-44.55a77.6,77.6,0,0,0-32.16-30.32Q1943.84,146,1916.5,146h-62.61V317.52Z" />
    <path d="M2053.58,133.05h13l-1.13,72.78h-10.71Z" />
    <path d="M2231.53,274.92H2117l-25.1,55.57h-15.51l90.81-197.44h14.39l90.81,197.44h-15.5Zm-5.36-12.12-51.89-113.94L2122.66,262.8Zm-95-179.1h20.3l39.2,33.28H2175.4Z" />
    <path d="M2411.89,318.92a95.93,95.93,0,0,1-36.67-35.81q-13.39-22.86-13.39-51.34t13.39-51.32a95.77,95.77,0,0,1,36.67-35.83q23.27-12.94,52.32-13a109.45,109.45,0,0,1,39.48,6.91A81.48,81.48,0,0,1,2534.43,159l-9,9.3q-23.68-23.38-60.64-23.42-24.83,0-45.12,11.3a82.38,82.38,0,0,0-31.87,31.17q-11.57,19.86-11.57,44.41t11.57,44.43a82.33,82.33,0,0,0,31.87,31.15q20.29,11.29,45.12,11.29,36.66,0,60.64-23.68l9,9.29a82.36,82.36,0,0,1-30.88,20.59,107.94,107.94,0,0,1-39.34,7.05Q2435.16,331.89,2411.89,318.92Z" />
    <path d="M2609.74,318.78a96.51,96.51,0,0,1-36.81-36q-13.39-22.81-13.39-51t13.39-51.05a96.7,96.7,0,0,1,36.81-36q23.4-13.12,52.45-13.11t52.46,13a95.61,95.61,0,0,1,36.82,35.83q13.4,22.82,13.39,51.32t-13.39,51.34a95.77,95.77,0,0,1-36.82,35.81q-23.42,13-52.46,13T2609.74,318.78Zm97.3-11.43a83.11,83.11,0,0,0,31.59-31.15q11.57-19.89,11.56-44.43t-11.56-44.41A83.16,83.16,0,0,0,2707,156.19q-20-11.3-44.85-11.3t-45,11.3a82.74,82.74,0,0,0-31.72,31.17q-11.56,19.86-11.57,44.41t11.57,44.43a82.69,82.69,0,0,0,31.72,31.15q20.17,11.29,45,11.29T2707,307.35Z" />
    <path d="M2849.75,146h-71.07v-13h156.53v13h-71.07V330.49h-14.39Z" />
    <path d="M3107,317.52v13H2970.74V133.05h132v13H2985.13v77.83h105.19v12.7H2985.13v80.95ZM3060.15,83.7h20.3L3036.18,117H3021Z" />
    <path fill="#60b45a" d="M61.68,114.29c-8.61-3.81-17.44-7.65-27-8.53s-20.12,1.73-26.29,8.84a15,15,0,0,0-3.69,7.26c-.74,4.47,1.35,9,4.58,12.21s7.49,5.41,11.79,7.28A128.24,128.24,0,0,0,74,151.78c11.55-.19,27.73-6.19,17.8-18.2C84.27,124.45,72.6,119.12,61.68,114.29Z" />
    <path fill="#fff" d="M33.69,115.73a111.94,111.94,0,0,1,34.16,3.72c1.09-1.63.4-3.86-1-5.18a13.7,13.7,0,0,0-5.32-2.55l-7.29-2.27c-6.86-2.13-13.8-4.28-21-4.85s-16.27.88-22.33,4.85c-3.77,2.48-14.27,21.67-4,21,3.45-.24,6.94-7.76,9.37-9.71C21,116.83,27.67,116,33.69,115.73Z" />
    <path fill="#95cbb1" d="M32.53,133.16a77.56,77.56,0,0,0,29.76,1.74c1.42-.19,3.07-.58,3.68-1.82,1.34-2.73-3.84-4.52-4-7.48a26.12,26.12,0,0,0,8.27-1.14c2.63-1,5-3,5.56-5.56a8.77,8.77,0,0,0-1.28-5.76,69.94,69.94,0,0,1,16.23,13.78c1.33,1.54,2.65,3.29,2.6,5.3s-1.63,4-3.37,5.33c-5.49,4.33-13,5.45-20.08,5.57-4.82.08-9.63-.24-14.43-.55a62.4,62.4,0,0,1-6.92-1.28C40.34,139.85,32.53,133.16,32.53,133.16Z" />
    <path fill="#60b45a" d="M91.17,105c-6.93-27-8-51.63,4.93-77.15,3.37-6.63,10.42-12.49,16.52-17.13S127.13,3.66,134.39,6c6.93,2.2,11.64,8.26,14.28,14.66,6.67,16.16,2.49,34.72-4,51.28a207,207,0,0,1-24.93,45.51c-3.93,5.45-8.6,14.5-16.88,12.45C94.93,127.91,92.83,111.52,91.17,105Z" />
    <path fill="#95cbb1" d="M132.13,83.23c1.59-3.19,3.19-6.77,6.55-8.34,1.65,4.75-1.49,9.78-4.08,14.27-6.57,11.39-10.69,24.62-21.23,33-1,.81-2.33,1.62-3.57,1.23-1.45-.44-1.82-2.17-1.89-3.6-.17-3.58-.49-9,1.37-12.34,1.37-2.43,4.47-3.38,6.74-4.94C123.12,97.64,128.43,90.63,132.13,83.23Z" />
    <path fill="#60b45a" d="M106.11,68.46c1.9-7.85,10.42-27.66,18.26-31-4.05,24.5-11.44,60.24-15.5,84.74-.4,2.44-.88,5-2.68,6.88a3.75,3.75,0,0,1-2.22,1.21c-2.11.23-3.41-2-4.13-3.83-3.44-8.83-4.54-12.58-3.84-25.61C96,100.84,101,84.19,106.11,68.46Z" />
    <path fill="#cde7de" d="M130.91,54c-4.26,11.3-6.07,19.26-8.24,29.11s-5.33,20-12.56,27.5c-.28-5.19.5-10.4,1.29-15.58q1.38-9.09,2.77-18.19a100.64,100.64,0,0,1,3.49-16.62c1.8-5.5,7.86-22.43,14.55-24.47C142.47,32.65,132.29,50.37,130.91,54Z" />
    <path fill="#fff" d="M101,46.43c4-9.08,7.34-16.76,16-22.37S137.75,17,146,22.66c4.88-8.11-1.68-18.9-11-21.42S115.31,2.59,107.53,8.4C95.15,17.64,87.36,31.64,84.37,46.09c-1,4.93-3.38,45,4.35,43.53C89.35,89.5,99,51,101,46.43Z" />
    <path d="M105.35,135.74C97.85,115,90.62,93.15,91.08,70.8a88.09,88.09,0,0,1,5.31-29c3.3-8.83,8-17.77,15.5-24.22,6.73-5.8,16.23-9.1,24.4-5.67.29.12,1.43.73,2,1.06s.8.5,1.18.77c.85.59-.89-.8.43.33a19.64,19.64,0,0,1,2,1.91c.37.4.72.82,1,1.25-.56-.75.39.64.4.65a26.76,26.76,0,0,1,1.33,2.39c.25.5.46,1,.69,1.51.74,1.6-.15-.51.2.47a36.9,36.9,0,0,1,1.56,6.38,46.11,46.11,0,0,1,.14,11.5,81,81,0,0,1-2.51,13A150,150,0,0,1,134,80.89c-10,20.18-23.82,38.62-37.42,56.82l10.14,3q4.82-22.68,9.64-45.35c2.8-13.21,5.11-26.67,9.43-39.58a77.29,77.29,0,0,1,9.39-19.46c3.7-5.4-5-10.58-8.74-5.19-7.87,11.35-12,24.32-15.06,37.34-3.48,14.74-6.51,29.58-9.73,44.37L96,138.92c-.56,2.56.12,5.1,2.82,6.23a5.9,5.9,0,0,0,7-2c13.22-17.52,26.47-35.2,36.61-54.46A159.21,159.21,0,0,0,155,58.62c2.85-9.91,4.72-20,3.69-30.16-.93-9.31-4.92-18.51-13.14-24-9.29-6.22-22.27-5.51-32.27-.41-10.59,5.41-17.73,15-22.81,25a86.3,86.3,0,0,0-8.73,31.58c-2.43,27.07,6.23,53.2,18.92,76.78,1.22,2.28,5.64.9,4.72-1.66Z" />
    <path d="M102.08,145.43a29.82,29.82,0,0,0-.82-5.16,19.25,19.25,0,0,0-2.79-5,51,51,0,0,0-7.66-8.84A91.34,91.34,0,0,0,72,113.16a145.31,145.31,0,0,0-22.24-9.48c-8.52-2.85-17.63-4.83-26.81-3.36A29.78,29.78,0,0,0,3.71,111.86a19.19,19.19,0,0,0-.42,22.08c4.81,7,12.47,11.37,20.49,14.63a127.47,127.47,0,0,0,24,7.08c19.26,3.65,39.71,2.89,57.76-5.88,4.39-2.13,4-8.64-.74-9.91L46.89,124.34c-7.14-1.91-10.91,8.53-3.76,10.43l58,15.42-.75-9.91c-13.21,6.45-28,7.78-42.59,6.08a114.89,114.89,0,0,1-21.4-4.78c-6.77-2.16-13.66-4.59-19.18-8.93A17.15,17.15,0,0,1,12,126.46a9.38,9.38,0,0,1-.33-6.59c1.49-4.27,6.4-8,11.16-9.25,7.14-1.92,14.59-.4,21.39,1.59a132.25,132.25,0,0,1,19.59,7.41,86.89,86.89,0,0,1,18.78,11.76,93,93,0,0,1,8.06,7.94c1.23,1.33,2.26,2.83,3.47,4.17s3,2.45,4.39,3.71a2.12,2.12,0,0,0,3.57-1.77Z" />
    <path d="M100.1,135.32a97.86,97.86,0,0,1,3.05,23.86A130.29,130.29,0,0,1,101,183.61c-.57,3,2.59,5.72,5.55,5.83a6.15,6.15,0,0,0,6.37-5.38,81.6,81.6,0,0,0-.35-26.1,94.42,94.42,0,0,0-8-24.22c-1.11-2.26-5.09-.86-4.47,1.58Z" />
    <path fill="#60b45a" d="M1191.61,252.13c-3.65-5.87-7.43-11.85-12.83-16.17s-12.8-6.77-19.35-4.56a11.44,11.44,0,0,0-5.12,3.3c-2.23,2.62-2.77,6.38-2.12,9.76a27.46,27.46,0,0,0,4.18,9.38,88.71,88.71,0,0,0,27.68,27.6c7,4.42,19.16,6.85,18-4.89C1201.15,267.64,1196.25,259.57,1191.61,252.13Z" />
    <path fill="#fff" d="M1174.2,242.08a76.18,76.18,0,0,1,19.06,15.84,3.36,3.36,0,0,0,1.46-3.78,9.89,9.89,0,0,0-2.18-3.75l-3.48-4.35c-3.28-4.09-6.59-8.21-10.73-11.43s-10.14-5.82-15.37-5.6c-3.25.13-17.25,8.54-10.81,12.09,2.17,1.2,7.27-2.34,9.52-2.66C1166.12,237.81,1170.47,239.89,1174.2,242.08Z" />
    <path fill="#95cbb1" d="M1166.54,253a52.52,52.52,0,0,0,17.2,12.82c.94.44,2.09.83,3,.26,1.9-1.26-.51-4.46.58-6.46a17.55,17.55,0,0,0,5.43,2.52,6,6,0,0,0,5.57-1.46,7.14,7.14,0,0,0,1.53-4.26,53.51,53.51,0,0,1,4.26,15.37,6.66,6.66,0,0,1-.56,4.48,5.68,5.68,0,0,1-4.15,2.16c-5,.67-10-1.55-14.31-4.25-2.93-1.85-5.7-3.94-8.47-6a45.23,45.23,0,0,1-3.65-3.55C1168.56,260.44,1166.54,253,1166.54,253Z" />
    <path fill="#60b45a" d="M1213.05,257.67c6.63-20.34,15.8-36.85,33.81-48.42,4.67-3,11.26-4.06,16.78-4.69s11.57,1.06,15,5.42c3.28,4.16,3.7,10,2.73,15.18-2.45,13.16-12.38,23.63-22.92,31.89A156.69,156.69,0,0,1,1225.29,277c-4.55,2-11,6.08-15.14,1.5C1206.18,274.08,1211.47,262.55,1213.05,257.67Z" />
    <path fill="#95cbb1" d="M1246.42,259.52c2.23-1.45,4.62-3.16,7.27-2.87-.9,3.75-4.8,5.8-8.15,7.71-8.51,4.86-16.28,11.87-26,13.22a2.82,2.82,0,0,1-2.64-.6c-.69-.86-.22-2.13.31-3.09,1.32-2.4,3.31-6.09,5.75-7.52,1.8-1,4-.45,6-.58A36.72,36.72,0,0,0,1246.42,259.52Z" />
    <path fill="#60b45a" d="M1236.66,239.66c4.28-4.37,17.33-14,23.38-13.07-12.22,14.4-31,34.83-43.19,49.23-1.21,1.43-2.55,2.94-4.36,3.44a2.59,2.59,0,0,1-1.82-.08c-1.36-.69-1.26-2.63-1-4.13,1.45-7.11,2.29-10,7.92-18.22C1217.64,256.83,1227.31,247.93,1236.66,239.66Z" />
    <path fill="#cde7de" d="M1257.35,240a149.61,149.61,0,0,0-16.59,15.76c-5.24,5.58-11.19,10.94-18.55,13a61.71,61.71,0,0,1,7-9.66l8.94-10.79a80.89,80.89,0,0,1,8.74-9.48c3.28-2.88,13.69-11.55,18.53-10.26C1272.85,230.57,1259.65,238.13,1257.35,240Z" />
    <path fill="#fff" d="M1242.37,223.26c6-4.37,11.12-8.06,18.54-8.34s15.36,3.58,18,10.5c6.18-3.37,6.54-13,1.93-18.3s-12.37-6.84-19.37-6.1c-11.14,1.17-21.42,7.25-29,15.51-2.58,2.81-20,28-14.78,30.12C1218.17,246.82,1239.35,225.46,1242.37,223.26Z" />
    <path d="M1209.32,283.28c3.78-16.5,8.16-33.59,17.37-48a69.9,69.9,0,0,1,14.8-16.86c5.51-4.47,11.92-8.46,19-9.73,6.37-1.14,13.4.44,17,5.89.12.19.56,1,.76,1.46s.27.64.4,1c.28.72-.22-.88.13.38a15.38,15.38,0,0,1,.41,2c.06.4.11.81.13,1.22,0-.71,0,.58,0,.59a20.8,20.8,0,0,1-.16,2.08c0,.42-.13.84-.19,1.26-.19,1.33.12-.4-.07.38a29.85,29.85,0,0,1-1.61,4.78,36.83,36.83,0,0,1-4.51,7.56,64.53,64.53,0,0,1-6.7,7.49,116.15,116.15,0,0,1-17.53,14c-14.07,9.25-29.77,15.85-45.23,22.39l4.92,5.91,23.93-25.81c7-7.52,13.73-15.4,21.49-22.13a58.71,58.71,0,0,1,13.43-9c4.38-2.08,1.22-8.88-3.18-6.83-9.28,4.32-16.94,11.17-24,18.46-8,8.26-15.74,16.75-23.59,25.14l-13.87,14.82c-1.35,1.44-2,3.37-.79,5.17a4,4,0,0,0,5,1.49c15-6.24,30-12.58,43.8-21.17A122.76,122.76,0,0,0,1270,252.43c5.68-5.35,10.83-11.19,14.28-18.24,3.16-6.44,4.44-14,1.69-20.83-3.1-7.71-11.2-12.34-19.25-12.94-8.54-.63-16.68,2.85-23.72,7.36A68.27,68.27,0,0,0,1225.11,225c-12.27,16.72-17.51,37.17-19.3,57.55-.17,2,3,2.81,3.51.77Z" />
    <path d="M1203.48,288.32a24.93,24.93,0,0,0,1.57-3.69,15.66,15.66,0,0,0,.33-4.38,39.86,39.86,0,0,0-1.08-8.77,68.36,68.36,0,0,0-6-16.05,103.73,103.73,0,0,0-9.6-14.91c-4-5.22-8.67-10.08-14.78-12.73a20.42,20.42,0,0,0-16.17,0,15.45,15.45,0,0,0-9.08,14.25c.1,6.46,3,12.32,6.48,17.59a89,89,0,0,0,11.63,14.06c10.13,9.95,22.74,17.48,37.1,18.85,3.5.33,5.85-4.08,3.52-6.76q-14.34-16.44-28.66-32.89c-3.54-4-10,1.29-6.43,5.33L1201,291.05l3.52-6.77c-10.53-1-20-5.92-28.06-12.75a79.26,79.26,0,0,1-11-11.53c-3.21-4.07-6.39-8.36-8-13.36a13.36,13.36,0,0,1-.65-6.07,7.65,7.65,0,0,1,2.43-4.44c2.61-2.2,7-2.69,10.42-1.66,5.06,1.56,8.94,5.47,12.23,9.45a92.38,92.38,0,0,1,8.82,12.53,64.13,64.13,0,0,1,6.61,15.05,71.55,71.55,0,0,1,1.67,8.34c.21,1.36.23,2.74.43,4.09s.82,2.78,1.15,4.15a1.5,1.5,0,0,0,2.86.24Z" />
    <path d="M1206.32,281a80.25,80.25,0,0,1-7.69,16.77,104.87,104.87,0,0,1-11.05,15.11c-1.54,1.73-.73,4.75,1,6a4.36,4.36,0,0,0,6-1,66.64,66.64,0,0,0,10.22-17.17,77.62,77.62,0,0,0,4.86-19,1.73,1.73,0,0,0-3.33-.72Z" />
  </g>
</svg>
