<svg xmlns="http://www.w3.org/2000/svg" viewBox="0 0 269.75 247.2" width="50">
  <ellipse cx="134.51" cy="123.6" rx="130.4" ry="120.2" fill="#7ab853" />
  <path fill="#688f41" d="M134.51 6.8c70.14 0 127 52.29 127 116.8s-56.86 116.8-127 116.8-127-52.29-127-116.8S64.37 6.8 134.51 6.8zm0-6.8C60.73 0 .71 55.45.71 123.6s60 123.6 133.8 123.6 133.81-55.45 133.81-123.6S208.29 0 134.51 0z" />
  <path d="M136.44 243.8c-65.15 0-119-45.68-128.06-108.63a44.18 44.18 0 00-1.92-7.37C2.49 115.62 1.73 105.92 26.2 83c9.1-8.52 18.93-17.44 30.31-24.6 27.35-17.2 72.18-26.1 96.26-30.88 6.36-1.26 11.39-2.26 13.21-2.88 11.5-3.9 20.81-5.79 28.46-5.79a45.34 45.34 0 0115.5 2.81c3.17 1 5.9 1.94 9.37 1.94h.28c.64 0 1.3-.05 2-.1.89-.06 1.77-.11 2.64-.11a11.89 11.89 0 015.23 1c3.76 1.81 5.1 5.38 6.17 8.24.2.54.4 1.07.61 1.58 1.34 3.2 3.16 5.32 5.69 8.26 5.41 6.3 12.83 14.92 21.48 41 4.24 12.78 3.14 28 1.66 42.44s-3 29.69-9.7 44.59c-19.94 44.5-66.6 73.3-118.93 73.3z" fill="#86bd55" />
  <path fill="#688f41" d="M194.44 22.23c11.81 0 16.18 4.75 24.87 4.75h.33c1.49 0 3.05-.21 4.55-.21a8.48 8.48 0 013.75.71c3.11 1.49 3.88 5.09 5.12 8.06 4.67 11.16 14.46 11 27.08 49 4.17 12.58 2.84 28.07 1.51 41-1.57 15.22-3.17 29.54-9.43 43.55-18.56 41.56-63.27 71.3-115.78 71.3-66.89 0-116.24-47-124.69-105.71-2.07-14.37-14.23-20.16 16.78-49.22 9.29-8.71 18.83-17.31 29.79-24.2C93 39.49 158.09 30.89 167.07 27.84c12.5-4.24 21.01-5.61 27.37-5.61zm0-6.8c-8 0-17.69 1.95-29.56 6-1.6.54-7 1.62-12.77 2.76C127.81 29 82.59 38 54.7 55.5c-11.64 7.32-21.61 16.36-30.82 25C-2 104.76-1 115.84 3.22 128.85a39.9 39.9 0 011.78 6.8 129.69 129.69 0 0042.68 79c24.26 21.35 54.95 32.55 88.76 32.55 53.67 0 101.55-29.57 122-75.33 6.88-15.4 8.53-31.46 10-45.63 1.53-14.84 2.64-30.44-1.81-43.86-8.87-26.69-16.53-35.61-22.13-42.12-2.41-2.8-4-4.65-5.13-7.35-.2-.47-.38-1-.57-1.46-1.15-3.07-2.88-7.71-7.87-10.11a15.21 15.21 0 00-6.74-1.34c-1 0-2 .07-2.87.13-.59 0-1.19.09-1.78.09h-.23c-2.92 0-5.3-.78-8.31-1.77a48.9 48.9 0 00-16.56-3.02z" />
  <path d="M260.14 84.52q-1.25-3.72-2.44-7c-1.86 5.49-4.06 10.83-6.14 15.76-6 14.09-11.69 27.31-21.78 38.87-29.94 34.3-81.4 49.62-131.6 34.23C59.43 154.53 31.92 128 18.27 96 .62 116.22 10 122.24 11.75 134.69c8.45 58.73 57.8 105.71 124.69 105.71 52.51 0 97.22-29.74 115.78-71.3 6.26-14 7.86-28.33 9.43-43.55 1.35-12.96 2.66-28.45-1.51-41.03z" fill="#79ab4d" />
  <path d="M134.44 243.8c-71.87 0-130.33-53.05-130.33-118.26 0-3.08-.16-6.45-.33-10-.19-4-.38-8-.38-12.16 0-17.62 3.35-23 6-27.34 1.88-3 3.25-5.23 3.25-12 0-6 1-9.28 3.19-15.59.32-.95.6-1.84.86-2.68 1.3-3.9 2.3-7.3 6.3-11.47a53.82 53.82 0 0138.84-16.15c11.61 0 20.19 5.36 27.08 9.68 4.89 3.06 9.11 5.71 13 5.71 2.92 0 5.14-1.43 8-3.23 3.48-2.22 7.43-4.75 13.36-4.75 5.67 0 12.23 2.43 20.06 7.42 10.16 6.47 12.63 6.86 17.11 7.58a69.53 69.53 0 0112.73 3.15c18.41 6.18 23.72 11.74 28.4 16.64A30 30 0 00211.73 68a86 86 0 0010 3.92c9.19 3.07 9.72 4 23.32 29.16 3.57 6.6 14.89 27.22 15.31 28 2.5 4.42 4.14 7.34 4.14 11.53 0 8.73-8.1 34.64-27.61 57.74-17.55 20.73-49.55 45.45-102.45 45.45z" fill="#93c95b" />
  <path fill="#688f41" d="M61.84 21.55c18.86 0 28.86 15.39 40.16 15.39 8.15 0 11.82-8 21.32-8 4.45 0 10.17 1.75 18.24 6.89 17.08 10.88 14.41 5.65 30.58 11.08 28.88 9.7 23.7 17.42 38.19 24.18 23.49 11 10.8-5.93 45.69 57.18 3.28 5.92 5.08 8.43 5.08 12.31 0 15.05-29.29 99.8-126.63 99.8C64.76 240.4 7.51 189.3 7.51 125.54c0-6.59-.71-14.39-.71-22.17 0-29.52 9.3-21.64 9.3-39.3 0-5.53.95-8.47 3-14.5 1.76-5.17 2.12-8.49 6.37-12.92a50.52 50.52 0 0136.37-15.1zm0-6.81a57.28 57.28 0 00-41.27 17.2C16 36.69 14.74 40.81 13.5 44.8c-.26.81-.52 1.66-.83 2.58-2.22 6.49-3.37 10.18-3.37 16.69 0 5.76-1 7.42-2.74 10.16C3 80 0 86.18 0 103.37c0 4.21.19 8.34.38 12.32.17 3.52.33 6.85.33 9.85 0 67.08 60 121.66 133.73 121.66 54.21 0 87-25.38 105-46.67 19.38-22.94 28.42-49.33 28.42-59.93 0-5.08-1.93-8.49-4.59-13.2-.41-.73-11.67-21.26-15.27-27.9-13.94-25.74-14.78-27.28-25.24-30.78a81.87 81.87 0 01-9.61-3.78c-4.49-2.09-6.43-4.13-9.12-6.94-4.71-4.93-10.57-11.07-29.77-17.52A73.69 73.69 0 00161 37.21c-4-.65-6.26-1-15.82-7.1-8.51-5.42-15.47-7.95-21.89-7.95-6.92 0-11.7 3.06-15.19 5.29-2.76 1.76-4.29 2.69-6.13 2.69-3 0-6.8-2.41-11.25-5.19-7.26-4.55-16.29-10.21-28.88-10.21z" />
  <path d="M254.14 159.44c-3.28-4.46-7.39 7.7-42.53 19.62a170.9 170.9 0 01-83.78 5.88c57.22-24.18 88.11-64.41 96.33-103.76a2.26 2.26 0 00-.9-2.29l-1.13-.39a2.24 2.24 0 00-2.41 1.76C207.24 140 151.53 175.32 92.5 191a142.51 142.51 0 01-7.87-14.64c20.42-10.79 43.2-31.13 49.37-53.47.8-2.89-3.58-4.08-4.38-1.2-5.9 21.39-27.57 39.63-47.38 49.45a180.54 180.54 0 01-11.53-40.74c16.17-15.82 42.45-16.1 63.57-24.25 1.62 1.24 15.41 3.56 21.68 3.68 13.36.15 21-4.79 32.2-12 7.18-4.62 16.13-10.36 20.4-19.44a2.27 2.27 0 00-4.11-1.93c-3.71 7.9-12 13.25-18.74 17.55-16.33 10.48-24.1 12.79-43.15 8.36 20.82-11 30-32.18 28-51.21a2.27 2.27 0 00-4.51.49 47.46 47.46 0 01-17.38 41.41c-9.17 7.2-20.46 10.48-31.63 13.08 7.93-7.76 16.68-24.48 20.15-35A72.43 72.43 0 00140 37.9c-.06-.41 0-.45-2.7-1.86-5 1.05 3.22 10.34-4.48 33.68-3 8.68-10.53 21.44-14.85 27.09C103.49 116 90 107.39 69.69 123.54 65.76 94.11 68 61.66 73.34 37.78a2.07 2.07 0 00-4-1c-5.23 17.87-9.09 41.51-9.68 65.67-15.86-8.32-16.82-30.18-40-42.86a2.23 2.23 0 00-1.8-.15 29 29 0 00-.71 3.85A53.81 53.81 0 0132.8 76.64c7.71 9.93 12.6 26.06 26.78 32.07a220 220 0 004 41.8 65.43 65.43 0 01-16.72.85 108.4 108.4 0 01-33.07-65.74 2.25 2.25 0 00-2.27-2 25.54 25.54 0 00-1.93 4.71 121 121 0 0028 61.64c-18.84-4.06-27.15-13.81-29-14.3.13 2 .33 4 .58 6A74.71 74.71 0 0064.8 156.2c5.58 24.66 15.86 45.68 27.31 60.62a170.36 170.36 0 01-67.88-57.7 2.27 2.27 0 00-3.75 2.56c28.65 41.88 74.52 65.19 78.9 64.19a136.78 136.78 0 0012.41 12.67 140.19 140.19 0 0034 1.42c-22.31-11.78-40.21-28.6-50-43.85q11.28-3.2 22.29-7.29c47.21 10.88 100.54-.54 135.59-26.21a2.27 2.27 0 00.47-3.17z" fill="#8ec264" />
  <path d="M253.35 156.35c-3.28-4.46-7.4 7.7-42.53 19.63a171.17 171.17 0 01-83.82 5.88c57.22-24.19 88.11-64.41 96.33-103.76a2.27 2.27 0 00-.89-2.3l-1.14-.39a2.25 2.25 0 00-2.41 1.76c-12.48 59.71-68.19 95.07-127.21 110.76a139.66 139.66 0 01-7.88-14.64c20.42-10.78 43.2-31.13 49.37-53.46a2.27 2.27 0 00-4.37-1.21c-5.91 21.4-27.58 39.63-47.39 49.45a180 180 0 01-11.52-40.76c16.17-15.81 42.44-16.09 63.56-24.25 1.62 1.24 15.42 3.57 21.69 3.68 13.36.15 21-4.79 32.19-12 7.19-4.61 16.13-10.36 20.4-19.43a2.27 2.27 0 00-4.1-1.93c-3.72 7.89-12 13.24-18.75 17.54-16.32 10.49-24.09 12.79-43.14 8.37 20.81-11.06 30-32.18 27.95-51.21a2.27 2.27 0 00-4.51.48A47.45 47.45 0 01147.83 90c-9.16 7.21-20.45 10.49-31.62 13.09 7.92-7.77 16.67-24.48 20.14-35a72.35 72.35 0 002.89-33.29c-.06-.41 0-.44-2.7-1.86-5 1 3.22 10.34-4.48 33.68-3 8.69-10.53 21.44-14.85 27.1-14.51 19.19-28.06 10.57-48.32 26.73C65 91 67.17 58.58 72.54 34.7a2.07 2.07 0 00-4-1c-5.24 17.87-9.1 41.5-9.68 65.67C43 91 42 69.16 18.8 56.47a2.25 2.25 0 00-1.8-.15 29.17 29.17 0 00-.71 3.86A53.64 53.64 0 0132 73.55c7.7 9.93 12.59 26.06 26.77 32.07a220.74 220.74 0 004 41.8 65 65 0 01-16.72.85A108.38 108.38 0 0113 82.54a2.25 2.25 0 00-2.27-2 25.67 25.67 0 00-1.93 4.72 121.13 121.13 0 0028 61.64C18 142.86 9.68 133.11 7.77 132.62c.14 2 .33 4 .58 6A74.72 74.72 0 0064 153.16c5.58 24.66 15.86 45.68 27.31 60.62a170.5 170.5 0 01-67.88-57.7 2.27 2.27 0 00-3.74 2.57c28.67 41.82 74.51 65.13 78.91 64.13a154.08 154.08 0 0016.2 15.87c1.52 1.3 19.45 2.54 35.4.94-12-6.12-19.86-10.46-30.17-19.13-11.65-9.8-20.39-20.17-25-27.43 7.52-2.14 15-4.55 22.3-7.3 47.21 10.88 100.54-.53 135.59-26.21a2.27 2.27 0 00.43-3.17z" fill="#a7e374" />
  <path d="M37.07 50c-7.27 10.22-9 23.31-9.51 35.84-.26 5.8-.25 11.88 2.35 17.08s8.58 9.17 14.17 7.59c6.27-1.76 9-9 14.17-13.05 11-8.57 27.54.33 40.72-4.14 9.39-3.18 15.5-13.34 15.18-23.25S107.8 51 99.54 45.48C82.92 34.45 49.76 32.19 37.07 50z" fill="#aae86a" opacity=".3" />
  <path d="M256 128.29c-2.77-5-5.22-9.49-7.44-13.56-8.16 33-33 78.52-98.05 97.5-40.39 11.77-81.3 6.33-112.32-11.87 23.35 24.54 57.91 40 96.25 40 97.34 0 126.63-84.75 126.63-99.8 0-3.84-1.8-6.35-5.07-12.27z" fill="#7ba84c" opacity=".5" />
  <path fill="#452a1d" d="M110 175.21a15.49 15.49 0 11-15.49-15.49A15.49 15.49 0 01110 175.21z" />
  <circle fill="#fff" cx="89.95" cy="170.69" r="4.8" />
  <path fill="#fff" d="M102.73 180.88a2.59 2.59 0 11-2.59-2.6 2.59 2.59 0 012.59 2.6z" />
  <path fill="#ffbdcd" d="M102 198.63c0 2.17-3.33 3.94-7.44 3.94s-7.44-1.77-7.44-3.94 3.33-3.94 7.44-3.94 7.44 1.77 7.44 3.94z" />
  <path fill="#452a1d" d="M190.77 175.21a15.49 15.49 0 11-15.49-15.49 15.49 15.49 0 0115.49 15.49z" />
  <path fill="#fff" d="M175.55 170.69a4.8 4.8 0 11-4.8-4.8 4.8 4.8 0 014.8 4.8zM183.53 180.88a2.59 2.59 0 11-2.59-2.6 2.59 2.59 0 012.59 2.6z" />
  <path fill="#ffbdcd" d="M182.76 198.63c0 2.17-3.34 3.94-7.44 3.94s-7.44-1.77-7.44-3.94 3.33-3.94 7.44-3.94 7.44 1.77 7.44 3.94z" />
  <path fill="#452a1d" d="M134.88 203.68c-6.87 0-12.7-3-14.51-7.41a1.7 1.7 0 013.15-1.28c1.25 3.06 6 5.28 11.36 5.28s10.12-2.22 11.36-5.27a1.7 1.7 0 013.15 1.28c-1.81 4.42-7.64 7.4-14.51 7.4z" />
</svg>
