<svg xmlns="http://www.w3.org/2000/svg" width="11.318" height="15.32" viewBox="0 0 11.318 15.32">
  <defs>
    <style>
      .a {
        fill: #686666;
      }
    </style>
  </defs>
  <g transform="translate(0)">
    <path
      class="a"
      d="M53.739,0A5.665,5.665,0,0,0,48.08,5.659a6.529,6.529,0,0,0,.48,2.179,9.127,9.127,0,0,0,.654,1.223l3.88,5.879a.738.738,0,0,0,1.29,0l3.88-5.879a9.089,9.089,0,0,0,.654-1.223,6.528,6.528,0,0,0,.48-2.179A5.665,5.665,0,0,0,53.739,0ZM58.3,7.58a8.363,8.363,0,0,1-.6,1.115l-3.88,5.879c-.077.116-.1.116-.177,0L49.77,8.695a8.366,8.366,0,0,1-.6-1.116,5.927,5.927,0,0,1-.428-1.92,4.993,4.993,0,0,1,9.987,0A5.932,5.932,0,0,1,58.3,7.58Z"
      transform="translate(-48.08)"
    />
    <path
      class="a"
      d="M115.076,64.008a3,3,0,1,0,3,3A3,3,0,0,0,115.076,64.008Zm0,5.326a2.33,2.33,0,1,1,2.33-2.33A2.333,2.333,0,0,1,115.076,69.334Z"
      transform="translate(-109.417 -61.345)"
    />
  </g>
</svg>
