<svg width="22" height="22" viewBox="0 0 22 22" fill="none" xmlns="http://www.w3.org/2000/svg">
  <rect x="0.6" y="0.6" width="20.8" height="20.8" rx="4.4" stroke="#272D3B" stroke-width="1.2"/>
  <path d="M14.3566 18.2596C14.2953 18.2752 14.2314 18.279 14.1672 18.2703C14.0345 18.2528 13.9145 18.1819 13.8332 18.074L10.9117 14.1992L9.24364 16.6725C9.17691 16.7895 9.03159 16.8981 8.86332 16.941C8.50996 17.0311 8.14784 16.8135 8.05657 16.4554L5.04764 4.64912C4.95636 4.29099 5.17016 3.92661 5.52352 3.83655C5.67307 3.79844 5.83145 3.8143 5.98006 3.88342L16.6509 10.3792C16.8248 10.5092 16.9126 10.6404 16.9508 10.7904C17.0419 11.148 16.8283 11.5129 16.4749 11.603L13.5995 12.3358L16.4158 16.0736C16.5823 16.2945 16.5416 16.6078 16.3249 16.777L14.5398 18.1698C14.4851 18.2122 14.4226 18.2428 14.3566 18.2596ZM10.7638 12.8453C10.8 12.8361 10.8366 12.831 10.875 12.8302C11.036 12.8266 11.19 12.9007 11.2873 13.0308L14.3242 17.0589L15.3182 16.2831L12.3448 12.3368C12.243 12.2022 12.2148 12.0245 12.27 11.8653C12.3254 11.7061 12.4564 11.585 12.6189 11.5436L15.4502 10.822L6.22321 5.20541L8.84008 15.4733L10.4734 13.05C10.5424 12.9475 10.6466 12.8752 10.7638 12.8453ZM8.42498 16.0891C8.414 16.103 8.40462 16.1172 8.39588 16.1319L8.42498 16.0891Z" fill="#272D3B"/>
</svg>
